<svg width="24" height="25" viewBox="0 0 24 25" fill="none" xmlns="http://www.w3.org/2000/svg">
<g id="Heart" opacity="0.5">
<path id="Union" d="M3.6895 6.42642L3.15325 5.90208L3.6895 6.42642ZM11.5103 6.42642L12.0466 5.90208L12.0466 5.90208L11.5103 6.42642ZM3.6895 14.0734L3.15324 14.5978H3.15324L3.6895 14.0734ZM10.7887 21.3339L10.2524 21.8583L10.7887 21.3339ZM13.2111 21.3339L13.7474 21.8583L13.2111 21.3339ZM20.3103 14.0734L20.8466 14.5978L20.3103 14.0734ZM20.3103 6.42642L20.8466 5.90208V5.90208L20.3103 6.42642ZM12.4895 6.42642L11.9532 5.90209V5.90209L12.4895 6.42642ZM11.9999 6.92715L11.4636 7.45148C11.6048 7.5958 11.7981 7.67715 11.9999 7.67715C12.2017 7.67715 12.3951 7.5958 12.5362 7.45148L11.9999 6.92715ZM4.22576 6.95076C6.07686 5.05759 9.12295 5.05759 10.9741 6.95076L12.0466 5.90208C9.60707 3.40715 5.59274 3.40715 3.15325 5.90208L4.22576 6.95076ZM4.22575 13.5491C2.43256 11.7151 2.43256 8.78471 4.22576 6.95076L3.15325 5.90208C0.790067 8.31897 0.790061 12.1809 3.15324 14.5978L4.22575 13.5491ZM11.3249 20.8096L4.22575 13.5491L3.15324 14.5978L10.2524 21.8583L11.3249 20.8096ZM12.6749 20.8096C12.3046 21.1883 11.6952 21.1883 11.3249 20.8096L10.2524 21.8583C11.2111 22.8388 12.7887 22.8388 13.7474 21.8583L12.6749 20.8096ZM19.7741 13.5491L12.6749 20.8096L13.7474 21.8583L20.8466 14.5978L19.7741 13.5491ZM19.7741 6.95076C21.5672 8.78471 21.5672 11.7151 19.7741 13.5491L20.8466 14.5978C23.2097 12.1809 23.2097 8.31897 20.8466 5.90208L19.7741 6.95076ZM13.0258 6.95076C14.8769 5.05759 17.923 5.05759 19.7741 6.95076L20.8466 5.90208C18.4071 3.40715 14.3927 3.40715 11.9532 5.90209L13.0258 6.95076ZM12.5362 7.45148L13.0258 6.95076L11.9532 5.90209L11.4636 6.40281L12.5362 7.45148ZM10.9741 6.95076L11.4636 7.45148L12.5362 6.40281L12.0466 5.90208L10.9741 6.95076Z" fill="#22282F"/>
</g>
</svg>
