<?xml version="1.0" encoding="utf-8"?>
<!-- Generator: Adobe Illustrator 25.4.1, SVG Export Plug-In . SVG Version: 6.00 Build 0)  -->
<svg version="1.1" id="Layer_1" xmlns="http://www.w3.org/2000/svg" xmlns:xlink="http://www.w3.org/1999/xlink" x="0px" y="0px"
	 viewBox="0 0 600 600" style="enable-background:new 0 0 600 600;" xml:space="preserve">
<g>
	<path d="M590.23,143.45c0-4.64-1.03-5.79-5.75-5.79c-190.19,0.14-380.37,0.14-570.56,0c-5.03-0.01-6.01,1.41-6.01,6.16
		C8.05,252.5,8.06,361.19,7.9,469.88c-0.01,5.28,1.43,6.43,6.55,6.41c53.92-0.2,107.85-0.12,161.76-0.12h7.46
		c-2.99,8.29-5.81,16.1-8.55,23.68c9.8,2.87,16.73-0.19,22.54-7.41c3.52-4.36,8.12-7.85,11.81-12.1c2.88-3.32,6.1-4.27,10.38-4.25
		c49.33,0.13,98.66,0.89,147.96-0.36c17.33-0.44,30.86,3.08,40.79,17.41c5.43,7.84,12.94,8.78,21.81,6.9
		c-2.83-7.81-5.66-15.58-8.67-23.87h7.46c51.62,0,103.24-0.07,154.86,0.11c4.9,0.02,6.17-1.19,6.17-6.14
		C590.08,361.24,590.08,252.35,590.23,143.45z M571.43,451.11c0.01,5.38-1.54,6.36-6.6,6.35c-177.18-0.13-354.38-0.13-531.57,0.01
		c-5.13,0-6.57-1.13-6.56-6.41c0.17-96.12,0.18-192.25-0.02-288.37c-0.01-5.57,1.76-6.21,6.63-6.2c88.59,0.14,177.19,0.1,265.78,0.1
		s177.19,0.04,265.78-0.11c4.96-0.01,6.57,0.8,6.56,6.26C571.24,258.86,571.25,354.99,571.43,451.11z"/>
</g>
</svg>
