<?xml version="1.0" encoding="utf-8"?>
<!-- Generator: Adobe Illustrator 25.4.1, SVG Export Plug-In . SVG Version: 6.00 Build 0)  -->
<svg version="1.1" id="Layer_1" xmlns="http://www.w3.org/2000/svg" xmlns:xlink="http://www.w3.org/1999/xlink" x="0px" y="0px"
	 viewBox="0 0 600 600" style="enable-background:new 0 0 600 600;" xml:space="preserve">
<g>
	<path d="M593.86,358.45c0,8.05-0.8,16.08-2.4,23.96c-1.2,5.9-2.48,11.76-4.47,17.38c-26.97,76.22-115.31,106.61-182.72,61.91
		c-39.23-26.01-57.62-64.03-54.15-111.33c2.82-38.36,20.79-68.52,52.52-90.39c1-0.69,1.96-1.42,3.15-2.31
		c0.53-0.39,0.69-1.12,0.38-1.7c-4.42-8.3-8.8-16.54-13.45-25.28c-0.47-0.88-1.7-0.96-2.27-0.15c-1.38,1.95-2.49,3.51-3.57,5.09
		c-29.15,42.14-58.36,84.24-87.35,126.49c-3.75,5.47-8.06,7.99-14.73,7.77c-11.04-0.36-22.1-0.12-33.41-0.1
		c-0.67,0-1.24,0.5-1.32,1.17c-5.07,41.42-24.59,73.46-60.22,94.95c-27.64,16.67-57.74,21.11-88.96,13.74
		C35.37,464.18-4.14,401.62,8.47,335.92C20,275.9,89.44,216.34,171.05,245.9c0.65,0.24,1.37-0.06,1.66-0.68
		c5.52-11.89,12.01-23.5,15.98-35.91c2.26-7.07,0.61-15.39,0.44-24.09c-0.01-0.73-0.59-1.32-1.33-1.32
		c-4.05,0.01-8.27,0.05-12.49-0.02c-6.9-0.11-10.96-3.49-10.98-9.03c-0.02-5.55,3.99-9.1,10.92-9.14c17.41-0.11,34.82-0.11,52.23,0
		c6.85,0.05,10.88,3.72,10.79,9.27c-0.09,5.49-4.17,8.82-11.11,8.9c-5.84,0.06-11.67,0.02-17.76,0.02c-0.74,0-1.35,0.6-1.35,1.34
		v14.29c0,0.74,0.6,1.34,1.34,1.34h174.25c0.74,0,1.34-0.6,1.34-1.34v-37.58c0-11.94,0-11.93-11.23-16.05
		c-10.22-3.75-20.47-7.41-30.62-11.33c-6.14-2.37-8.33-6.96-6.25-12.13c1.85-4.63,6.47-6.77,11.94-4.78
		c15.79,5.75,31.47,11.8,47.2,17.7c5.12,1.92,6.52,5.85,6.5,10.9c-0.08,18.56-0.16,37.12,0.09,55.67c0.05,3.46,1.01,7.18,2.54,10.3
		c5.54,11.33,11.46,22.48,17.19,33.57c0.28,0.55,0.91,0.83,1.51,0.68c9.35-2.36,18.31-5.08,27.47-6.72
		c67.51-12.08,131.92,35.15,141.31,103.39c0,0.03,0.01,0.06,0.01,0.09C593.36,348.27,593.86,353.35,593.86,358.45L593.86,358.45z
		 M416.18,274.08c-0.36-0.69-1.23-0.93-1.89-0.52c-42.13,26.21-62.25,85.36-34.72,136.2c27.43,50.66,91.7,69.38,141.55,41.53
		c50.99-28.5,69.23-93.55,40.36-142.77c-30.24-51.57-90.15-62.13-128.65-44.57c-0.68,0.31-0.96,1.13-0.64,1.8
		c0.62,1.28,1.23,2.56,1.89,3.82c14.17,27.29,28.35,54.57,42.51,81.86c1.05,2.02,2.1,4.1,2.74,6.27c1.34,4.49-0.45,7.96-4.39,10.09
		c-4.04,2.18-7.85,1.37-10.77-2.22c-1.31-1.61-2.24-3.54-3.21-5.4c-10.84-20.84-21.65-41.69-32.48-62.54
		C424.38,289.77,420.28,281.94,416.18,274.08z M163.09,264.35c0.29-0.67-0.01-1.46-0.68-1.75c-29.92-13.03-77.38-7.81-108.58,24.91
		c-33.73,35.37-39.09,86.22-13.84,127.41c24.23,39.52,73.1,58.27,117.63,45.05c46.3-13.75,71.15-54.78,73.04-88.76
		c0.04-0.76-0.58-1.4-1.34-1.4h-4.23c-15.87,0-31.75,0-47.62,0c-15.87,0-31.75,0.08-47.62-0.03c-8.15-0.06-12.04-5.27-9.96-12.81
		c0.27-0.96,0.65-1.89,1.07-2.8c13.24-28.1,26.5-56.21,39.73-84.32C161.54,268.03,162.31,266.18,163.09,264.35z M373.8,221.22
		c0.47-0.69,0.22-1.68-0.56-1.98c-0.09-0.04-0.17-0.05-0.25-0.05c-55.25-0.05-110.5-0.09-165.74-0.01c-1.41,0-3.54,0.95-4.1,2.08
		c-5.07,10.22-9.88,20.57-14.9,31.17c-0.29,0.61-0.07,1.34,0.5,1.7c35.58,22.32,56.01,54.08,60.69,95.73
		c0.08,0.68,0.65,1.19,1.33,1.19c10.04-0.01,19.41-0.16,28.77,0.09c3.72,0.1,5.87-1.21,7.93-4.23
		c16.68-24.47,33.52-48.83,50.3-73.23C349.7,256.3,361.62,238.93,373.8,221.22z M231.64,349.25c-4.6-34.07-20.99-59.59-49.93-77.94
		c-0.68-0.43-1.59-0.16-1.93,0.56c-12.24,25.83-24.24,51.14-36.48,76.98c-0.42,0.89,0.22,1.91,1.21,1.91h85.8
		C231.12,350.77,231.75,350.05,231.64,349.25z"/>
</g>
</svg>
