<svg id="Layer_1" data-name="Layer 1" xmlns="http://www.w3.org/2000/svg" viewBox="0 0 558.47 538.94"><path d="M122.84,87.82h7.72q212,0,424,0c6.68,0,12.76,1,17.59,6,5.3,5.53,7.08,12.09,5.11,19.4C560.77,174,544.44,234.9,527.64,295.64c-7.25,26.2-29.38,42.32-56.77,42.33q-149.74.09-299.48,0h-8.31c1.9,9.34,3,18.27,5.66,26.69,2.46,7.75,9.09,11.42,17.23,11.73,5.2.2,10.42.06,15.63.06H478.23c12.84,0,21.38,7.76,21.37,19.26a19.22,19.22,0,0,1-17.84,19.15c-2,.15-4,.07-6,.07-95,0-190-.44-285,.24-33.87.24-58-22.57-62.45-52.09C119.1,303,108.75,243,98.91,182.92c-5.3-32.4-10.5-64.82-15.9-97.21-1.83-10.94-9.32-17-20.58-17.11-7.61-.08-15.23.06-22.85,0C28,68.4,19.4,60,19.53,49.09c.13-10.69,8.61-18.94,19.95-18.94s22.58-.74,33.6.83C100.66,34.92,119.26,55.36,122,83.1,122.15,84.48,122.49,85.83,122.84,87.82ZM533.1,126.69h-404c9.64,57.78,19.21,115.16,28.78,172.55,1.35.12,2.14.25,2.92.25q155.13,0,310.24,0c10.1,0,17-5.38,19.75-15.23,3.24-11.55,6.23-23.18,9.35-34.77C511.06,208.73,522,168,533.1,126.69Z" transform="translate(-19.53 -29.97)"/><path d="M221.57,568.9c-36.72.07-67.13-30-67.32-66.63a67.45,67.45,0,0,1,67.7-68c36.65,0,66.92,30.27,67,66.93A67.43,67.43,0,0,1,221.57,568.9Zm28.86-67A28.84,28.84,0,1,0,221,530.41,29,29,0,0,0,250.43,501.86Z" transform="translate(-19.53 -29.97)"/><path d="M366,501.56a67.46,67.46,0,0,1,67.81-67.34c36.89.09,67.05,30.59,66.89,67.64a67.45,67.45,0,0,1-68.09,67C396,568.71,365.84,538.22,366,501.56Zm96.18-.1a28.84,28.84,0,1,0-29,28.95A29,29,0,0,0,462.15,501.46Z" transform="translate(-19.53 -29.97)"/></svg>