<svg id="Layer_1" data-name="Layer 1" xmlns="http://www.w3.org/2000/svg" viewBox="0 0 389.55 583.64"><path d="M283.34,8.3A328.21,328.21,0,0,1,322.12,10c4.74.49,9.44,1,13.87,1.5,3.77.43,7.55.84,11.28,1.52,18.56,3.34,29.42,17,31.19,36.73,1.53,17.14,4.52,34.15,7,51.21a24.15,24.15,0,0,0,1.57,4.86c3.36,9.12,3.37,9.12,13.15,9.44,27.62.91,52,23.56,54.84,51,.23,2.25.49,4.49.79,7.18,3.14,0,6,0,8.77,0,16,.23,28.15,10.72,29.66,26.54a130,130,0,0,1,0,25c-1.54,15.46-13.24,25.71-28.74,26.15-3,.09-6,0-9.39,0v39.1c3.66,0,7.05-.2,10.4,0,16,1.12,27.54,12.36,27.94,28.28q.76,29.9,0,59.83c-.41,16.51-13,28.2-29.55,28.56-2.81.06-5.63,0-9.23,0,0,6.27.1,12.08,0,17.89-.58,30.68-19.53,53.47-48.85,59a56.69,56.69,0,0,1-7,.73c-9.33.32-9.47.25-12.67,9.3-5.88,16.64-7.49,34-8.66,51.47-.34,5.1-.38,10.37-1.77,15.22-4.35,15.18-14.84,24.06-30.33,26.39a444.34,444.34,0,0,1-131.68,0c-18.94-2.79-30.47-16.89-32.23-37-1.48-16.95-4.45-33.77-6.82-50.64a23.47,23.47,0,0,0-1.31-4.36c-3.5-10-3.51-10-14.2-10.44-30.91-1.28-54.68-27.47-54.77-60.75-.14-46.54,0-93.08,0-139.62,0-36.09-.09-72.19,0-108.28.09-27.4,14.95-49.29,39.37-57.36,6.36-2.11,13.33-2.81,20.07-3.21,3.85-.23,6.33-1.31,7.17-4.82,3.23-13.6,6.59-27.19,9.2-40.92,1.3-6.85,1.07-14,1.54-21C184,28.44,196.43,15.1,216.42,12.67c11.49-1.4,23-2.42,34.53-3.66l.53,0c2.53-.21,5.06-.35,7.6-.36C267.29,8.57,275.3,8.43,283.34,8.3ZM436.11,299.94q0-45.3,0-90.61c0-12.91.42-25.86-.39-38.73-1.29-20.69-17.71-35.92-38.43-35.95q-116.83-.18-233.65.2a43,43,0,0,0-19.9,5.59c-13.86,7.77-19,20.76-19,36.37q.15,123.09.05,246.19c0,1.51,0,3,.11,4.55,1.41,22.27,17.53,37.66,39.85,37.68q115.69.12,231.37-.05A44.44,44.44,0,0,0,409,463.3c17.05-5.22,27.09-20,27.13-39.69Q436.21,361.78,436.11,299.94Zm-244-185.1H369.61c-7.54-22.16-10.52-44.57-11.23-67.43-.28-9-6.43-14-16.12-15.43a421.83,421.83,0,0,0-121.93-.16c-13.24,1.93-17.79,7.12-18.36,20.67a218.56,218.56,0,0,1-2.28,26.61C197.71,91,194.73,102.76,192.12,114.84ZM368.73,485H191.46c1.6,5.68,3.68,10.85,4.46,16.21,2.33,15.91,4.48,31.86,6,47.86,1,10.69,5.91,17.25,15.57,18.65a427.1,427.1,0,0,0,123.62.26c12.51-1.83,17.14-7.3,17.72-20.13.41-9.08.83-18.23,2.3-27.18C363.14,508.79,366.13,497.06,368.73,485Zm87.15-97.47c3,0,5.4.06,7.83,0,7.47-.22,11.26-3.78,11.32-11.28q.21-27.9,0-55.8c-.06-7-3.65-10.4-10.58-10.73-2.76-.13-5.53,0-8.55,0ZM456,231.73c2.85,0,5.45.06,8,0,7.25-.18,10.79-3.54,11-10.8.19-5.86.22-11.73,0-17.59-.28-6.56-3.91-10.1-10.33-10.43-2.78-.14-5.58,0-8.71,0Z" transform="translate(-105.23 -8.26)"/><path d="M416.59,299.93q0,56.13,0,112.27,0,33.68-33.57,33.64-102.86,0-205.73,0c-21.56,0-33-11.42-33-33.08q0-112.85,0-225.68c0-21.66,11.42-33.06,33-33.06q103.14,0,206.3,0c21.59,0,33,11.38,33,33.07Q416.63,243.51,416.59,299.93Zm-19.5.59q0-56.7,0-113.4c0-10.94-2.81-13.68-13.91-13.68H177.46c-10.73,0-13.67,2.84-13.67,13.34q0,113.11,0,226.23c0,10.54,3,13.41,13.61,13.41H383.12c11.24,0,14-2.76,14-14.21Q397.11,356.37,397.09,300.52Z" transform="translate(-105.23 -8.26)"/><path d="M297.24,225l-71.41,71.42a9.79,9.79,0,0,1-13.84,0h0a9.77,9.77,0,0,1,0-13.84l71.41-71.42a9.79,9.79,0,0,1,13.84,0h0A9.77,9.77,0,0,1,297.24,225Z" transform="translate(-105.23 -8.26)"/><path d="M239.53,216.66l-30.71,30.71a9.79,9.79,0,0,1-13.84,0h0a9.79,9.79,0,0,1,0-13.84l30.71-30.71a9.79,9.79,0,0,1,13.84,0h0A9.79,9.79,0,0,1,239.53,216.66Z" transform="translate(-105.23 -8.26)"/></svg>