<?xml version="1.0" encoding="utf-8"?>
<!-- Generator: Adobe Illustrator 25.4.1, SVG Export Plug-In . SVG Version: 6.00 Build 0)  -->
<svg version="1.1" id="Layer_1" xmlns="http://www.w3.org/2000/svg" xmlns:xlink="http://www.w3.org/1999/xlink" x="0px" y="0px"
	 viewBox="0 0 600 600" style="enable-background:new 0 0 600 600;" xml:space="preserve">
<g>
	<path d="M591.49,447.16c-76.55,0.15-153.11,0.14-229.66,0.03c-3.69,0-5.34,0.82-4.67,4.67c0.69,3.98-0.42,5.62-5.08,5.58
		c-34.04-0.22-68.08-0.21-102.13-0.01c-4.56,0.03-5.9-1.49-5.18-5.59c0.69-4.01-1.27-4.64-4.83-4.64
		c-76.23,0.11-155.34,0.1-231.72,0.11c-3.05,0-5.21,2.99-4.25,5.89h0c0.99,3.01,2.17,5.96,3.62,8.78
		c5.87,11.4,12.16,14.2,27.84,14.2h531.45c1.74,0,3.46,0.04,5.19-0.01c13.47-0.4,23.48-10.4,24.17-23.79
		C596.43,448.63,595.85,447.15,591.49,447.16z M82.3,463.66c-3.45,0.06-6.9,0.03-10.35,0.03c-3.44,0-6.89,0.02-10.34-0.02
		c-0.89-0.01-2.03,0.02-2.06-1.34c-0.03-1.37,1.1-1.41,2-1.42c6.9-0.03,13.79-0.03,20.68,0c0.9,0.01,2.05,0.07,2.09,1.36
		C84.37,463.64,83.18,463.65,82.3,463.66z"/>
	<path d="M522.23,118.27c-73.88-0.01-147.76-0.01-221.64-0.01c-73.68,0-147.37,0-221.06,0.01c-14.17,0-20.08,5.8-20.08,19.78
		c-0.01,93.31-0.01,186.63-0.01,279.94c0.01,13.9,6.06,19.88,20.12,19.88h442.12c14.02,0,20.12-6.05,20.12-19.94
		c0.01-93.31,0.01-186.62,0-279.93C541.8,124.27,535.84,118.27,522.23,118.27z M301.13,125.39c3.06,0.08,5.05,2.15,5.05,5.17
		c0,3.3-1.99,5.21-5.55,5.28c-3.06-0.3-4.87-1.99-4.87-5.16C295.77,127.23,297.8,125.29,301.13,125.39z M510.57,412.93
		c-70.02-0.16-140.04-0.11-210.05-0.11c-69.82,0-139.65-0.05-209.47,0.12c-4.91,0.01-6.34-0.93-6.33-6.18
		c0.19-85.79,0.19-171.58,0-257.36c-0.01-5.45,1.58-6.5,6.68-6.5c139.64,0.14,279.29,0.14,418.93-0.01c5.31-0.01,6.58,1.35,6.57,6.6
		c-0.17,85.79-0.18,171.58,0.03,257.36C516.95,412.21,515.34,412.94,510.57,412.93z"/>
</g>
</svg>
