<?xml version="1.0" encoding="utf-8"?>
<!-- Generator: Adobe Illustrator 25.4.1, SVG Export Plug-In . SVG Version: 6.00 Build 0)  -->
<svg version="1.1" id="Layer_1" xmlns="http://www.w3.org/2000/svg" xmlns:xlink="http://www.w3.org/1999/xlink" x="0px" y="0px"
	 viewBox="0 0 600 600" style="enable-background:new 0 0 600 600;" xml:space="preserve">
<path d="M586.59,164.3H334.07c-5.02,0-9.09-4.07-9.09-9.09v-30.55c0-5.02,4.07-9.09,9.09-9.09h252.52c5.02,0,9.09,4.07,9.09,9.09
	v30.55C595.68,160.23,591.61,164.3,586.59,164.3z"/>
<path d="M439.36,65.53H334.07c-5.02,0-9.09-4.07-9.09-9.09V25.88c0-5.02,4.07-9.09,9.09-9.09h105.29c5.02,0,9.09,4.07,9.09,9.09
	v30.55C448.45,61.45,444.38,65.53,439.36,65.53z"/>
<path d="M488.11,263.08H334.07c-5.02,0-9.09-4.07-9.09-9.09v-30.55c0-5.02,4.07-9.09,9.09-9.09h154.04c5.02,0,9.09,4.07,9.09,9.09
	v30.55C497.2,259.01,493.13,263.08,488.11,263.08z"/>
<g>
	<path d="M218.59,58.64c8.22,0,14.91,6.69,14.91,14.91v147.12c0,8.22-6.69,14.91-14.91,14.91H71.47c-8.22,0-14.91-6.69-14.91-14.91
		V72.27c0-7.51,6.11-13.63,13.63-13.63H218.59 M218.59,11.64H70.19c-33.48,0-60.63,27.14-60.63,60.63v148.4
		c0,34.19,27.72,61.91,61.91,61.91h147.12c34.19,0,61.91-27.72,61.91-61.91V73.55C280.5,39.36,252.78,11.64,218.59,11.64
		L218.59,11.64z"/>
</g>
<g>
	<path d="M218.59,364.42c8.22,0,14.91,6.69,14.91,14.91v147.12c0,8.22-6.69,14.91-14.91,14.91H71.47c-8.22,0-14.91-6.69-14.91-14.91
		v-148.4c0-7.51,6.11-13.63,13.63-13.63H218.59 M218.59,317.42H70.19c-33.48,0-60.63,27.14-60.63,60.63v148.4
		c0,34.19,27.72,61.91,61.91,61.91h147.12c34.19,0,61.91-27.72,61.91-61.91V379.33C280.5,345.14,252.78,317.42,218.59,317.42
		L218.59,317.42z"/>
</g>
<path d="M586.59,379.44H334.07c-5.02,0-9.09-4.07-9.09-9.09V339.8c0-5.02,4.07-9.09,9.09-9.09h252.52c5.02,0,9.09,4.07,9.09,9.09
	v30.55C595.68,375.37,591.61,379.44,586.59,379.44z"/>
<path d="M439.36,478.02H334.07c-5.02,0-9.09-4.07-9.09-9.09v-30.55c0-5.02,4.07-9.09,9.09-9.09h105.29c5.02,0,9.09,4.07,9.09,9.09
	v30.55C448.45,473.95,444.38,478.02,439.36,478.02z"/>
<path d="M488.11,575.07H334.07c-5.02,0-9.09-4.07-9.09-9.09v-30.55c0-5.02,4.07-9.09,9.09-9.09h154.04c5.02,0,9.09,4.07,9.09,9.09
	v30.55C497.2,571,493.13,575.07,488.11,575.07z"/>
</svg>
