<?xml version="1.0" encoding="utf-8"?>
<!-- Generator: Adobe Illustrator 25.4.1, SVG Export Plug-In . SVG Version: 6.00 Build 0)  -->
<svg version="1.1" id="Layer_1" xmlns="http://www.w3.org/2000/svg" xmlns:xlink="http://www.w3.org/1999/xlink" x="0px" y="0px"
	 viewBox="0 0 600 600" style="enable-background:new 0 0 600 600;" xml:space="preserve">
<g>
	<path d="M595.94,296.43c-0.18-14.68-10.86-25.71-25.51-27.77c-4.92-0.69-9.94-0.64-15.59-0.96v-6.43c0-11.59,0.14-23.2-0.04-34.79
		c-0.43-28.49-19.5-48.81-47.03-48.98c-57.21-0.33-114.44-0.16-171.65-0.01c-12.53,0.03-23.24,5.07-32.07,13.99
		c-1.59,1.61-3.13,3.27-4.67,4.9c-19.36-17.62-22.96-19-49.49-19h-79.73c-20.42-0.12-73.31-0.23-82.01,0.21
		c-20.37,1.06-37.31,13.9-42.31,33.65c-2.42,9.54-1.86,19.88-2.24,29.87c-0.32,8.83-0.07,17.68-0.07,26.97
		c-4.02,0-7.28-0.08-10.55,0.01c-9.5,0.28-18.04,3.12-23.83,11.02c-0.48,0.66-0.93,1.34-1.36,2.04c-3.75,6.15-5.56,13.29-5.56,20.49
		v89.03c0,2.89,0.49,5.73,1.03,8.56c0,0.01,0,0.02,0,0.03c5.03,26.4,26.05,46.35,52.65,49.87c3.72,0.5,7.48,0.77,11.71,1.19
		c-3.07,8.36-6.06,16.06-8.73,23.88c-6.31,18.51,5.15,34.72,24.66,35.03c3.1,0.05,6.19-0.13,9.28,0.04
		c10.81,0.57,18.9-4.02,25.24-12.57c10.58-14.28,21.49-28.32,32.04-42.63c2.31-3.14,4.71-4.33,8.61-4.32
		c93.74,0.1,187.49,0.1,281.25,0c3.7-0.01,5.95,1.15,8.12,4.1c10.81,14.6,21.91,28.97,32.8,43.52c5.99,7.99,13.69,12.26,23.8,11.9
		c2.89-0.11,5.8-0.01,8.7-0.02c21.58-0.11,32.96-16.6,25.48-36.95c-2.65-7.2-5.33-14.39-8.23-22.23c2.79-0.14,4.86-0.23,6.92-0.36
		c31.27-1.97,57.31-26.59,58.24-57.03C596.77,360.61,596.33,328.51,595.94,296.43z M307.94,227.12
		c0.11-20.47,12.14-32.31,32.55-32.33c54.87-0.03,109.74-0.03,164.61,0c20.14,0.02,32.1,11.83,32.3,31.93
		c0.14,13.5,0.03,27.01,0.03,41.36h-11.18c-20,0.01-29.85,7.67-34.91,27.65h-21.03c-37.68,0-75.35,0.25-113.03-0.12
		c-17.68-0.17-34.25,2.22-48.76,15.42c-0.28-2.55-0.61-4.11-0.61-5.65C307.89,279.28,307.78,253.2,307.94,227.12z M464.68,364.33
		c-3.36,0-6.72-0.11-10.08,0.01c-41.03-0.02-112.02-0.01-139.64-0.01h-6.7c-1.48-16.99,0.83-31.77,14.44-42.67
		c6.72-5.38,14.44-8.39,22.96-8.41c47.94-0.14,95.87-0.09,143.79-0.09c0.55,0,1.09,0.23,1.94,0.42v50.74H464.68z M61.01,225.57
		c0.37-19.02,12.52-30.67,31.69-30.78c7.63-0.04,62.44,0.11,79.8-0.02c0.14,0.01,0.27,0.01,0.41,0c27.84,0.02,55.68,0.01,83.52,0.01
		c22.38,0.01,34,11.52,34.03,33.81c0.05,25.13,0.02,50.25,0,75.38c0,1.98-0.2,3.97-0.37,7.32c-15.98-14.96-34.46-15.85-53.54-15.68
		c-41.17,0.35-82.34,0.11-123.51,0.11h-6.02c-4.98-19.97-14.83-27.64-34.86-27.65h-11.2C60.96,253.36,60.74,239.46,61.01,225.57z
		 M290.94,364.09H107.12v-50.55c1.22-0.13,2.69-0.4,4.15-0.4c46.21-0.02,92.42-0.09,138.63,0.01c19.75,0.05,34.66,11.15,39.16,29.69
		C290.67,349.47,290.33,356.57,290.94,364.09z M102.41,488.19c-1.47,1.86-4.45,3.16-6.9,3.47c-4.36,0.56-8.86,0.38-13.28,0.1
		c-5.93-0.38-9.16-4.82-7.27-10.43c3.25-9.67,6.9-19.22,10.62-28.72c0.48-1.2,2.37-2.63,3.62-2.64c13.66-0.19,27.33-0.12,42.39-0.12
		C121.32,463.44,112.04,475.95,102.41,488.19z M515.07,491.85c-0.38,0.02-0.78-0.04-1.16,0.01c-10.83,1.69-18.52-1.96-24.52-11.66
		c-6.35-10.27-14.39-19.48-22.59-30.34c15,0,28.66-0.09,42.29,0.14c1.36,0.02,3.36,1.7,3.9,3.08c3.56,8.94,6.94,17.97,10.1,27.06
		C525.49,487.05,522.3,491.49,515.07,491.85z M578.73,385.31c-0.05,28.5-18.64,47.06-47.28,47.12
		c-35.37,0.07-70.74,0.02-106.11,0.02c-119.25,0-238.51-0.02-357.76,0.01c-19.39,0-34.83-7.19-43.27-25.24
		c-2.92-6.25-4.35-13.73-4.47-20.68c-0.49-28.6-0.22-57.2-0.19-85.81c0.02-10.58,4.59-15.17,15.17-15.23
		c12.95-0.07,25.91-0.05,38.85,0c11.03,0.04,15.55,4.52,15.57,15.4c0.03,22.81,0,45.62,0.02,68.42c0,9.71,2.68,12.41,12.37,12.41
		c99.61,0.01,254.72,0.01,359.2,0c12.53,0.06,25.06,0.05,37.58-0.02c7.66-0.05,10.69-3.22,10.7-11.14c0.06-23,0.01-46.01,0.03-69
		c0.01-11.73,4.32-16.05,16.07-16.08c12.76-0.03,25.51-0.06,38.27,0.01c10.64,0.06,15.23,4.62,15.25,15.16
		C578.77,328.87,578.78,357.09,578.73,385.31z"/>
</g>
</svg>
