<svg id="Layer_1" data-name="Layer 1" xmlns="http://www.w3.org/2000/svg" viewBox="0 0 583.73 473.19"><path d="M340.19,105.11c1.49,0,3,0,4.48,0Zm0,0c1.49,0,3,0,4.48,0Zm-8.13-17.36h6.15l-13.63-.3C327.26,87.56,329.66,87.75,332.06,87.75Z" transform="translate(-7.27 -87.45)"/><path d="M581.62,318.44c-3.74-.53-5.09-2.28-6.43-5.22Q536.13,227,497,140.79c-.75-1.65-1.36-3.37-2.13-5.26,8.31-.39,16-.18,23.54-1.26,10.9-1.59,18.58-11.14,18.88-22.14s-6.72-20.86-17.36-23.42a49.28,49.28,0,0,0-11.41-.9q-85.14-.09-170.27-.06l.43,0h-8c-58.44,0-181.91,0-240.33,0a74.93,74.93,0,0,0-8.61.33c-9.43,1.1-16,6.27-19.29,15-6,15.76,5.26,31.25,23.11,31.9,5.8.21,11.61,0,18.26,0-3.39,7.49-6.29,13.91-9.21,20.33Q58.88,234,23.1,312.64c-1,2.11-2.92,4.76-4.89,5.26-10,2.53-13.52,9.13-9,18.4,4.3,8.76,8.81,17.41,13.19,26.13,6.86,13.62,17.77,20.55,33.15,20.4,12.46-.11,24.91,0,37.35,0,30.47,0,60.93-.09,91.38.05,12.84.06,23.63-4.24,30.31-15.28,6.41-10.62,11.8-21.89,17.11-33.12,3.35-7.07-.51-14.85-7.91-16-3.93-.59-5.38-2.45-6.8-5.58q-38.91-86-77.95-171.94c-.76-1.67-1.42-3.4-2.24-5.38H273.23V457.52h-6.62c-17.63,0-35.25-.11-52.88,0-19,.16-30.23,11.5-30.45,30.54-.05,3.95,0,7.91,0,12.47-4.92,0-9.1-.12-13.27,0-16.69.58-27.77,11.74-28.23,28.53-.16,5.92,0,11.86,0,17.8,0,11.41,2.31,13.7,13.85,13.7H442.36c1.34,0,2.69,0,4,0,6.62-.27,9.85-3.33,10-10,.19-6.89.13-13.8,0-20.68-.27-17.73-11.47-29-29.17-29.37-3.95-.08-7.91,0-12.35,0,0-4.41,0-8,0-11.64-.11-20.07-11.3-31.31-31.37-31.38-17.44-.07-34.87,0-52.29,0h-6.69V450q0-115,0-230v-6.39c0-1.3,0-2.6,0-3.89,0-21.49,0-66.86,0-74.27H461.21a35.26,35.26,0,0,1-1.12,3.48q-39.79,87.81-79.74,175.53a7.87,7.87,0,0,1-4.88,3.62c-8.44,1.94-12.54,9.06-8.76,17,5.1,10.7,10.35,21.37,16.27,31.63S398.1,382,409.89,382.67c1.53.09,3.06.13,4.59.13,42.53,0,85-.07,127.59.07,13,0,24-4.21,30.72-15.56,6.33-10.66,11.75-21.9,17.07-33.13A10.91,10.91,0,0,0,581.62,318.44ZM199.41,359c-3.28,5.39-9,6.59-15,6.57-16.65-.08-33.29,0-50,0-25.63,0-51.29-.23-76.92.1-9.82.13-16.42-3.56-20.42-12.49-2.56-5.72-5.6-11.22-8.83-17.65H212.13C207.73,343.71,203.93,351.57,199.41,359Zm1-41.18H39.76C66.52,258.85,93,200.49,120.08,140.88Zm223,200.08c13,0,15.86,2.89,15.87,15.85v9.11H159.13c0-5.05-.36-10,.08-14.9.61-6.62,4.61-10,11.7-10,16.09-.12,93,0,109,0,1.49,0,3,.06,4.45,0Q353.86,517.91,423.32,517.88Zm-43.19-43.06c15,0,17.47,2.44,17.47,17.28v8.45H279.67c-17.52-.07-71.66,0-78.08,0a9.18,9.18,0,0,1-.89-2.14c-.65-20.2-.09-23.92,22-23.75C275.15,475.09,327.64,474.81,380.13,474.82Zm-60.55-357c-9.55,0-12.27,2.75-12.29,12.32,0,10.72,0,79,0,89.76,0,.35,0,.69,0,1q-.06,114.45,0,228.92v7.26H290.9V131.49c0-11.47-2.23-13.69-13.8-13.69H90.9c-1.73,0-3.46.08-5.17,0-4-.27-7.36-1.57-7.38-6.27,0-5,3.39-6.37,7.72-6.37h422.4c2.11,0,4.55-.51,6.23.39,2.06,1.1,4.85,3.41,4.84,5.2,0,2.19-2.15,5.07-4.17,6.34s-4.82.73-7.28.73Zm158.53,23.08,80.31,176.87H397.85C424.52,259,451,200.59,478.11,140.89Zm80.4,216.71c-3.34,5.86-8.91,8-15.53,7.94-16.06-.07-32.14,0-48.21,0-26.41,0-52.81-.21-79.22.1-9.8.12-16.44-3.5-20.41-12.48-2.54-5.74-5.62-11.23-8.74-17.39H569.94C565.93,343.46,562.47,350.66,558.51,357.6Z" transform="translate(-7.27 -87.45)"/></svg>