<?xml version="1.0" encoding="utf-8"?>
<!-- Generator: Adobe Illustrator 25.4.1, SVG Export Plug-In . SVG Version: 6.00 Build 0)  -->
<svg version="1.1" id="Layer_1" xmlns="http://www.w3.org/2000/svg" xmlns:xlink="http://www.w3.org/1999/xlink" x="0px" y="0px"
	 viewBox="0 0 600 600" style="enable-background:new 0 0 600 600;" xml:space="preserve">
<style type="text/css">
	.st0{fill:#010101;}
	.st1{fill:#FEFEFE;}
</style>
<g>
	<path d="M256.13,75.28c-1.05-10.35-2.57-20.82-8.1-30.01c-4.79-7.96-11.97-7.9-16.92-0.04c-2.33,3.7-3.75,7.81-4.83,12.05
		c-4.64,18.1-5.21,36.59-5.3,55.12c-0.16,11.56,0.27,23.12,1.66,34.59c1.29,10.58,2.54,21.27,8.03,30.72
		c4.82,8.31,12.23,8.23,17.28,0.01c3.24-5.26,4.86-11.16,5.97-17.15C259.17,132.27,259.03,103.77,256.13,75.28z M239.42,168.27
		c-9.06-14.95-9.68-92.14,0.16-113.97C248.94,78.18,248.66,148.53,239.42,168.27z"/>
	<path d="M546.3,68.68c-22.92-0.08-45.83-0.19-68.76-0.29c-5.09-0.02-7.55,2.31-7.47,7.61c0.16,10.48,0,20.96,0.02,31.44
		c0.01,7.62,1.19,8.85,8.64,8.88c10.91,0.05,21.83,0.01,32.74,0.01v0.06c11.36,0,22.71-0.09,34.06,0.04
		c4.83,0.05,7.42-1.8,7.42-6.84c-0.02-11.35,0-22.71,0.08-34.06C553.06,70.94,550.94,68.71,546.3,68.68z M547.13,106.28
		c0,2.65-2.15,4.8-4.8,4.8H480.3c-2.65,0-4.8-2.15-4.8-4.8V77.79c0-2.65,2.15-4.8,4.8-4.8h62.04c2.65,0,4.8,2.15,4.8,4.8V106.28z
		 M546.3,68.68c-22.92-0.08-45.83-0.19-68.76-0.29c-5.09-0.02-7.55,2.31-7.47,7.61c0.16,10.48,0,20.96,0.02,31.44
		c0.01,7.62,1.19,8.85,8.64,8.88c10.91,0.05,21.83,0.01,32.74,0.01v0.06c11.36,0,22.71-0.09,34.06,0.04
		c4.83,0.05,7.42-1.8,7.42-6.84c-0.02-11.35,0-22.71,0.08-34.06C553.06,70.94,550.94,68.71,546.3,68.68z M547.13,106.28
		c0,2.65-2.15,4.8-4.8,4.8H480.3c-2.65,0-4.8-2.15-4.8-4.8V77.79c0-2.65,2.15-4.8,4.8-4.8h62.04c2.65,0,4.8,2.15,4.8,4.8V106.28z
		 M546.3,68.68c-22.92-0.08-45.83-0.19-68.76-0.29c-5.09-0.02-7.55,2.31-7.47,7.61c0.16,10.48,0,20.96,0.02,31.44
		c0.01,7.62,1.19,8.85,8.64,8.88c10.91,0.05,21.83,0.01,32.74,0.01v0.06c11.36,0,22.71-0.09,34.06,0.04
		c4.83,0.05,7.42-1.8,7.42-6.84c-0.02-11.35,0-22.71,0.08-34.06C553.06,70.94,550.94,68.71,546.3,68.68z M547.13,106.28
		c0,2.65-2.15,4.8-4.8,4.8H480.3c-2.65,0-4.8-2.15-4.8-4.8V77.79c0-2.65,2.15-4.8,4.8-4.8h62.04c2.65,0,4.8,2.15,4.8,4.8V106.28z
		 M546.3,68.68c-22.92-0.08-45.83-0.19-68.76-0.29c-5.09-0.02-7.55,2.31-7.47,7.61c0.16,10.48,0,20.96,0.02,31.44
		c0.01,7.62,1.19,8.85,8.64,8.88c10.91,0.05,21.83,0.01,32.74,0.01v0.06c11.36,0,22.71-0.09,34.06,0.04
		c4.83,0.05,7.42-1.8,7.42-6.84c-0.02-11.35,0-22.71,0.08-34.06C553.06,70.94,550.94,68.71,546.3,68.68z M547.13,106.28
		c0,2.65-2.15,4.8-4.8,4.8H480.3c-2.65,0-4.8-2.15-4.8-4.8V77.79c0-2.65,2.15-4.8,4.8-4.8h62.04c2.65,0,4.8,2.15,4.8,4.8V106.28z
		 M546.3,68.68c-22.92-0.08-45.83-0.19-68.76-0.29c-5.09-0.02-7.55,2.31-7.47,7.61c0.16,10.48,0,20.96,0.02,31.44
		c0.01,7.62,1.19,8.85,8.64,8.88c10.91,0.05,21.83,0.01,32.74,0.01v0.06c11.36,0,22.71-0.09,34.06,0.04
		c4.83,0.05,7.42-1.8,7.42-6.84c-0.02-11.35,0-22.71,0.08-34.06C553.06,70.94,550.94,68.71,546.3,68.68z M547.13,106.28
		c0,2.65-2.15,4.8-4.8,4.8H480.3c-2.65,0-4.8-2.15-4.8-4.8V77.79c0-2.65,2.15-4.8,4.8-4.8h62.04c2.65,0,4.8,2.15,4.8,4.8V106.28z
		 M546.3,68.68c-22.92-0.08-45.83-0.19-68.76-0.29c-5.09-0.02-7.55,2.31-7.47,7.61c0.16,10.48,0,20.96,0.02,31.44
		c0.01,7.62,1.19,8.85,8.64,8.88c10.91,0.05,21.83,0.01,32.74,0.01v0.06c11.36,0,22.71-0.09,34.06,0.04
		c4.83,0.05,7.42-1.8,7.42-6.84c-0.02-11.35,0-22.71,0.08-34.06C553.06,70.94,550.94,68.71,546.3,68.68z M547.13,106.28
		c0,2.65-2.15,4.8-4.8,4.8H480.3c-2.65,0-4.8-2.15-4.8-4.8V77.79c0-2.65,2.15-4.8,4.8-4.8h62.04c2.65,0,4.8,2.15,4.8,4.8V106.28z
		 M546.3,68.68c-22.92-0.08-45.83-0.19-68.76-0.29c-5.09-0.02-7.55,2.31-7.47,7.61c0.16,10.48,0,20.96,0.02,31.44
		c0.01,7.62,1.19,8.85,8.64,8.88c10.91,0.05,21.83,0.01,32.74,0.01v0.06c11.36,0,22.71-0.09,34.06,0.04
		c4.83,0.05,7.42-1.8,7.42-6.84c-0.02-11.35,0-22.71,0.08-34.06C553.06,70.94,550.94,68.71,546.3,68.68z M547.13,106.28
		c0,2.65-2.15,4.8-4.8,4.8H480.3c-2.65,0-4.8-2.15-4.8-4.8V77.79c0-2.65,2.15-4.8,4.8-4.8h62.04c2.65,0,4.8,2.15,4.8,4.8V106.28z
		 M546.3,68.68c-22.92-0.08-45.83-0.19-68.76-0.29c-5.09-0.02-7.55,2.31-7.47,7.61c0.16,10.48,0,20.96,0.02,31.44
		c0.01,7.62,1.19,8.85,8.64,8.88c10.91,0.05,21.83,0.01,32.74,0.01v0.06c11.36,0,22.71-0.09,34.06,0.04
		c4.83,0.05,7.42-1.8,7.42-6.84c-0.02-11.35,0-22.71,0.08-34.06C553.06,70.94,550.94,68.71,546.3,68.68z M547.13,106.28
		c0,2.65-2.15,4.8-4.8,4.8H480.3c-2.65,0-4.8-2.15-4.8-4.8V77.79c0-2.65,2.15-4.8,4.8-4.8h62.04c2.65,0,4.8,2.15,4.8,4.8V106.28z
		 M546.3,68.68c-22.92-0.08-45.83-0.19-68.76-0.29c-5.09-0.02-7.55,2.31-7.47,7.61c0.16,10.48,0,20.96,0.02,31.44
		c0.01,7.62,1.19,8.85,8.64,8.88c10.91,0.05,21.83,0.01,32.74,0.01v0.06c11.36,0,22.71-0.09,34.06,0.04
		c4.83,0.05,7.42-1.8,7.42-6.84c-0.02-11.35,0-22.71,0.08-34.06C553.06,70.94,550.94,68.71,546.3,68.68z M547.13,106.28
		c0,2.65-2.15,4.8-4.8,4.8H480.3c-2.65,0-4.8-2.15-4.8-4.8V77.79c0-2.65,2.15-4.8,4.8-4.8h62.04c2.65,0,4.8,2.15,4.8,4.8V106.28z
		 M546.3,68.68c-22.92-0.08-45.83-0.19-68.76-0.29c-5.09-0.02-7.55,2.31-7.47,7.61c0.16,10.48,0,20.96,0.02,31.44
		c0.01,7.62,1.19,8.85,8.64,8.88c10.91,0.05,21.83,0.01,32.74,0.01v0.06c11.36,0,22.71-0.09,34.06,0.04
		c4.83,0.05,7.42-1.8,7.42-6.84c-0.02-11.35,0-22.71,0.08-34.06C553.06,70.94,550.94,68.71,546.3,68.68z M547.13,106.28
		c0,2.65-2.15,4.8-4.8,4.8H480.3c-2.65,0-4.8-2.15-4.8-4.8V77.79c0-2.65,2.15-4.8,4.8-4.8h62.04c2.65,0,4.8,2.15,4.8,4.8V106.28z
		 M546.3,68.68c-22.92-0.08-45.83-0.19-68.76-0.29c-5.09-0.02-7.55,2.31-7.47,7.61c0.16,10.48,0,20.96,0.02,31.44
		c0.01,7.62,1.19,8.85,8.64,8.88c10.91,0.05,21.83,0.01,32.74,0.01v0.06c11.36,0,22.71-0.09,34.06,0.04
		c4.83,0.05,7.42-1.8,7.42-6.84c-0.02-11.35,0-22.71,0.08-34.06C553.06,70.94,550.94,68.71,546.3,68.68z M547.13,106.28
		c0,2.65-2.15,4.8-4.8,4.8H480.3c-2.65,0-4.8-2.15-4.8-4.8V77.79c0-2.65,2.15-4.8,4.8-4.8h62.04c2.65,0,4.8,2.15,4.8,4.8V106.28z
		 M546.3,68.68c-22.92-0.08-45.83-0.19-68.76-0.29c-5.09-0.02-7.55,2.31-7.47,7.61c0.16,10.48,0,20.96,0.02,31.44
		c0.01,7.62,1.19,8.85,8.64,8.88c10.91,0.05,21.83,0.01,32.74,0.01v0.06c11.36,0,22.71-0.09,34.06,0.04
		c4.83,0.05,7.42-1.8,7.42-6.84c-0.02-11.35,0-22.71,0.08-34.06C553.06,70.94,550.94,68.71,546.3,68.68z M547.13,106.28
		c0,2.65-2.15,4.8-4.8,4.8H480.3c-2.65,0-4.8-2.15-4.8-4.8V77.79c0-2.65,2.15-4.8,4.8-4.8h62.04c2.65,0,4.8,2.15,4.8,4.8V106.28z
		 M576.5,72.24c-3.92-20.73-12.24-39.42-27.51-54.59c-3.64-3.61-7.55-5.12-12.78-5.13c-88.42-0.1-176.83-0.35-265.26-0.62
		c-8.29-0.03-16.84,0.92-24.79-0.78c-9.78-2.1-16.61,1.12-22.61,7.88c-5.27,5.94-8.88,12.96-11.34,20.44
		c-14.68,44.79-14.86,89.97-3.17,135.39c2.67,10.39,6.66,20.32,13.59,28.7c5.55,6.7,12.4,11.89,21.54,8.59
		c6.4-2.31,12.7-2.47,19.2-2.47c14.41,0.01,28.82,0,43.23,0v0.25c16.81,0,33.64,0.29,50.43-0.15c6.07-0.16,7.48,1.56,7.45,7.52
		c-0.32,78.39-0.35,156.78-0.49,235.16c-0.01,3.74,0.1,7.19,2.68,10.43c7.09,8.86,13.85,17.97,20.73,26.98
		c1.46,1.91,2.83,4.27,5.57,3.97c5.16-0.55,4.84,2.65,4.82,6.13c-0.12,13.54-0.06,27.07-0.16,40.61c-0.03,4.12,0.78,7.9,5.63,7.9
		c4.13,0,4.38,1.86,4.38,5.11c0.01,10.92,0.32,21.84,0.43,32.75c0.03,4.03,0.62,7.95,5.52,8.02c5.39,0.09,5.84-4.06,5.78-8.32
		c-0.15-11.13-0.17-22.27-0.3-33.4c-0.03-2.31-0.27-4.24,3.2-4.05c5.4,0.32,7.14-3.02,7.12-7.92c-0.04-12.44,0.01-24.89,0.04-37.34
		c0.01-4.48-1.4-9.6,5.66-10.55c1.32-0.17,2.44-2.36,3.51-3.73c6.09-7.7,11.93-15.61,18.26-23.11c3.76-4.44,5.19-9.1,5.18-14.91
		c-0.02-77.95,0.21-155.91,0.09-233.85c-0.01-5.94,1.64-7.05,7.18-6.96c22.04,0.38,44.1,0.1,66.15,0.39c5.21,0.06,9.19-1.46,12.88-5
		c8.17-7.84,14.35-17.03,18.62-27.39C581.07,143.87,583.35,108.4,576.5,72.24z M249.66,194.47c-6.75,9.31-12.81,9.37-19.49,0.1
		c-6.36-8.81-9.71-18.96-11.99-29.41c-8.61-39.21-8.42-78.25,3.01-116.95c1.98-6.7,4.73-13.1,8.77-18.85
		c7.04-10.04,13.32-10.15,20.25-0.15c7.09,10.22,10.22,22.02,12.83,33.95c1.17,5.31,1.93,10.73,2.71,16.1
		c1.52,10.61,1.67,21.3,1.88,31.98c-0.23,23.64-2.3,46.99-10.79,69.36C254.97,185.51,252.74,190.22,249.66,194.47z M282.97,185.65
		c-6.07,13.04-6.36,13.18-20.41,12.57c22.34-58.18,22.84-116.2-0.55-174.48c11.02-3.85,16.43,3.38,20.65,12.55
		c8.05,17.46,11.21,36.1,12.55,55.06c2.03,28.66,0.61,57.03-8.41,84.62C285.73,179.26,284.43,182.5,282.97,185.65z M290.61,198.72
		c22.84-58.5,23.15-116.56-0.41-175.18c33.34,0,67.14-0.01,100.95,0c9.6,0,19.23,0.43,28.81-0.09c5.88-0.31,9.36,2.13,12.26,6.7
		c6.42,10.09,9.89,21.29,12.15,32.86c7.46,38.05,7.13,75.84-4.25,113.2c-0.39,1.25-0.86,2.47-1.32,3.68
		c-6.98,18.47-7.78,18.9-27.03,18.85C371.38,198.65,331,198.72,290.61,198.72z M375.53,305.88v-24.8h2.56
		c3.23,0,5.85,2.61,5.85,5.84v18.96H375.53z M383.93,319.06v18.96c0,3.22-2.62,5.84-5.85,5.84h-2.56v-24.8H383.93z M417.89,533.4
		c0.06,3.53-1.52,3.76-4.28,3.73c-2.93-0.02-5-0.1-4.79-4.06c0.31-6.08,0.08-12.19,0.08-18.28h0.1c0-5.44,0.14-10.89-0.05-16.32
		c-0.11-3.26,0.74-4.76,4.36-4.57c3.04,0.15,4.72,0.49,4.64,4.26C417.69,509.9,417.69,521.65,417.89,533.4z M437.24,476.41
		c-4.17,4.17-9.92,6.74-16.28,6.74h-15.5c-12.71,0-23.02-10.3-23.02-23.02h61.54C443.98,466.49,441.41,472.24,437.24,476.41z
		 M450.76,330.66h-0.32c0,38.2-0.09,76.4,0.12,114.59c0.02,4.76-0.9,6.26-6,6.16c-20.95-0.38-41.91-0.37-62.85-0.17
		c-4.64,0.04-6.36-0.76-6.29-5.97c0.33-28.59,0.28-57.18,0.21-85.77c-0.01-3.3,0.43-4.72,4.27-5.34
		c9.33-1.49,14.59-7.54,14.82-17.12c0.39-15.92,0.46-31.87,0.18-47.8c-0.18-10.26-5.23-15.51-15.92-17.29
		c-2.6-0.43-3.21-1.27-3.2-3.62c0.08-18.33,0.12-36.67,0.04-55c-0.01-2.64,1.01-3.31,3.46-3.3c22.7,0.11,45.39,0.19,68.09,0.12
		c5.16-0.02,3.33,3.61,3.33,5.92C450.79,254.27,450.76,292.47,450.76,330.66z M556.64,172.98c-1.02,2.41-2.25,4.7-3.41,7.04
		c-6.42,12.97-14.66,20.52-31.36,19.32c-25.99-1.88-52.22-0.5-78.55-0.5c23.67-65.35,23.46-119.02-0.9-175.13
		c9.18,0,17.99-0.03,26.81,0c21.17,0.09,42.36,0.35,63.53,0.18c4.89-0.04,8.14,1.59,11.22,5.15c14.72,17.02,21.29,37.31,23.45,59.18
		C570.28,117.25,568.17,145.74,556.64,172.98z M546.3,68.68c-22.92-0.08-45.83-0.19-68.76-0.29c-5.09-0.02-7.55,2.31-7.47,7.61
		c0.16,10.48,0,20.96,0.02,31.44c0.01,7.62,1.19,8.85,8.64,8.88c10.91,0.05,21.83,0.01,32.74,0.01v0.06
		c11.36,0,22.71-0.09,34.06,0.04c4.83,0.05,7.42-1.8,7.42-6.84c-0.02-11.35,0-22.71,0.08-34.06
		C553.06,70.94,550.94,68.71,546.3,68.68z M547.13,106.28c0,2.65-2.15,4.8-4.8,4.8H480.3c-2.65,0-4.8-2.15-4.8-4.8V77.79
		c0-2.65,2.15-4.8,4.8-4.8h62.04c2.65,0,4.8,2.15,4.8,4.8V106.28z M546.3,68.68c-22.92-0.08-45.83-0.19-68.76-0.29
		c-5.09-0.02-7.55,2.31-7.47,7.61c0.16,10.48,0,20.96,0.02,31.44c0.01,7.62,1.19,8.85,8.64,8.88c10.91,0.05,21.83,0.01,32.74,0.01
		v0.06c11.36,0,22.71-0.09,34.06,0.04c4.83,0.05,7.42-1.8,7.42-6.84c-0.02-11.35,0-22.71,0.08-34.06
		C553.06,70.94,550.94,68.71,546.3,68.68z M547.13,106.28c0,2.65-2.15,4.8-4.8,4.8H480.3c-2.65,0-4.8-2.15-4.8-4.8V77.79
		c0-2.65,2.15-4.8,4.8-4.8h62.04c2.65,0,4.8,2.15,4.8,4.8V106.28z M546.3,68.68c-22.92-0.08-45.83-0.19-68.76-0.29
		c-5.09-0.02-7.55,2.31-7.47,7.61c0.16,10.48,0,20.96,0.02,31.44c0.01,7.62,1.19,8.85,8.64,8.88c10.91,0.05,21.83,0.01,32.74,0.01
		v0.06c11.36,0,22.71-0.09,34.06,0.04c4.83,0.05,7.42-1.8,7.42-6.84c-0.02-11.35,0-22.71,0.08-34.06
		C553.06,70.94,550.94,68.71,546.3,68.68z M547.13,106.28c0,2.65-2.15,4.8-4.8,4.8H480.3c-2.65,0-4.8-2.15-4.8-4.8V77.79
		c0-2.65,2.15-4.8,4.8-4.8h62.04c2.65,0,4.8,2.15,4.8,4.8V106.28z M546.3,68.68c-22.92-0.08-45.83-0.19-68.76-0.29
		c-5.09-0.02-7.55,2.31-7.47,7.61c0.16,10.48,0,20.96,0.02,31.44c0.01,7.62,1.19,8.85,8.64,8.88c10.91,0.05,21.83,0.01,32.74,0.01
		v0.06c11.36,0,22.71-0.09,34.06,0.04c4.83,0.05,7.42-1.8,7.42-6.84c-0.02-11.35,0-22.71,0.08-34.06
		C553.06,70.94,550.94,68.71,546.3,68.68z M547.13,106.28c0,2.65-2.15,4.8-4.8,4.8H480.3c-2.65,0-4.8-2.15-4.8-4.8V77.79
		c0-2.65,2.15-4.8,4.8-4.8h62.04c2.65,0,4.8,2.15,4.8,4.8V106.28z M546.3,68.68c-22.92-0.08-45.83-0.19-68.76-0.29
		c-5.09-0.02-7.55,2.31-7.47,7.61c0.16,10.48,0,20.96,0.02,31.44c0.01,7.62,1.19,8.85,8.64,8.88c10.91,0.05,21.83,0.01,32.74,0.01
		v0.06c11.36,0,22.71-0.09,34.06,0.04c4.83,0.05,7.42-1.8,7.42-6.84c-0.02-11.35,0-22.71,0.08-34.06
		C553.06,70.94,550.94,68.71,546.3,68.68z M547.13,106.28c0,2.65-2.15,4.8-4.8,4.8H480.3c-2.65,0-4.8-2.15-4.8-4.8V77.79
		c0-2.65,2.15-4.8,4.8-4.8h62.04c2.65,0,4.8,2.15,4.8,4.8V106.28z M546.3,68.68c-22.92-0.08-45.83-0.19-68.76-0.29
		c-5.09-0.02-7.55,2.31-7.47,7.61c0.16,10.48,0,20.96,0.02,31.44c0.01,7.62,1.19,8.85,8.64,8.88c10.91,0.05,21.83,0.01,32.74,0.01
		v0.06c11.36,0,22.71-0.09,34.06,0.04c4.83,0.05,7.42-1.8,7.42-6.84c-0.02-11.35,0-22.71,0.08-34.06
		C553.06,70.94,550.94,68.71,546.3,68.68z M547.13,106.28c0,2.65-2.15,4.8-4.8,4.8H480.3c-2.65,0-4.8-2.15-4.8-4.8V77.79
		c0-2.65,2.15-4.8,4.8-4.8h62.04c2.65,0,4.8,2.15,4.8,4.8V106.28z M546.3,68.68c-22.92-0.08-45.83-0.19-68.76-0.29
		c-5.09-0.02-7.55,2.31-7.47,7.61c0.16,10.48,0,20.96,0.02,31.44c0.01,7.62,1.19,8.85,8.64,8.88c10.91,0.05,21.83,0.01,32.74,0.01
		v0.06c11.36,0,22.71-0.09,34.06,0.04c4.83,0.05,7.42-1.8,7.42-6.84c-0.02-11.35,0-22.71,0.08-34.06
		C553.06,70.94,550.94,68.71,546.3,68.68z M547.13,106.28c0,2.65-2.15,4.8-4.8,4.8H480.3c-2.65,0-4.8-2.15-4.8-4.8V77.79
		c0-2.65,2.15-4.8,4.8-4.8h62.04c2.65,0,4.8,2.15,4.8,4.8V106.28z M546.3,68.68c-22.92-0.08-45.83-0.19-68.76-0.29
		c-5.09-0.02-7.55,2.31-7.47,7.61c0.16,10.48,0,20.96,0.02,31.44c0.01,7.62,1.19,8.85,8.64,8.88c10.91,0.05,21.83,0.01,32.74,0.01
		v0.06c11.36,0,22.71-0.09,34.06,0.04c4.83,0.05,7.42-1.8,7.42-6.84c-0.02-11.35,0-22.71,0.08-34.06
		C553.06,70.94,550.94,68.71,546.3,68.68z M547.13,106.28c0,2.65-2.15,4.8-4.8,4.8H480.3c-2.65,0-4.8-2.15-4.8-4.8V77.79
		c0-2.65,2.15-4.8,4.8-4.8h62.04c2.65,0,4.8,2.15,4.8,4.8V106.28z M546.3,68.68c-22.92-0.08-45.83-0.19-68.76-0.29
		c-5.09-0.02-7.55,2.31-7.47,7.61c0.16,10.48,0,20.96,0.02,31.44c0.01,7.62,1.19,8.85,8.64,8.88c10.91,0.05,21.83,0.01,32.74,0.01
		v0.06c11.36,0,22.71-0.09,34.06,0.04c4.83,0.05,7.42-1.8,7.42-6.84c-0.02-11.35,0-22.71,0.08-34.06
		C553.06,70.94,550.94,68.71,546.3,68.68z M547.13,106.28c0,2.65-2.15,4.8-4.8,4.8H480.3c-2.65,0-4.8-2.15-4.8-4.8V77.79
		c0-2.65,2.15-4.8,4.8-4.8h62.04c2.65,0,4.8,2.15,4.8,4.8V106.28z M546.3,68.68c-22.92-0.08-45.83-0.19-68.76-0.29
		c-5.09-0.02-7.55,2.31-7.47,7.61c0.16,10.48,0,20.96,0.02,31.44c0.01,7.62,1.19,8.85,8.64,8.88c10.91,0.05,21.83,0.01,32.74,0.01
		v0.06c11.36,0,22.71-0.09,34.06,0.04c4.83,0.05,7.42-1.8,7.42-6.84c-0.02-11.35,0-22.71,0.08-34.06
		C553.06,70.94,550.94,68.71,546.3,68.68z M547.13,106.28c0,2.65-2.15,4.8-4.8,4.8H480.3c-2.65,0-4.8-2.15-4.8-4.8V77.79
		c0-2.65,2.15-4.8,4.8-4.8h62.04c2.65,0,4.8,2.15,4.8,4.8V106.28z M546.3,68.68c-22.92-0.08-45.83-0.19-68.76-0.29
		c-5.09-0.02-7.55,2.31-7.47,7.61c0.16,10.48,0,20.96,0.02,31.44c0.01,7.62,1.19,8.85,8.64,8.88c10.91,0.05,21.83,0.01,32.74,0.01
		v0.06c11.36,0,22.71-0.09,34.06,0.04c4.83,0.05,7.42-1.8,7.42-6.84c-0.02-11.35,0-22.71,0.08-34.06
		C553.06,70.94,550.94,68.71,546.3,68.68z M547.13,106.28c0,2.65-2.15,4.8-4.8,4.8H480.3c-2.65,0-4.8-2.15-4.8-4.8V77.79
		c0-2.65,2.15-4.8,4.8-4.8h62.04c2.65,0,4.8,2.15,4.8,4.8V106.28z"/>
	<path d="M106.45,120.06c-21.6,0-43.2,0.13-64.79-0.05c-12.13-0.1-22.01-7.14-25.78-17.72c-3.64-10.21-0.95-21.4,7.24-28.66
		c8.02-7.1,17.33-9.05,27.37-5.17c10.01,3.88,15.49,11.62,17.07,22.14c0.62,4.16-0.55,7.81-5.16,8.29c-4.22,0.44-5.79-2.55-6.36-6.6
		c-1.35-9.62-8.23-15.06-17.11-14.01c-8.05,0.96-13.81,8.43-12.95,16.8c0.84,8.21,7.36,13.36,17.19,13.38
		c39.71,0.1,79.41,0.14,119.12,0.21c3.93,0.01,7.85,0.06,11.78,0.07c4,0.01,7.1,1.52,7.02,5.9c-0.08,4.37-3.19,5.65-7.23,5.64
		c-22.47-0.06-44.94-0.03-67.41-0.03C106.45,120.19,106.45,120.13,106.45,120.06z"/>
	<path class="st0" d="M129.15,134.05c18.47,0,31.34,0.02,44.22-0.01c4.12-0.01,7.74,0.82,7.58,5.87c-0.16,5.06-3.97,5.49-7.97,5.47
		c-24.22-0.08-48.45-0.12-72.67-0.14c-2.82,0-5.63-0.16-8.39,0.88c-6.27,2.36-9.76,7.91-8.79,14.32c0.95,6.23,5.71,10.7,11.85,11.13
		c6.64,0.46,12.03-3.21,13.73-9.6c1.15-4.31,0.86-9.93,7.78-8.79c4.16,0.69,5.29,6.1,3.03,12.95c-3.87,11.76-15.64,18.9-27.69,16.8
		c-11.79-2.05-20.31-12.37-20.27-24.55c0.05-12.21,8.45-22.43,20.67-23.99C106.35,132.61,120.58,134.54,129.15,134.05z"/>
	<path class="st0" d="M140.75,95.24c-11.35,0-22.72,0.34-34.06-0.09C94.27,94.67,84.29,84.6,83.55,72.62
		c-0.82-13.29,7.27-23.77,20.34-26.35c11.56-2.28,23.26,4.66,27.41,16.15c0.99,2.73,1.34,5.53,1.24,8.35
		c-0.1,2.97-1.73,4.98-4.79,5.27c-3.22,0.31-5.5-1.05-6.21-4.41c-0.23-1.06-0.25-2.17-0.5-3.23c-1.75-7.45-7.77-11.91-14.73-10.97
		c-6.77,0.91-11.66,6.85-11.34,13.76c0.34,7.2,5.59,12.36,13.33,12.44c20.52,0.2,41.04,0.17,61.57,0.23
		c1.75,0.01,3.5-0.11,5.24,0.05c3.75,0.35,6.29,2.24,5.99,6.25c-0.27,3.6-2.68,5.22-6.29,5.21c-11.35-0.03-22.71-0.01-34.06-0.01
		C140.75,95.32,140.75,95.28,140.75,95.24z"/>
	<path class="st1" d="M546.3,68.68c-22.92-0.08-45.83-0.19-68.76-0.29c-5.09-0.02-7.55,2.31-7.47,7.61
		c0.16,10.48,0,20.96,0.02,31.44c0.01,7.62,1.19,8.85,8.64,8.88c10.91,0.05,21.83,0.01,32.74,0.01v0.06
		c11.36,0,22.71-0.09,34.06,0.04c4.83,0.05,7.42-1.8,7.42-6.84c-0.02-11.35,0-22.71,0.08-34.06
		C553.06,70.94,550.94,68.71,546.3,68.68z M547.13,106.28c0,2.65-2.15,4.8-4.8,4.8H480.3c-2.65,0-4.8-2.15-4.8-4.8V77.79
		c0-2.65,2.15-4.8,4.8-4.8h62.04c2.65,0,4.8,2.15,4.8,4.8V106.28z"/>
	<path class="st1" d="M256.13,75.28c-1.05-10.35-2.57-20.82-8.1-30.01c-4.79-7.96-11.97-7.9-16.92-0.04
		c-2.33,3.7-3.75,7.81-4.83,12.05c-4.64,18.1-5.21,36.59-5.3,55.12c-0.16,11.56,0.27,23.12,1.66,34.59
		c1.29,10.58,2.54,21.27,8.03,30.72c4.82,8.31,12.23,8.23,17.28,0.01c3.24-5.26,4.86-11.16,5.97-17.15
		C259.17,132.27,259.03,103.77,256.13,75.28z M239.42,168.27c-9.06-14.95-9.68-92.14,0.16-113.97
		C248.94,78.18,248.66,148.53,239.42,168.27z"/>
	<path d="M546.3,68.68c-22.92-0.08-45.83-0.19-68.76-0.29c-5.09-0.02-7.55,2.31-7.47,7.61c0.16,10.48,0,20.96,0.02,31.44
		c0.01,7.62,1.19,8.85,8.64,8.88c10.91,0.05,21.83,0.01,32.74,0.01v0.06c11.36,0,22.71-0.09,34.06,0.04
		c4.83,0.05,7.42-1.8,7.42-6.84c-0.02-11.35,0-22.71,0.08-34.06C553.06,70.94,550.94,68.71,546.3,68.68z M547.13,106.28
		c0,2.65-2.15,4.8-4.8,4.8H480.3c-2.65,0-4.8-2.15-4.8-4.8V77.79c0-2.65,2.15-4.8,4.8-4.8h62.04c2.65,0,4.8,2.15,4.8,4.8V106.28z"/>
	<path d="M256.13,75.28c-1.05-10.35-2.57-20.82-8.1-30.01c-4.79-7.96-11.97-7.9-16.92-0.04c-2.33,3.7-3.75,7.81-4.83,12.05
		c-4.64,18.1-5.21,36.59-5.3,55.12c-0.16,11.56,0.27,23.12,1.66,34.59c1.29,10.58,2.54,21.27,8.03,30.72
		c4.82,8.31,12.23,8.23,17.28,0.01c3.24-5.26,4.86-11.16,5.97-17.15C259.17,132.27,259.03,103.77,256.13,75.28z M239.42,168.27
		c-9.06-14.95-9.68-92.14,0.16-113.97C248.94,78.18,248.66,148.53,239.42,168.27z"/>
</g>
<path d="M515.1,100.25h-25.51c-3.61,0-6.53-2.92-6.53-6.53v-0.96c0-3.61,2.92-6.53,6.53-6.53h25.51c3.61,0,6.53,2.92,6.53,6.53v0.96
	C521.62,97.33,518.7,100.25,515.1,100.25z"/>
<path d="M534.69,100.25h-0.96c-3.61,0-6.53-2.92-6.53-6.53v-0.96c0-3.61,2.92-6.53,6.53-6.53h0.96c3.61,0,6.53,2.92,6.53,6.53v0.96
	C541.22,97.33,538.3,100.25,534.69,100.25z"/>
</svg>
