<svg id="Layer_1" data-name="Layer 1" xmlns="http://www.w3.org/2000/svg" viewBox="0 0 576.15 513.18"><path d="M524.92,198.9a42.3,42.3,0,0,1,0,4.78,7.61,7.61,0,0,1-7.12,6.87,7.44,7.44,0,0,1-8.13-6.09c-1.17-6.38-1.43-13-3.16-19.2-5.49-19.74-17.65-33.9-36.72-41.85-1.35-.56-2.77-1-4.09-1.57-4.44-2-6.36-5.94-4.94-10A7.73,7.73,0,0,1,471.09,127,86.24,86.24,0,0,1,487,134.24C510.87,149.11,523,171.09,524.92,198.9Z" transform="translate(-7.8 -46.5)"/><path d="M7.8,206.64c1.9-11.23,3-22.67,5.84-33.64,15.16-57.8,49-100,106.87-118.32C182.3,35.18,236.2,50.9,280.79,97.94c5.26,5.54,9.93,11.64,15.15,17.81,5-6,9.73-12,14.9-17.55,24.57-26.53,54-44.92,90.28-49.56,56.1-7.16,104,10,140.93,53.13s47.65,94.17,39.17,149.51c-5.38,35.08-21.46,65.67-42.43,93.79-27.52,36.93-61,68.12-95.59,98.19q-61.12,53.17-122.67,105.88c-15.74,13.54-32.65,14.18-47.77,1.07C219.34,503.89,165.8,457.7,113,410.65c-26.77-23.87-50.81-50.5-70.47-80.76-18.56-28.57-31-59.35-33.93-93.57a27.89,27.89,0,0,0-.83-3.79Zm288,318.94c1.48-1.16,2.67-2,3.78-3,45.54-39.36,91.36-78.41,136.51-118.22,31.54-27.82,61.53-57.26,84.91-92.64,22.25-33.67,33.24-70.31,28.14-110.86-5.51-43.76-24.25-80.1-63.13-103C449.74,76.62,411.52,74,373.05,92.47c-22.75,10.91-39.55,28.72-53.59,49.31-2,2.94-3.81,6-5.91,8.9-9.27,12.68-25.8,12.63-35.22.08-8.2-10.93-15.71-22.53-25-32.4C223.1,86.5,185.85,74.13,142.87,83.42c-46.34,10-76.78,39.39-92.2,83.58-17.92,51.35-9.38,99.66,20.21,144.7,18.36,27.93,40.84,52.41,65.54,74.64,40.84,36.74,82.51,72.57,123.87,108.74C272,505.3,283.83,515.33,295.76,525.58Z" transform="translate(-7.8 -46.5)"/></svg>