<?xml version="1.0" encoding="utf-8"?>
<!-- Generator: Adobe Illustrator 25.4.1, SVG Export Plug-In . SVG Version: 6.00 Build 0)  -->
<svg version="1.1" id="Layer_1" xmlns="http://www.w3.org/2000/svg" xmlns:xlink="http://www.w3.org/1999/xlink" x="0px" y="0px"
	 viewBox="0 0 600 600" style="enable-background:new 0 0 600 600;" xml:space="preserve">
<style type="text/css">
	.st0{fill:none;stroke:#000000;stroke-width:13;stroke-miterlimit:10;}
</style>
<path d="M50.4,589.57c-4.44-3.13-5.45-7.5-5.44-12.73c0.09-161.55,0.07-329.36,0.09-490.9c0-2.24,0.02-5.61,0.58-7.76
	c1.09-4.15,4.05-9.39,8.36-9.25c4.32,0.14,7.11,5.57,7.93,9.78c0.46,2.38,0.42,5.91,0.42,8.36c0.02,62.58,0.02,131.43,0.02,194.01
	c0,2.39,0,4.79,0,7.5c66.71,0,132.78,0,199.52,0c0-2.18,0-4.19,0-6.2c0-22.05-0.01-44.11,0.01-66.16
	c0.01-8.75,2.65-11.34,11.53-11.35c18.47-0.02,36.95-0.01,55.42-0.01c2.03,0,4.07,0,6.49,0c0-59.21,0-117.9,0-176.95
	c-90.75,0-181.33,0-272.57,0c-0.13,1.96-0.36,3.93-0.38,5.91c-0.08,8.48,0.08,52.46-0.19,60.93c-0.16,5.05-3.22,7.97-8.25,8.35
	c-4.44,0.33-8.56-3.03-8.67-7.9c-0.31-13.75-0.34-63.01,0.01-76.76c0.12-4.92,3.57-7.7,8.65-7.96c1.32-0.07,2.64-0.03,3.96-0.03
	c94.06,0,188.13,0,282.19,0c10.66,0,12.98,2.29,12.98,12.9c0.01,57.87,0.01,115.74,0.01,173.61c0,2.4,0,4.81,0,7.89
	c2.85,0,5.06,0,7.27,0c66.16,0,132.33,0,198.49,0c10.34,0,12.73,2.34,12.73,12.53c0.01,33.37,0.01,109.53,0,142.89
	c0,1.69,0.08,3.42-0.2,5.07c-0.79,4.68-3.65,7.42-8.38,7.71c-4.38,0.28-8.31-3.21-8.52-8.07c-0.36-8.47-0.19-59.76-0.21-68.24
	c-0.02-6.94,0-13.89,0-21.18c-91.87,0-183.19,0-274.88,0c0,98.8,0,197.46,0,296.51c91.44,0,182.74,0,274.88,0c0-2.55,0-4.92,0-7.3
	c0-69.56,0-139.12,0.01-208.67c0-2.44-0.05-4.93,0.37-7.32c0.74-4.23,3.53-6.66,7.78-6.87c4.53-0.23,7.57,2.1,8.66,6.51
	c0.49,1.98,0.49,4.1,0.49,6.16c0.02,74.08-0.01,148.16,0.09,222.24c0.01,5.23-1.02,9.6-5.44,12.73
	C394.25,589.57,222.32,589.57,50.4,589.57z M62.68,571.99c66.53,0,132.73,0,198.91,0c0-88.64,0-176.81,0-265.18
	c-66.47,0-132.66,0-198.91,0C62.68,395.47,62.68,483.62,62.68,571.99z M554.02,222.35c-56.87,0-113.27,0-169.71,0
	c0,12,0,23.6,0,35.37c56.7,0,113.1,0,169.71,0C554.02,245.85,554.02,234.38,554.02,222.35z M279.44,222.18c0,12.23,0,23.95,0,35.45
	c29.34,0,58.22,0,87.05,0c0-12.07,0-23.66,0-35.45C337.35,222.18,308.59,222.18,279.44,222.18z"/>
<path d="M422.76,348.32c17.44,0,32.87,5.57,46.25,16.74c5.68,4.74,5.82,9.47,0.65,14.89c-23.29,24.39-23.3,55.03-0.01,79.53
	c5.31,5.58,5.18,10.37-1.06,15.25c-23.69,18.5-49.78,22.35-76.72,9.12c-26.84-13.18-40.69-35.85-40.14-66.03
	C352.43,379.08,384.46,348.14,422.76,348.32z M451.3,465.69c-21.78-30.61-21.79-61.26-0.05-91.85
	c-19.92-14.31-50.88-9.98-68.42,9.45c-18.54,20.53-18.8,51.68-0.6,72.21C400.08,475.62,430.93,480.18,451.3,465.69z"/>
<path class="st0" d="M517.26,421.67c0,52.98-42.95,95.93-95.93,95.93s-95.93-42.95-95.93-95.93s42.95-95.93,95.93-95.93
	S517.26,368.69,517.26,421.67z"/>
<path d="M91.59,266.55L91.59,266.55c-4.78,0-8.66-3.88-8.66-8.66V153.41c0-4.78,3.88-8.66,8.66-8.66h0c4.78,0,8.66,3.88,8.66,8.66
	v104.47C100.25,262.67,96.37,266.55,91.59,266.55z"/>
<path d="M91.59,450.46L91.59,450.46c-4.78,0-8.66-3.88-8.66-8.66V337.33c0-4.78,3.88-8.66,8.66-8.66h0c4.78,0,8.66,3.88,8.66,8.66
	V441.8C100.25,446.58,96.37,450.46,91.59,450.46z"/>
</svg>
