<svg id="Layer_1" data-name="Layer 1" xmlns="http://www.w3.org/2000/svg" viewBox="0 0 2612.4 2624.53"><defs><style>.cls-1{fill:#ef051f;}</style></defs><path class="cls-1" d="M2250.06,1484.64A591.45,591.45,0,0,0,2019.14,1438c-245.74,0-456.57,149.41-546.63,362.34a591.44,591.44,0,0,0-46.62,230.92c0,327.64,265.6,593.25,593.25,593.25,245.74,0,456.58-149.41,546.64-362.33a591.44,591.44,0,0,0,46.62-230.92C2612.4,1785.54,2463,1574.7,2250.06,1484.64Zm62.33,839.88A413.47,413.47,0,0,1,2019.14,2446c-229,0-414.7-185.67-414.7-414.7s185.71-414.69,414.75-414.67,414.69,185.72,414.67,414.75a414.7,414.7,0,0,1-121.42,293.16Z"/><path d="M797.74,0H395.08C176.88,0,0,176.89,0,395.08V797.75c0,218.19,176.88,395.07,395.08,395.07H797.74c218.2,0,395.08-176.88,395.08-395.07V395.08C1192.82,176.89,1015.94,0,797.74,0Zm212.7,726.24c0,157-127.24,284.2-284.2,284.2H466.58c-157,0-284.2-127.24-284.2-284.2V466.58c0-157,127.24-284.2,284.2-284.2H726.24c157,0,284.2,127.24,284.2,284.2Z"/><path d="M797.74,1431.71H395.08C176.88,1431.71,0,1608.6,0,1826.79v402.67c0,218.19,176.88,395.07,395.08,395.07H797.74c218.2,0,395.08-176.88,395.08-395.07V1826.79C1192.82,1608.6,1015.94,1431.71,797.74,1431.71ZM1010.44,2158c0,157-127.24,284.2-284.2,284.2H466.58c-157,0-284.2-127.24-284.2-284.2V1898.29c0-157,127.24-284.2,284.2-284.2H726.24c157,0,284.2,127.24,284.2,284.2Z"/><path d="M2217.32,0H1814.66c-218.2,0-395.08,176.89-395.08,395.08V797.75c0,218.19,176.88,395.07,395.08,395.07h402.66c218.2,0,395.08-176.88,395.08-395.07V395.08C2612.4,176.89,2435.52,0,2217.32,0ZM2430,726.24c0,157-127.24,284.2-284.2,284.2H1886.16c-157,0-284.2-127.24-284.2-284.2V466.58c0-157,127.24-284.2,284.2-284.2h259.66c157,0,284.2,127.24,284.2,284.2Z"/></svg>