<svg id="Layer_1" data-name="Layer 1" xmlns="http://www.w3.org/2000/svg" viewBox="0 0 568.92 355.55"><defs><style>.cls-1{fill:#e2151a;}</style></defs><path class="cls-1" d="M8.7,401.72c3.44-6.71,9-9,16.37-8.7,9.81.37,19.63,0,29.44.13,7.17.09,12,3.86,13.05,9.68,1.07,6.15-1.77,10.56-8.65,13.61a5,5,0,0,0-2.49,1.81c-4.85,10.91,2.39,22.28,14.15,22.35,3.32,0,6.65,0,10.16,0,.66-2.14,1.25-4.06,1.86-6a59.49,59.49,0,0,1,56.47-41.5,58.84,58.84,0,0,1,56.3,41.53c1.45,4.74,3.34,6.09,8.29,6.07q90-.32,180-.08c3.7,0,5.66-.52,6.91-4.83a59.07,59.07,0,0,1,113.73.83c.36,1.24.81,2.44,1.29,3.88,12.48,0,24.88.2,37.26-.08,6-.14,10.74-4.47,10.82-10.65.24-18.31-.16-36.63-.29-54.95,0-4.17-1.86-5.5-6.18-5.47-28.51.21-57,.12-85.55.1-16.62,0-26.23-9.59-26.26-26.14q0-21.39,0-42.77c0-16.28,9.53-25.73,26-25.8,13.89,0,27.77,0,41.66,0h5.46c-1.87-13.56-11.47-23.48-24.25-23.68-27.58-.43-55.18-.1-82.76-.07-.33,0-.66.27-1.63.69v6.21q0,60.27,0,120.55c0,23.6-14.85,38.48-38.51,38.51q-67.77.07-135.55,0a27,27,0,0,1-7.13-.79,11.63,11.63,0,0,1,.23-22.31,31.85,31.85,0,0,1,7.69-.72q66.39-.06,132.77,0c13.43,0,16.9-3.41,16.9-16.64v-180c0-12.82-3.82-16.7-16.44-16.7H72.55c-12.82,0-16.35,3.59-16.35,16.61q0,66.39,0,132.77a36,36,0,0,1-.61,7.71A11.6,11.6,0,0,1,33,337a27.91,27.91,0,0,1-.63-6.59q-.06-68.06,0-136.11c0-23.31,15-38.17,38.26-38.17q145.56,0,291.1,0c23.27,0,38.07,14.88,38.12,38.24,0,10.71,0,21.43,0,32.86H406c25.18,0,50.37,0,75.55,0,21.65.05,37,10,46,29.68q22.11,48.43,44.12,96.92a64,64,0,0,1,5.92,27.43c-.12,15.37,0,30.74,0,46.11C577.47,449,562.5,464,540.85,464.2c-10.18.1-20.37.12-30.55,0-3.38-.06-5.12.6-6.21,4.37-7.5,25.93-30.33,43.13-56.75,43.17s-49.23-17-57-42.92c-1.05-3.5-2.38-4.64-6-4.64q-91.11.17-182.22,0c-3.34,0-5.07.55-6.2,4.36-7.86,26.34-30.64,43.31-57.31,43.17-26.33-.14-48.82-17.32-56.56-43.45-.89-3-2.1-4.17-5.29-4.11-5.35.08-10.84.32-16-.69-16.46-3.2-27.68-17.08-28.4-34.46-.15-3.68,0-7.38,0-11.79-8.91-.5-18.88,1.68-23.64-8.82ZM411.78,452.6a35.48,35.48,0,0,0,35.16,35.47A35.93,35.93,0,0,0,482.81,452a35.52,35.52,0,0,0-71,.58ZM139.14,417a35.53,35.53,0,0,0-35.69,35.49,35.52,35.52,0,0,0,71,.18A35.18,35.18,0,0,0,139.14,417Zm402-71.4a8.82,8.82,0,0,0-.23-2.1c-6.38-14.14-12.7-28.31-19.34-42.33-.67-1.41-3.32-2.64-5.08-2.67-12.76-.23-25.53-.13-38.29-.13H459.39v47.23Z" transform="translate(-8.7 -156.16)"/><path class="cls-1" d="M8.7,366.16c3.46-6.62,9-8.85,16.33-8.71,17.37.33,34.74.13,52.1.09,4.85,0,9.86.69,12,5.29a18.46,18.46,0,0,1,1.08,11.45c-1.26,4.87-5.85,7-10.84,7.08-7.38.17-14.78.07-22.17.08-10.71,0-21.44-.29-32.14.1-7.39.26-12.87-2.09-16.34-8.71Z" transform="translate(-8.7 -156.16)"/></svg>