<svg id="Layer_1" data-name="Layer 1" xmlns="http://www.w3.org/2000/svg" viewBox="0 0 515.68 515.82"><defs><style>.cls-1{fill:#475993;}</style></defs><path class="cls-1" d="M527.84,77.31V462.39a30.25,30.25,0,0,0-1.15,4.29,68.64,68.64,0,0,1-53.17,58.94c-3.72.82-7.46,1.53-11.19,2.29H348.45q.1-90.45.24-180.9a18.48,18.48,0,0,1,.52-3c1.74-.08,3.23-.2,4.72-.2,18.64,0,37.28,0,55.92,0,8.44,0,12.43-3.16,13.55-11.6,2.49-18.76,4.82-37.56,6.85-56.38,1.05-9.7-4.19-15-14.24-15.05q-31.25-.13-62.48,0c-3.89,0-5.33-1.13-5.27-5.14.26-16.79.06-33.59.43-50.38.4-18.22,9.05-28.16,27.23-30,12.49-1.23,25.14-.72,37.72-1,9.35-.18,14.34-4.54,14.48-13.65q.36-23.41,0-46.86c-.14-8.34-4.55-13.36-12.64-13.3-22.47.16-45.13-.67-67.36,1.9-48.71,5.62-77.23,41.11-80.41,87.93-1.45,21.41-.91,43-1,64.45,0,4.49-1.08,6.13-5.83,6-12.75-.31-25.52-.13-38.28-.08-6.05,0-11.6,1.49-13.92,7.76-1.07,2.89-1.07,6.27-1.07,9.43.05,17.47.24,34.93.4,52.4.08,9.1,4.46,13.41,13.71,13.45,12.43,0,24.86-.06,37.28,0,7.85.06,8-1.78,8,7.74q-.17,70.54-.29,141.09c0,11.76.09,23.51.13,35.27H77.34c-2.92-.58-5.86-1.14-8.78-1.75C34.69,519,12.24,491.59,12.21,456.73q-.14-187,0-374a70.49,70.49,0,0,1,1.49-14.49c7.15-33.74,34.43-55.88,69.05-56.11,19-.13,38,0,56.94,0q158,0,315.94,0c35.69,0,63.17,22.08,70.43,56.38C526.71,71.44,527.26,74.38,527.84,77.31Z" transform="translate(-12.16 -12.09)"/></svg>