<svg id="Layer_1" data-name="Layer 1" xmlns="http://www.w3.org/2000/svg" viewBox="0 0 314.92 553.74"><path d="M328.92,202.8c20.41,0,40.22.1,60,0,10.19-.07,19.3,2.66,24.55,11.71a37.24,37.24,0,0,1,5.06,17.18c.51,27.37.31,54.76.18,82.14-.08,17.13-11.34,28.41-28.52,28.58-18.38.17-36.76,0-55.14,0h-6.63v7.24q0,94.31-.11,188.59c0,5.11-.55,10.63-2.51,15.24-4.6,10.84-13.59,16-25.29,16q-43.25.15-86.49,0c-16.29-.06-27.11-10.43-28.14-26.6-.14-2.15-.09-4.32-.09-6.48q0-93.21,0-186.43v-7.59h-6.29c-14.41,0-28.83.07-43.25,0-18-.11-29-11.06-29.11-28.95q-.17-41.07,0-82.14c.08-17.43,10.9-28.27,28.33-28.46,14.59-.17,29.19,0,43.78,0h6.54c0-2.87-.08-5.16,0-7.44.83-22.11-.24-44.49,2.94-66.25,6.22-42.57,27.78-76,66.3-97,18.74-10.21,38.89-16,60.41-16,27-.09,54.07.4,81.08-.23,10.75-.26,21.92,8.82,24.3,19.23a43.87,43.87,0,0,1,1.07,9.63q.13,37,0,74c0,18.82-11,29.74-30,29.9-16,.14-32.07.19-48.11.32a28.88,28.88,0,0,0-4.83.39c-8,1.44-9.87,3.06-10.07,11.34C328.68,174.5,328.92,188.32,328.92,202.8Zm-189,107.12h6.57c17.48,0,35-.07,52.44,0,12,.07,19,7,19.44,19.08.06,1.62,0,3.24,0,4.87V536.77h77.47v-7.21q0-98.91,0-197.8c0-15.26,6.52-21.82,21.62-21.83q31.36,0,62.72,0H386V235.3h-6.13c-21.26,0-42.53.07-63.8,0-11.85-.05-19.71-6.35-19.91-17.5-.36-20.51-.67-41.12.79-61.55,1.61-22.7,14.16-35.76,36.67-38.42,15.67-1.85,31.62-1.22,47.45-1.67,2.65-.07,5.3,0,8.15,0v-68a7.08,7.08,0,0,0-1.74-.53c-23.25.07-46.52-.49-69.73.43-24,1-46,8.32-64.39,24.44-23.25,20.4-33,47.17-34.44,77.16-1,21-.42,42.14-.51,63.22-.07,15.77-6.65,22.47-22.24,22.48H139.9Z" transform="translate(-107.08 -15.85)"/></svg>