<svg id="Layer_1" data-name="Layer 1" xmlns="http://www.w3.org/2000/svg" viewBox="0 0 2612.4 2624.53"><defs><style>.cls-1{fill:#ef051f;}</style></defs><path class="cls-1" d="M2258.34,1493.63A591.37,591.37,0,0,0,2027.42,1447c-245.74,0-456.57,149.41-546.63,362.34a591.37,591.37,0,0,0-46.62,230.92c0,327.64,265.6,593.25,593.25,593.25,245.74,0,456.58-149.41,546.64-362.33a591.41,591.41,0,0,0,46.62-230.92C2620.68,1794.53,2471.27,1583.69,2258.34,1493.63Zm62.33,839.88A413.46,413.46,0,0,1,2027.42,2455c-229,0-414.7-185.67-414.7-414.7a414.71,414.71,0,1,1,708,293.24Z" transform="translate(-8.28 -8.99)"/><path d="M985.68,9H217.39C101.9,9,8.28,102.61,8.28,218.1V986.39c0,115.49,93.62,209.12,209.11,209.12H985.68c115.49,0,209.11-93.63,209.11-209.12V218.1C1194.79,102.61,1101.17,9,985.68,9ZM1017,940.75a77,77,0,0,1-77,77H263a77,77,0,0,1-77-77V261.68a77,77,0,0,1,77-77H940a77,77,0,0,1,77,77Z" transform="translate(-8.28 -8.99)"/><path d="M985.68,1447H217.39C101.9,1447,8.28,1540.62,8.28,1656.11V2424.4c0,115.49,93.62,209.12,209.11,209.12H985.68c115.49,0,209.11-93.63,209.11-209.12V1656.11C1194.79,1540.62,1101.17,1447,985.68,1447ZM1017,2378.76a77,77,0,0,1-77,77H263a77,77,0,0,1-77-77V1699.69a77,77,0,0,1,77-77H940a77,77,0,0,1,77,77Z" transform="translate(-8.28 -8.99)"/><path d="M2411.57,9H1643.28c-115.49,0-209.11,93.62-209.11,209.11V986.39c0,115.49,93.62,209.12,209.11,209.12h768.29c115.49,0,209.11-93.63,209.11-209.12V218.1C2620.68,102.61,2527.06,9,2411.57,9Zm31.36,931.76a77,77,0,0,1-77,77h-677a77,77,0,0,1-77-77V261.68a77,77,0,0,1,77-77h677a77,77,0,0,1,77,77Z" transform="translate(-8.28 -8.99)"/></svg>