<svg id="Layer_1" data-name="Layer 1" xmlns="http://www.w3.org/2000/svg" xmlns:xlink="http://www.w3.org/1999/xlink" viewBox="0 0 513.04 513.3"><defs><style>.cls-1{fill:url(#linear-gradient);}.cls-2{fill:#fff;}.cls-3{fill:url(#linear-gradient-2);}.cls-4{fill:url(#linear-gradient-3);}</style><linearGradient id="linear-gradient" x1="21.47" y1="489.77" x2="532.79" y2="37.64" gradientUnits="userSpaceOnUse"><stop offset="0" stop-color="#fff"/><stop offset="0.02" stop-color="#fad53f"/><stop offset="0.18" stop-color="#f7963b"/><stop offset="0.3" stop-color="#f46135"/><stop offset="0.56" stop-color="#f24936"/><stop offset="0.73" stop-color="#df4158"/><stop offset="0.79" stop-color="#d23c71"/><stop offset="0.89" stop-color="#c33591"/><stop offset="0.97" stop-color="#b932a4"/></linearGradient><linearGradient id="linear-gradient-2" x1="21.3" y1="485.58" x2="527.75" y2="45.37" xlink:href="#linear-gradient"/><linearGradient id="linear-gradient-3" x1="12.64" y1="501.24" x2="589.6" y2="-17.08" xlink:href="#linear-gradient"/></defs><path class="cls-1" d="M526.49,140.72c0-22.12-2.74-43.65-12.36-63.79C496.5,40,466.29,20.82,426.47,15.32l-.11,0a258.62,258.62,0,0,0-34.19-2H151.29A232.72,232.72,0,0,0,113,16.26l-.22,0c-10.67,1.84-21.35,3.51-31.35,7.91-20,7-34.7,20.66-46.93,37.34-13.16,17.94-17.76,38.8-20,60.42-.08.78.05,1.63,0,2.44-.44,7.37-1,14.73-1,22.11V390.29a203.37,203.37,0,0,0,4,41.56c0,.06,0,.13,0,.19,3.37,15.76,7.88,31.07,16.47,44.83C51,504.17,76.09,519,107.74,522.47c29.55,3.25,59.29,3.8,89,3.95q77.38.44,154.76.07c25.21-.12,50.4-1.23,75.54-3q38.19-2.67,65.44-29.55c17.16-16.64,26.44-37.34,31.22-60.39,2.32-11.17,2.82-22.49,2.82-33.86Q526.48,270.21,526.49,140.72ZM459.37,323c-.21,17.45-.9,34.92-4.49,52.18-3.89,18.69-11.56,35.37-23.94,49.89-19.94,21.11-45.59,29.63-73.48,32.2-50.62,4.64-101.41,1.82-152.12,1.91a182.92,182.92,0,0,1-49.48-6.4C121.16,443.14,98,421,87.71,386.09c-6.16-21-6.82-42.67-7-64.31-.32-30.54.3-61.11-.27-91.65a373,373,0,0,1,2.76-55.59c2.77-21.3,10.44-41.15,24.55-58.16,7.51-9.06,17-15.08,27-20.71l.06,0a61.63,61.63,0,0,1,11.23-5A192.81,192.81,0,0,1,193,81.55c19-1.31,38-1.14,57.05-1.11,26.71,0,53.44-.14,80.15.13,19.23.19,38.46,1.44,56.87,7.47,38.87,12.75,61.07,40.1,68.52,79.91,3.13,16.8,3.93,33.82,4,50.86C459.6,253.54,459.8,288.28,459.37,323Z" transform="translate(-13.48 -13.35)"/><path class="cls-2" d="M459.55,218.81c0-17-.83-34.06-4-50.86-7.45-39.81-29.65-67.16-68.52-79.91-18.41-6-37.64-7.28-56.87-7.47-26.71-.27-53.44-.1-80.15-.13-19,0-38.05-.2-57.05,1.11a192.81,192.81,0,0,0-47.06,9.08,61.63,61.63,0,0,0-11.23,5l-.06,0c-10,5.63-19.44,11.65-26.95,20.71-14.11,17-21.78,36.86-24.55,58.16a373,373,0,0,0-2.76,55.59c.57,30.54,0,61.11.27,91.65.23,21.64.89,43.31,7,64.31C98,421,121.16,443.14,155.86,452.8a182.92,182.92,0,0,0,49.48,6.4c50.71-.09,101.5,2.73,152.12-1.91,27.89-2.57,53.54-11.09,73.48-32.2,12.38-14.52,20.05-31.2,23.94-49.89,3.59-17.26,4.28-34.73,4.49-52.18C459.8,288.28,459.6,253.54,459.55,218.81ZM423.66,353c-.61,10.39-2.14,20.8-6.83,30.38-7.28,19.17-21.75,30.21-40.82,35.93-15.65,4.7-31.81,6-48,6.05-39.92.12-79.85.44-119.76-1.08-14.84-.57-29.63-1.88-44.12-5.3-26-6.13-39.65-23.45-44.31-49.06-3.43-18.81-4.32-37.82-4.63-56.84-.61-38.08-1.23-76.17,1.57-114.2,1.23-16.67,3.17-33.27,10-48.81,7.18-16.39,19.83-26,37.16-29.64,9.94-3.22,20.3-4.19,30.59-4.62,48.08-2,96.19-1.65,144.29-.94a146.55,146.55,0,0,1,38.77,5.8c19.88,5.77,32.25,19.3,38.95,38.5,5.34,15.26,7.69,31.13,8.74,47.12C428.4,255.22,426.54,304.12,423.66,353Z" transform="translate(-13.48 -13.35)"/><path class="cls-3" d="M425.2,206.29c-1.05-16-3.4-31.86-8.74-47.12-6.7-19.2-19.07-32.73-38.95-38.5a146.55,146.55,0,0,0-38.77-5.8c-48.1-.71-96.21-1.06-144.29.94-10.29.43-20.65,1.4-30.59,4.62-17.33,3.67-30,13.25-37.16,29.64-6.8,15.54-8.74,32.14-10,48.81-2.8,38-2.18,76.12-1.57,114.2.31,19,1.2,38,4.63,56.84,4.66,25.61,18.3,42.93,44.31,49.06,14.49,3.42,29.28,4.73,44.12,5.3,39.91,1.52,79.84,1.2,119.76,1.08,16.22-.05,32.38-1.35,48-6.05,19.07-5.72,33.54-16.76,40.82-35.93,4.69-9.58,6.22-20,6.83-30.38C426.54,304.12,428.4,255.22,425.2,206.29Zm-66,102.63a61.45,61.45,0,0,1-5.35,10.19c-2.89,4.43-5.51,9.06-9.07,13.05-27.14,30.38-60.63,41.43-100.2,31.6C213.2,356,192.42,335,179.37,306.29c-4-8.8-5.66-18.79-6.37-28.68-1.67-23.42,4.58-44.56,17.71-64,6.63-9.78,15.35-17.21,24.64-24.08a61.94,61.94,0,0,1,8.36-5.24,102.13,102.13,0,0,1,50.76-11.59c44,1.35,83.28,35.67,91,79A100.48,100.48,0,0,1,359.21,308.92Zm12.42-117.36c-11.82.17-23.21-9.08-23.17-21.69a22.88,22.88,0,0,1,22.07-23.78c12.34-.48,23.21,10,23.4,22.46A23,23,0,0,1,371.63,191.56Z" transform="translate(-13.48 -13.35)"/><path class="cls-2" d="M365.48,251.73c-7.73-43.31-47-77.63-91-79a102.13,102.13,0,0,0-50.76,11.59,61.94,61.94,0,0,0-8.36,5.24c-9.29,6.87-18,14.3-24.64,24.08-13.13,19.39-19.38,40.53-17.71,64,.71,9.89,2.37,19.88,6.37,28.68,13,28.7,33.83,49.68,65.22,57.47,39.57,9.83,73.06-1.22,100.2-31.6,3.56-4,6.18-8.62,9.07-13.05a61.45,61.45,0,0,0,5.35-10.19A100.48,100.48,0,0,0,365.48,251.73Zm-40.84,50.43c-14.29,28.89-50.36,36.34-76.52,27.72-28.48-9.39-45.58-40.2-39.77-71.81,3.49-19,12.78-34.11,30-43.72a62.17,62.17,0,0,1,6.38-2.74A70.58,70.58,0,0,1,278,207.1c.48.05,1,.1,1.44.17s1,.13,1.55.21l1.38.23c.44.07.88.15,1.3.24l1.11.22,1,.22c.3.06.6.14.91.22q.71.16,1.41.36c1.53.4,3,.86,4.54,1.39l1,.37a60.09,60.09,0,0,1,5.61,2.38c.46.23.92.45,1.38.7s1.09.57,1.63.87c.36.2.72.4,1.07.62s.82.48,1.23.73.95.58,1.41.9.86.56,1.27.87.66.46,1,.69c.55.39,1.07.79,1.59,1.2s.75.6,1.12.9c1.22,1,2.39,2,3.52,3.17.38.36.75.74,1.12,1.12,1.09,1.12,2.14,2.29,3.14,3.53.59.71,1.16,1.45,1.71,2.2l.89,1.24c.29.42.58.84.85,1.27s.55.83.81,1.26.56.91.83,1.37c.46.79.9,1.6,1.33,2.41.08.17.17.33.25.5.23.42.43.85.63,1.29s.46,1,.68,1.46c.44,1,.86,2,1.25,3q1.11,2.88,2,6c.1.37.2.75.29,1.13s.2.77.29,1.15.21.91.31,1.37l.06.23c.11.55.22,1.1.32,1.65s.23,1.19.32,1.78.19,1.19.27,1.81.16,1.15.23,1.73.1.93.14,1.41.07.68.1,1,.06.61.08.91,0,.69.07,1c.05.76.08,1.51.1,2.28,0,.44,0,.89,0,1.34,0,.77,0,1.55,0,2.34A60.43,60.43,0,0,1,324.64,302.16Z" transform="translate(-13.48 -13.35)"/><path class="cls-2" d="M393.93,168.55a23,23,0,0,1-22.3,23c-11.82.17-23.21-9.08-23.17-21.69a22.88,22.88,0,0,1,22.07-23.78C382.87,145.61,393.74,156.05,393.93,168.55Z" transform="translate(-13.48 -13.35)"/><path class="cls-4" d="M332.58,271.59a60.43,60.43,0,0,1-7.94,30.57c-14.29,28.89-50.36,36.34-76.52,27.72-28.48-9.39-45.58-40.2-39.77-71.81,3.49-19,12.78-34.11,30-43.72a62.17,62.17,0,0,1,6.38-2.74A70.58,70.58,0,0,1,278,207.1c.48.05,1,.1,1.44.17s1,.13,1.55.21l1.38.23c.44.07.88.15,1.3.24l1.11.22,1,.22c.3.06.6.14.91.22q.71.16,1.41.36c1.53.4,3,.86,4.54,1.39l1,.37a60.09,60.09,0,0,1,5.61,2.38c.46.23.92.45,1.38.7s1.09.57,1.63.87c.36.2.72.4,1.07.62s.82.48,1.23.73.95.58,1.41.9.86.57,1.27.87.66.46,1,.69c.55.39,1.07.79,1.59,1.2s.75.6,1.12.9c1.22,1,2.39,2,3.52,3.17.38.36.75.74,1.12,1.12,1.09,1.12,2.14,2.29,3.14,3.53.59.71,1.16,1.45,1.71,2.2l.89,1.24c.29.42.58.84.85,1.27s.55.83.81,1.26.56.91.83,1.37c.46.79.9,1.6,1.33,2.41.08.17.17.33.25.5q.33.63.63,1.29c.24.48.46,1,.68,1.46.44,1,.86,2,1.25,3q1.11,2.88,2,6c.1.37.2.75.29,1.13s.2.77.29,1.15.21.91.31,1.37l.06.23c.11.55.22,1.1.32,1.65s.23,1.19.32,1.78.19,1.19.27,1.81.16,1.15.23,1.73.1.93.14,1.41.07.68.1,1,.06.61.08.91,0,.69.07,1c.05.76.08,1.51.1,2.28,0,.44,0,.89,0,1.34C332.58,270,332.59,270.8,332.58,271.59Z" transform="translate(-13.48 -13.35)"/></svg>