<svg id="Layer_1" data-name="Layer 1" xmlns="http://www.w3.org/2000/svg" viewBox="0 0 544.26 544.01"><path d="M166.17,27h265.6c1.71.32,3.42.75,5.15.94,14.87,1.63,29.43,4.93,42.91,11.3,58.43,27.63,89.93,73.89,90.83,138.58,1.13,80.73.34,161.48.24,242.22,0,31.29-8.45,60.28-26.64,85.78-30.82,43.24-73.26,64.92-126.35,65.06q-119,.32-238-.06c-10.21,0-20.66-.57-30.59-2.76C87.76,554.46,48.36,517,31.46,456.21c-2.21-7.95-3-16.29-4.46-24.44V166.17c.88-5.56,1.47-11.18,2.7-16.66C43.55,87.87,80.86,48.36,141.77,31.45,149.7,29.25,158,28.45,166.17,27ZM522.72,299.51q0-59.22,0-118.43c0-12.44-1.26-24.72-5.47-36.54-15.34-43.07-52.43-69.19-99.16-69.28-79.31-.15-158.62-.26-237.92.2a114.84,114.84,0,0,0-35.4,5.48c-43.5,14.65-69.44,52.32-69.5,99.32-.1,79.13-.25,158.26.21,237.39a115.11,115.11,0,0,0,5.43,35.41c14.48,43.29,52.06,69.49,98.71,69.6q119.49.3,239,0c35.45-.06,64.1-14.24,85.14-42.93,13.55-18.49,19-39.59,19-62.33Q522.64,358.46,522.72,299.51Z" transform="translate(-27 -27)"/><path d="M298.9,439.15c-77.07-.09-140.36-63.51-140.11-140.38.25-77.15,63.73-140.39,140.51-140,77.05.42,139.76,63.24,139.85,140.11S375.85,439.23,298.9,439.15Zm91.88-140c.29-50.46-40.8-91.73-91.61-92-50.47-.28-91.73,40.81-92,91.62-.28,50.46,40.8,91.73,91.62,92C349.22,391.07,390.5,350,390.78,299.17Z" transform="translate(-27 -27)"/><path d="M445,118.05c19.49,0,35.7,16.18,35.44,35.46a35.62,35.62,0,0,1-35.35,35.05c-19.44,0-35.68-16.24-35.45-35.5A35.53,35.53,0,0,1,445,118.05Z" transform="translate(-27 -27)"/></svg>