<svg id="Layer_1" data-name="Layer 1" xmlns="http://www.w3.org/2000/svg" viewBox="0 0 1531.48 570.06"><defs><style>.cls-1,.cls-2,.cls-3,.cls-4,.cls-5{fill:none;}.cls-1{stroke:#231f20;stroke-width:7px;}.cls-1,.cls-3,.cls-4{stroke-miterlimit:10;}.cls-2,.cls-3,.cls-4,.cls-5{stroke:#eb2329;}.cls-2,.cls-5{stroke-linecap:round;stroke-linejoin:round;}.cls-2{stroke-width:26px;}.cls-3{stroke-width:12px;}.cls-4{stroke-width:9px;}.cls-5{stroke-width:22px;}.cls-6{fill:#eb2329;}</style></defs><path class="cls-1" d="M-253.59,651.25" transform="translate(-62.95 -2.04)"/><path d="M1594.43,337.67a9.34,9.34,0,0,1-1.26,2.26c-.26.27-1.12,0-2.32-.14l2.79-2.4Z" transform="translate(-62.95 -2.04)"/><path class="cls-2" d="M388.36,559.1H125.55A49.6,49.6,0,0,1,76,509.5h0V127.18a49.57,49.57,0,0,1,49.59-49.55h46" transform="translate(-62.95 -2.04)"/><path class="cls-2" d="M387.66,77.63h40.7A49.56,49.56,0,0,1,478,127.16V301.29" transform="translate(-62.95 -2.04)"/><path class="cls-3" d="M356.13,48.46H333.88a7,7,0,0,1-6.72-4.8,51.93,51.93,0,0,0-98.73.42,6.43,6.43,0,0,1-6.14,4.38H203A23.54,23.54,0,0,0,179.5,72v29.35a12.3,12.3,0,0,0,12.3,12.31H371.47a8.19,8.19,0,0,0,8.19-8.19h0V72a23.54,23.54,0,0,0-23.52-23.54Z" transform="translate(-62.95 -2.04)"/><path class="cls-4" d="M297.88,77.07a26.16,26.16,0,1,1,0-33.21A26.21,26.21,0,0,1,297.88,77.07Z" transform="translate(-62.95 -2.04)"/><path class="cls-5" d="M567.69,443.52A105.66,105.66,0,1,1,462,337.86h0c2.58,0,5.17.09,7.71.32A105.61,105.61,0,0,1,567.69,443.52Z" transform="translate(-62.95 -2.04)"/><polyline class="cls-5" points="360.43 442.49 387.46 472.57 446.04 412.3"/><line class="cls-5" x1="130.44" y1="215.22" x2="326.68" y2="215.22"/><line class="cls-5" x1="130.44" y1="326.18" x2="236.11" y2="326.18"/><line class="cls-5" x1="130.44" y1="439.39" x2="236.11" y2="439.39"/><path class="cls-6" d="M146.65,229.75a12.9,12.9,0,0,0,8.84-3.66,12.5,12.5,0,1,0-17.68,0,13,13,0,0,0,8.84,3.66Z" transform="translate(-62.95 -2.04)"/><path class="cls-6" d="M146.65,340.71a12.9,12.9,0,0,0,8.84-3.66,12.49,12.49,0,0,0,0-17.66h0a12.49,12.49,0,0,0-17.65,0l0,0a12.48,12.48,0,0,0,0,17.66h0a13,13,0,0,0,8.84,3.66Z" transform="translate(-62.95 -2.04)"/><path class="cls-6" d="M146.65,454a12.9,12.9,0,0,0,8.84-3.66,12.5,12.5,0,1,0-17.68,0A13,13,0,0,0,146.65,454Z" transform="translate(-62.95 -2.04)"/></svg>