<svg id="Layer_1" data-name="Layer 1" xmlns="http://www.w3.org/2000/svg" viewBox="0 0 1574.72 450.82"><defs><style>.cls-1,.cls-2{fill:none;}.cls-1{stroke:#e9272c;stroke-linecap:round;stroke-linejoin:round;stroke-width:20px;}.cls-2{stroke:#231f20;stroke-miterlimit:10;stroke-width:7px;}.cls-3{fill:#e9272c;}</style></defs><path d="M1594.43,337.67a9.34,9.34,0,0,1-1.26,2.26c-.26.27-1.12,0-2.32-.14l2.79-2.4Z" transform="translate(-19.7 -72.26)"/><path class="cls-1" d="M67.71,392.85,31.6,247.74a63.77,63.77,0,0,1,46.47-77.26L425,84.16a63.75,63.75,0,0,1,77.26,46.47h0l10.63,42.72" transform="translate(-19.7 -72.26)"/><path class="cls-2" d="M512.87,173.35" transform="translate(-19.7 -72.26)"/><path class="cls-3" d="M512.49,198.24H139a52.67,52.67,0,0,0-52.67,52.67h0v218.7a53.47,53.47,0,0,0,53.45,53.47H513.49a57.83,57.83,0,0,0,57.82-57.84V257A58.82,58.82,0,0,0,512.49,198.24ZM104.66,254.05c0-17.58,14.38-34,32-34l377.35,2a39.13,39.13,0,0,1,39,39v15.2H104.66ZM553,461.24a42,42,0,0,1-42,42H146.65a42,42,0,0,1-42-42V310.94H553Z" transform="translate(-19.7 -72.26)"/><rect class="cls-3" x="101.77" y="371.79" width="43.99" height="24.37" rx="11.59"/><rect class="cls-3" x="151.7" y="371.79" width="43.99" height="24.37" rx="11.59"/></svg>