<svg id="Layer_1" data-name="Layer 1" xmlns="http://www.w3.org/2000/svg" viewBox="0 0 1581.33 376.41"><defs><style>.cls-1{fill:none;stroke:#231f20;stroke-miterlimit:10;stroke-width:7px;}.cls-2{fill:#eb2329;}</style></defs><path class="cls-1" d="M-253.59,651.25" transform="translate(-13.1 -117.73)"/><path d="M1594.43,337.67a9.34,9.34,0,0,1-1.26,2.26c-.26.27-1.12,0-2.32-.14l2.79-2.4Z" transform="translate(-13.1 -117.73)"/><path class="cls-2" d="M590.39,356a68,68,0,0,0-6.28-29q-23.34-51.3-46.69-102.61c-9.51-20.83-25.78-31.37-48.7-31.42-26.65-.06-53.31,0-80,0h-4.3a2.28,2.28,0,0,1-2.29-2.29h0V158.22c-.05-24.74-15.71-40.48-40.35-40.49H53.61c-24.65,0-40.47,15.74-40.5,40.42,0,46.55,0,190.15,0,242.52v5.86a41.69,41.69,0,0,0,.49,5C16.1,427.53,27.34,440,43.16,443c5.5,1.07,11.32.82,17,.73,3.37-.05,4.65,1.16,5.59,4.36,8.2,27.66,32,45.84,59.88,46,28.23.15,52.35-17.81,60.66-45.7,1.2-4,3-4.62,6.57-4.62q96.45.12,192.9,0c3.83,0,5.25,1.21,6.35,4.92,8.19,27.42,32.37,45.48,60.31,45.43s52.14-18.25,60.07-45.71c1.16-4,3-4.67,6.58-4.62,10.78.18,21.56.15,32.34,0,22.92-.24,38.77-16.11,38.88-38.93C590.41,388.58,590.25,372.3,590.39,356Zm-64.65-87.69c1.74,0,4.4,1.1,5,2.45,7.1,15,13.89,30.19,20.72,45.33a7.47,7.47,0,0,1,.15,2H465.18v-49.9h27.08c11.16,0,22.32-.1,33.48.12ZM126,469.05c-20.55,0-37.77-17.41-37.56-38a37.6,37.6,0,1,1,37.56,38Zm326,0a37.62,37.62,0,1,1,.44-75.24c20.94.07,37.91,17.09,37.62,37.74-.31,20.81-17.45,37.68-38.08,37.5ZM565,407.37c-.09,6.54-5.11,11.12-11.46,11.27-12.57.29-25.14.1-37.81.09a2.27,2.27,0,0,1-2.16-1.55c-.32-.89-.6-1.71-.84-2.56-7.82-27.25-31.8-45.68-59.93-46.05a62.39,62.39,0,0,0-60.47,45.17c-1.33,4.57-3.39,5.12-7.31,5.12q-95.28-.14-190.55.08c-5.24,0-7.24-1.4-8.78-6.42a62.3,62.3,0,0,0-59.6-44,63,63,0,0,0-59.78,43.93v.06a9,9,0,0,1-8.55,6.27H53.66a18.18,18.18,0,0,1-4.35-.53A14.67,14.67,0,0,1,38.42,403.9V160.25c0-13.78,3.74-17.58,17.31-17.58h304c13.36,0,17.4,4.11,17.4,17.67V350.89c0,14-3.66,17.61-17.89,17.61H218.69a33.78,33.78,0,0,0-8.15.76,12.32,12.32,0,0,0-.23,23.63,29.41,29.41,0,0,0,7.54.83q71.76.06,143.5,0c25,0,40.76-15.78,40.77-40.76V220.22a2.24,2.24,0,0,1,1.38-2,.92.92,0,0,1,.37-.09c29.21,0,58.42-.38,87.62.07,12.63.2,22.33,9.37,25.17,22.27a2.31,2.31,0,0,1-1.75,2.75,2.72,2.72,0,0,1-.49.05H467.31c-17.38.07-27.43,10.08-27.47,27.31v45.28c0,17.52,10.21,27.66,27.81,27.67,30.19,0,60.38.11,90.57-.1,4.56,0,6.51,1.37,6.54,5.8.08,19.35.51,38.75.26,58.13Z" transform="translate(-13.1 -117.73)"/></svg>