<svg id="Layer_1" data-name="Layer 1" xmlns="http://www.w3.org/2000/svg" viewBox="0 0 474.01 512.2"><defs><style>.cls-1{fill:#010101;stroke:#010101;stroke-miterlimit:10;stroke-width:8px;}</style></defs><path class="cls-1" d="M530.65,496.36c-2.27-86.44-70.91-163.76-157-171.94a846.81,846.81,0,0,0-140.27-1.66c-90.89,6.73-156.62,72.15-167.8,161.7-5.38,42.75,14.29,65.21,57.35,65.21H296c60.56,0,121.12.21,181.67-.1C511.81,549.47,531.59,529.18,530.65,496.36Zm-56.21,26.71c-58.9.1-117.7,0-176.6,0H121.24c-24.43,0-30.54-6.42-29.71-30.33,2.69-73.4,64.7-139.13,140.58-143.58,48.86-2.8,98.55-2.9,147,3,67.5,8.28,121.84,73,124.54,140C504.77,516,498.36,523.07,474.44,523.07Z" transform="translate(-60.68 -41.54)"/><path class="cls-1" d="M423.62,172.14C423.2,240.88,366,297.81,297.53,297.61c-68.84-.31-125.77-57.25-125.87-125.78-.11-69.35,57.86-127,127-126.29C367.41,46.16,424,103.51,423.62,172.14Zm-225.46-.72c-.11,54.55,44.41,99.38,99,99.69,54.24.31,99.79-44.52,100.2-98.66.42-55.17-44.82-100.51-100-100.41A99.63,99.63,0,0,0,198.16,171.42Z" transform="translate(-60.68 -41.54)"/></svg>