<svg id="Layer_1" data-name="Layer 1" xmlns="http://www.w3.org/2000/svg" viewBox="0 0 583.03 479.05"><defs><style>.cls-1{fill:#010101;}</style></defs><path class="cls-1" d="M585.46,174.72c-6.5-22.5-25.5-35.8-50.7-35.8H116.06c-3.4-12.7-6.5-24.1-9-33A38.31,38.31,0,0,0,77.86,79c-18.5-3.8-37.7-2.4-56.6-2.4-10.2,0-17.2,6.9-17.2,16.5,0,9.8,7,16.6,17.5,16.7,12.3.1,24.6,0,36.9,0,11.2,0,16.6,4.1,19.5,15.1,22.8,86.3,54,206.3,76.8,292.6,6.8,25.9,25,39.7,51.9,39.7h285.1a16.05,16.05,0,0,0,15.3-14.7c.8-8.2-4.1-15.6-11.9-17.6a34.53,34.53,0,0,0-8.5-.8h-278c-2,0-4,.1-6-.1-6.8-.5-11.9-3.9-14.3-10.3a151.5,151.5,0,0,1-4.4-15.2,3.2,3.2,0,0,1,3-4h307.7c25.9,0,44.6-14.3,51.3-39.4q19.95-75.3,39.6-150.8C587.46,195.92,587.76,182.62,585.46,174.72Zm-32.9,24.1q-19,72.45-38.1,145a23,23,0,0,1-22.2,17.1H174.56c-.5-1.5-1-2.6-1.3-3.8-8.1-30.9-16.3-61.8-24.4-92.6-6.2-23.5-15.3-59.2-24-92.4H532C547.06,172.12,556.36,184.12,552.56,198.82Z" transform="translate(-4.06 -76.37)"/><path class="cls-1" d="M439,468.52a43.45,43.45,0,1,0,43.5,43.4A43.42,43.42,0,0,0,439,468.52Zm0,54.2a10.8,10.8,0,1,1,10.8-10.8A10.76,10.76,0,0,1,439,522.72Z" transform="translate(-4.06 -76.37)"/><path class="cls-1" d="M239,468.52a43.45,43.45,0,1,0,43.5,43.4A43.42,43.42,0,0,0,239,468.52Zm0,54.2a10.8,10.8,0,1,1,10.8-10.8A10.76,10.76,0,0,1,239,522.72Z" transform="translate(-4.06 -76.37)"/></svg>