<svg id="Layer_1" data-name="Layer 1" xmlns="http://www.w3.org/2000/svg" viewBox="0 0 585.03 444.9"><path d="M587.44,265.42c-2-2.92-3.32-6.31-5.14-9.37q-42.72-71.71-85.49-143.35a0,0,0,0,1,0,0c-1.09-1.82-2.2-3.62-3.33-5.45h10.59a16,16,0,1,0,0-32H80.69a16,16,0,1,0,0,32.05H96Q51.37,188.14,6.66,269A10.77,10.77,0,0,0,6,278.84c8.29,21.69,21.26,40,39.6,54.28,26.69,20.78,56.78,29,89.88,20.38,39-10.14,64.36-36.14,80-72.58,2.39-5.56,2.45-10.43-1-15.5-2-2.92-3.33-6.31-5.14-9.37q-42.72-71.71-85.49-143.35a0,0,0,0,1,0,0c-1.09-1.82-2.2-3.62-3.33-5.45H278.7q-1.23,35.85-2.34,71.68-4.28,135.41-8.48,270.78c-.05,1.47-.2,2.94-.3,4.57-1.42.12-2.48.29-3.55.29-11,0-22-.06-33,.06-7.45.07-11.78,4.29-12.18,11.67a71,71,0,0,0,0,10.31c.37,4.06-1.22,5-5.1,5q-55.44-.21-110.92-.06c-12.43,0-21.32,8.84-21.55,21.23-.11,6.45-.06,3.24,0,9.7,0,7,.72,7.66,7.87,7.65l403.72,0c1.64,0,3.3,0,4.95,0,4.34-.16,5.63-1.43,5.67-5.73.05-6.2-.28-2.71.07-8.88.8-13.95-9.42-24.31-24-24.11-36.14.49-72.3.17-108.45.17h-5.24c0-5.07,0-9.57,0-14.08-.08-8.19-4.59-12.77-12.77-12.83-10-.06-20.07,0-30.11,0H317c-.13-2.14-.29-3.76-.34-5.38q-1.26-40-2.51-79.95-4.12-131-8.3-262H469Q424.39,188.14,379.68,269a10.77,10.77,0,0,0-.66,9.82c8.29,21.69,21.26,40,39.6,54.28,26.7,20.78,56.78,29,89.88,20.38,39-10.14,64.37-36.14,80-72.58C590.84,275.36,590.9,270.49,587.44,265.42ZM133.06,149.7Q166.92,206.28,200.52,263c.67,1.13,1.27,2.29,1.88,3.51a4.27,4.27,0,0,1-3.8,6.16l-174.43.65a4.24,4.24,0,0,1-3.8-6.2.25.25,0,0,0,0-.07q22.46-40.79,45-81.52c12-21.7,24.26-43.33,36.4-65,.28-.51.57-1,.85-1.51.39-.73.8-1.44,1.24-2.13,2.6-4.05,6.11-4.18,8.71-.07l3.44,5.41C121.8,131.34,127.54,140.47,133.06,149.7Zm438.57,123-174.44.65a4.23,4.23,0,0,1-3.78-6.2.19.19,0,0,1,0-.07q22.45-40.79,45-81.52c12.05-21.7,24.26-43.33,36.4-65,.28-.51.57-1,.85-1.51.39-.73.8-1.44,1.24-2.13,2.61-4.05,6.11-4.18,8.71-.07l3.44,5.41c5.75,9.1,11.49,18.23,17,27.46Q539.93,206.28,573.54,263c.68,1.13,1.28,2.29,1.88,3.51A4.26,4.26,0,0,1,571.63,272.66Z" transform="translate(-5.12 -75.19)"/></svg>