<svg id="Layer_1" data-name="Layer 1" xmlns="http://www.w3.org/2000/svg" viewBox="0 0 576.42 494.97"><defs><style>.cls-1{fill:#010101;stroke:#010101;stroke-miterlimit:10;stroke-width:15px;}</style></defs><path class="cls-1" d="M299.74,78.77c10.9-10.2,20.6-20.9,31.8-29.4,96.4-73.6,233.6-11.8,247.8,115.6,6.2,55.4-14.7,110.3-52.1,151.7-55.19,61.1-120.1,111.4-184.8,161.8-3.5,2.7-7,5.3-10.5,8a52.33,52.33,0,0,1-65.4-1.7c-62-52-124.2-103.7-184.1-158-42.3-38.3-65.5-86.9-63.3-146.1,2.5-67.7,44.3-130.3,104.4-153.3,60.5-23.1,120.1-6.8,170.5,46.5C295.74,75.57,297.61,77,299.74,78.77Zm12.2,28.2a14.66,14.66,0,0,1-23.4.1c-5.5-7.2-10.7-13.9-16.3-20.3-46.9-53.1-119.7-59.6-174.5-15.9-64.9,51.7-72.4,152.4-14.9,219,58.8,68.2,129.9,122.7,201.3,176.7,8.7,6.6,22.9,6.6,31.6,0,72.4-54.5,144-110.1,203.7-179.1,34.8-40.3,44.5-87.6,31.6-138.3-13.5-53.4-46.2-91.2-101.6-103.6-56.5-12.7-99.5,10.6-132.9,55.3-1.63,2.1-3.13,4.1-4.63,6.1Z" transform="translate(-11.5 -9.65)"/></svg>