<svg id="Layer_1" data-name="Layer 1" xmlns="http://www.w3.org/2000/svg" viewBox="0 0 478.97 517.21"><defs><style>.cls-1{fill:#010101;stroke:#010101;stroke-miterlimit:10;stroke-width:13px;}</style></defs><path class="cls-1" d="M482.58,469.38c-2.27-86.44-70.91-163.76-157-171.94a846.69,846.69,0,0,0-140.27-1.66c-90.89,6.73-156.62,72.15-167.8,161.7-5.38,42.75,14.29,65.21,57.35,65.21H247.93c60.56,0,121.12.21,181.67-.1C463.74,522.49,483.52,502.2,482.58,469.38Zm-56.21,26.71c-58.9.1-117.7,0-176.6,0H73.17c-24.43,0-30.54-6.42-29.71-30.33,2.69-73.4,64.7-139.13,140.58-143.58,48.86-2.8,98.55-2.9,147,3,67.5,8.28,121.84,73,124.54,140,1.12,23.84-5.29,30.91-29.21,30.91Z" transform="translate(-10.14 -12.05)"/><path class="cls-1" d="M375.6,145.16C375.18,213.9,318,270.83,249.51,270.63c-68.84-.31-125.77-57.25-125.87-125.78-.11-69.35,57.86-127,127-126.29C319.39,19.18,376,76.53,375.6,145.16Zm-225.46-.72c-.11,54.55,44.41,99.38,99,99.69,54.24.31,99.79-44.52,100.2-98.66.42-55.17-44.82-100.51-100-100.41a99.63,99.63,0,0,0-99.2,99.38Z" transform="translate(-10.14 -12.05)"/></svg>