<svg id="Layer_1" data-name="Layer 1" xmlns="http://www.w3.org/2000/svg" viewBox="0 0 542.04 528.7"><path d="M359,55.55A116.54,116.54,0,1,0,475.54,172.09,116.54,116.54,0,0,0,359,55.55Zm0,201.55a85,85,0,1,1,85-85A85,85,0,0,1,359,257.1Z" transform="translate(-87 -55.55)"/><path d="M629,568.5q0,7.93-.45,15.75h-32q.52-7.82.52-15.75c0-132.07-107-239.12-239.12-239.12S118.9,436.43,118.9,568.5q0,7.93.52,15.75h-32Q87,576.43,87,568.5c0-149.68,121.34-271,271-271S629,418.82,629,568.5Z" transform="translate(-87 -55.55)"/></svg>