<svg id="Layer_1" data-name="Layer 1" xmlns="http://www.w3.org/2000/svg" viewBox="0 0 588.27 363.55"><defs><style>.cls-1{fill:#eb001b;}.cls-2{fill:#f79e1b;}.cls-3{fill:#ff5f00;}</style></defs><path class="cls-1" d="M185.92,160.44a181.77,181.77,0,1,0,1.18,0Z" transform="translate(-4.73 -160.44)"/><path class="cls-2" d="M410.64,160.44A181.79,181.79,0,0,0,229.45,342.81c.33,100.39,82,181.51,182.36,181.18S593.32,442,593,341.63A181.78,181.78,0,0,0,411.81,160.44Z" transform="translate(-4.73 -160.44)"/><path class="cls-3" d="M298.87,199.27a181.77,181.77,0,0,0,0,285.9c78.94-62,92.67-176.29,30.66-255.24a181.89,181.89,0,0,0-30.66-30.66" transform="translate(-4.73 -160.44)"/></svg>