<svg id="Layer_1" data-name="Layer 1" xmlns="http://www.w3.org/2000/svg" viewBox="0 0 2634.07 2638.1"><defs><style>.cls-1{fill:#ef051f;}</style></defs><path d="M85.43,692.18c0-66.87-.67-133.76.12-200.63C88.14,273.36,257.37,103,475.79,100.22c128.56-1.64,257.17-.57,385.75-.39,222.9.32,390.41,146.46,405.38,368.27,10.09,149.49,9.55,300.72-.14,450.27C1253.54,1123,1103.9,1270.94,898.92,1282c-155.78,8.41-312.86,6.68-468.63-2.68-182-10.94-336.26-179-343.51-361.85-3-75-.49-150.19-.49-225.3ZM675.5,1021.23c62.68,0,125.37.17,188,0,88.35-.31,142.78-54.05,143-141.62q.4-188.09,0-376.17c-.2-84.45-54-140.32-137.66-140.93q-191.11-1.39-382.24,0c-83.09.68-137.79,54.64-138.57,137.2q-1.82,192.69,0,385.41c.81,82.15,57,135.62,139.43,136.07C550.14,1021.5,612.82,1021.23,675.5,1021.23Z" transform="translate(-83.97 -98.27)"/><path d="M2717.93,691.81c0,61.74.2,123.47,0,185.2-.84,223.57-150,391.9-372.14,405.45-146.53,8.93-294.45,8.35-441-.2-206-12-356.88-161-368.5-366.55-8.82-155.77-7.31-312.94,2.2-468.72,11.3-185,177.84-340,362.77-345.42q223.53-6.5,447.4-.17c194.93,5.55,360.56,173.19,368.06,368.2,2.84,74,.46,148.14.46,222.21ZM2124.4,1021.23h188c2,0,4.11,0,6.16,0,77.34-1,134.78-52.64,136.13-129.73q3.48-200.34-.21-400.78c-1.4-73.42-54.92-126.27-128.36-127.54q-200.31-3.45-400.71-.13c-75.18,1.23-128.21,58.77-128.56,133.94q-.9,194.24,0,388.48c.35,79.95,56,135,136.41,135.65C1997,1021.64,2060.69,1021.21,2124.4,1021.23Z" transform="translate(-83.97 -98.27)"/><path d="M674.57,2736.37c-90.3-3.55-181.83,1-270.66-12.37C228.45,2697.57,91.56,2538.41,86.75,2361c-3.88-142.91-3.32-286-.61-429,3.9-205.33,158.46-368.81,370.33-381.57a3723.84,3723.84,0,0,1,444.1.33c205.36,12.23,355.48,162.29,366.75,368.28,8.47,154.78,6.94,310.88-2.39,465.65-11.24,186.29-178.1,339.7-365,347-75,2.92-150.16.48-225.24.48C674.66,2733.53,674.61,2735,674.57,2736.37Zm1.66-924.85c-63.71,0-127.42-.36-191.13.09-79,.56-135.71,53.29-136.8,132.14q-2.74,197.28.1,394.64c1.14,76.25,55.09,130.26,131.28,131.4q197.25,3,394.56.13c79-1.12,131.91-57.81,132.21-136.81q.72-192.71,0-385.41c-.34-80.16-55.87-135.4-136-136.06C805.7,1811.1,741,1811.53,676.23,1811.52Z" transform="translate(-83.97 -98.27)"/><path class="cls-1" d="M1535.79,2141.65c-.32-329,262.59-591.67,591.47-591,324.44.63,588.71,262.92,589,584.58.28,332.37-260.43,595.68-590.19,596.08C1799.43,2731.67,1536.1,2468.63,1535.79,2141.65Zm259.78-2.23c-.36,183.41,147.48,332.06,330.5,332.32,180.82.26,330.17-148.62,330.73-329.67.56-181.58-147.12-330.9-328-331.68C1944.5,1809.59,1795.92,1956.32,1795.57,2139.42Z" transform="translate(-83.97 -98.27)"/></svg>