<?xml version="1.0" standalone="no"?>
<!DOCTYPE svg PUBLIC "-//W3C//DTD SVG 20010904//EN"
 "http://www.w3.org/TR/2001/REC-SVG-20010904/DTD/svg10.dtd">
<svg version="1.0" xmlns="http://www.w3.org/2000/svg"
 width="512.000000pt" height="512.000000pt" viewBox="0 0 512.000000 512.000000"
 preserveAspectRatio="xMidYMid meet">

<g transform="translate(0.000000,512.000000) scale(0.100000,-0.100000)"
fill="#000000" stroke="none">
<path d="M1012 4453 c-18 -9 -41 -28 -51 -42 -10 -14 -188 -474 -396 -1021
l-377 -995 5 -90 c14 -217 110 -420 273 -576 187 -178 406 -260 662 -246 128
7 209 26 318 77 301 139 500 424 521 745 l5 90 -330 870 c-182 479 -333 878
-337 888 -7 16 23 17 549 17 l556 0 0 -1610 0 -1610 -232 0 c-202 0 -238 -2
-268 -18 -103 -51 -108 -201 -8 -262 32 -19 52 -20 658 -20 606 0 626 1 658
20 100 61 95 211 -8 262 -30 16 -66 18 -267 18 l-233 0 0 1610 0 1610 556 0
c526 0 556 -1 549 -17 -4 -10 -155 -409 -337 -888 l-330 -870 5 -90 c27 -407
342 -749 751 -816 94 -15 266 -7 356 16 82 22 210 81 286 133 66 45 185 164
231 232 84 124 140 288 150 435 l5 90 -377 995 c-208 547 -386 1007 -396 1021
-44 63 63 59 -1601 59 -1373 0 -1516 -2 -1546 -17z m328 -1244 c140 -369 257
-675 258 -680 2 -5 -217 -9 -518 -9 -304 0 -520 4 -518 9 107 288 514 1351
518 1351 3 0 120 -302 260 -671z m2960 0 c140 -369 257 -675 258 -680 2 -5
-217 -9 -518 -9 -301 0 -520 4 -518 9 156 417 514 1351 518 1351 3 0 120 -302
260 -671z m-2655 -1011 c-33 -110 -124 -235 -219 -303 -215 -153 -489 -151
-698 6 -96 71 -178 187 -212 297 l-7 22 571 0 571 0 -6 -22z m2954 -10 c-61
-216 -285 -389 -522 -405 -267 -17 -521 157 -601 415 l-7 22 570 0 570 0 -10
-32z"/>
</g>
</svg>
