<?xml version="1.0" standalone="no"?>
<!DOCTYPE svg PUBLIC "-//W3C//DTD SVG 20010904//EN"
 "http://www.w3.org/TR/2001/REC-SVG-20010904/DTD/svg10.dtd">
<svg version="1.0" xmlns="http://www.w3.org/2000/svg"
 width="512.000000pt" height="512.000000pt" viewBox="0 0 512.000000 512.000000"
 preserveAspectRatio="xMidYMid meet">

<g transform="translate(0.000000,512.000000) scale(0.100000,-0.100000)"
fill="#000000" stroke="none">
<path d="M1485 4769 c-587 -58 -1084 -459 -1263 -1019 -53 -167 -66 -256 -66
-455 1 -147 5 -199 23 -285 55 -259 157 -468 327 -670 34 -41 492 -503 1016
-1027 1048 -1047 983 -988 1081 -963 38 10 140 109 981 948 516 515 970 974
1010 1018 176 200 290 428 348 698 29 136 31 416 4 551 -177 892 -1064 1417
-1917 1135 -142 -47 -248 -99 -374 -185 l-96 -65 -94 65 c-207 144 -437 227
-704 254 -114 12 -157 12 -276 0z m365 -335 c209 -40 396 -135 567 -287 111
-99 175 -99 286 0 171 153 368 252 587 294 86 16 307 16 400 0 359 -64 673
-298 837 -626 161 -320 161 -710 1 -1030 -88 -175 -100 -188 -1052 -1143
l-911 -912 -918 917 c-619 620 -933 941 -966 988 -243 351 -277 805 -88 1180
148 296 422 518 744 604 158 42 344 48 513 15z"/>
<path d="M3799 3826 c-44 -30 -69 -80 -69 -136 0 -49 11 -71 58 -124 19 -21
48 -68 66 -105 28 -60 31 -75 31 -161 0 -86 -3 -101 -31 -161 -18 -37 -48 -84
-67 -106 -44 -48 -57 -80 -57 -137 0 -109 128 -184 228 -132 74 38 174 185
220 324 22 67 26 94 25 212 0 119 -3 144 -26 215 -44 133 -146 283 -218 320
-45 24 -118 19 -160 -9z"/>
</g>
</svg>
