<svg id="Layer_1" data-name="Layer 1" xmlns="http://www.w3.org/2000/svg" viewBox="0 0 440.07 528.08"><defs><style>.cls-1{fill:#e2151a;}</style></defs><path class="cls-1" d="M401.72,31c2.67,2.39,5.46,4.65,8,7.18q57.84,57.73,115.67,115.49A17.72,17.72,0,0,1,531,167.32q-.16,162.92-.08,325.84c0,10.73-2.53,13.18-13.49,13.19H478.13v5.82c0,12.2.06,24.41,0,36.61-.05,6.85-3.32,10.05-10.11,10.28-1.2,0-2.4,0-3.6,0H104.45c-11.22,0-13.5-2.29-13.5-13.61V79.88c0-11.48,2.3-13.74,13.94-13.74h38.87c0-7.78.23-15.28-.08-22.76C143.45,37.87,145,33.63,150,31ZM390.25,48.93H161.69V488.36H512.94V171.85h-6.51q-51.82,0-103.65,0c-9.93,0-12.52-2.64-12.52-12.55q0-52.06,0-104.15ZM109,84V541.09H460.27V506.35H157.89c-11.92,0-14.13-2.21-14.13-14.11q0-200.85,0-401.71V84Zm390.16,70L408.21,63.17V154Z" transform="translate(-90.95 -31)"/><path class="cls-1" d="M363.62,427.05q-50.79,0-101.58,0a25.52,25.52,0,0,1-6.13-.47,8,8,0,0,1-6.42-8.32,8.2,8.2,0,0,1,6.92-8.45,27.21,27.21,0,0,1,5.65-.3H465.74a23.68,23.68,0,0,1,5.13.26c4.34,1,7,3.74,7.13,8.25s-2.37,7.49-6.65,8.63a24.12,24.12,0,0,1-6.14.4Q414.42,427.08,363.62,427.05Z" transform="translate(-90.95 -31)"/><path class="cls-1" d="M364.08,303.86h100a50.81,50.81,0,0,1,5.66.18c5,.58,8.12,3.79,8.28,8.26s-3,8.17-8.15,8.95a32.36,32.36,0,0,1-4.62.23H261.09c-7.43-.13-11.6-3.27-11.66-8.79s4.07-8.82,11.52-8.83Q312.52,303.82,364.08,303.86Z" transform="translate(-90.95 -31)"/><path class="cls-1" d="M363.69,356.71H465.28c8.63,0,12.63,2.69,12.77,8.53.14,6-4.22,9.08-12.89,9.08q-101.34,0-202.66,0a27.25,27.25,0,0,1-6.13-.5c-4.5-1-7.38-4.74-6.86-8.93.57-4.6,3.15-7.54,8-8a56.42,56.42,0,0,1,5.67-.14Z" transform="translate(-90.95 -31)"/><path class="cls-1" d="M363.53,215.74H263a50.82,50.82,0,0,1-5.66-.14c-4.46-.51-7.81-3.88-7.82-8.16s2.08-7.6,6.53-8.7a23.3,23.3,0,0,1,5.6-.55q102.11,0,204.2,0a22.75,22.75,0,0,1,5.6.54c4.46,1.15,7.12,4.88,6.55,9.16-.6,4.45-3.25,7.1-7.72,7.7a42.67,42.67,0,0,1-5.66.15Z" transform="translate(-90.95 -31)"/><path class="cls-1" d="M364.07,268.57H262.49c-8.84,0-13.13-2.92-13.07-8.83s4.43-8.79,13.22-8.79q101.07,0,202.13,0a27,27,0,0,1,7.13.71c4.14,1.14,6.27,4.21,6.1,8.47a7.93,7.93,0,0,1-6.71,8,32.87,32.87,0,0,1-6.67.4Q414.34,268.59,364.07,268.57Z" transform="translate(-90.95 -31)"/><path class="cls-1" d="M231.5,180.58c-8.24,0-16.48.08-24.72,0-6.78-.09-10.21-3.37-10.26-10.13q-.2-25,0-49.94c.05-6.84,3.39-10.12,10.19-10.16q25-.14,49.95,0c6.92,0,10.11,3.14,10.16,10.08q.17,25,0,49.94c0,7.09-3.34,10.15-10.59,10.22C248,180.64,239.74,180.58,231.5,180.58Zm-17.29-18h34.68V128.27H214.21Z" transform="translate(-90.95 -31)"/><path class="cls-1" d="M214,215.64c-3.09,0-6.2.2-9.27,0-4.8-.38-7.41-3.37-8.07-7.94-.58-4,2.4-8.52,6.82-8.9a127.19,127.19,0,0,1,21-.08c4.8.4,7.58,4.69,7,9.22-.62,4.72-3.49,7.38-8.21,7.73-3.07.22-6.18,0-9.27,0Z" transform="translate(-90.95 -31)"/><path class="cls-1" d="M214.31,356.84c3.09,0,6.2-.21,9.27.05,4.62.4,7.78,3.64,7.92,8,.17,4.77-2.16,8.42-6.83,8.83a127.06,127.06,0,0,1-21,0c-4.47-.35-7.33-4.66-7.07-8.75.28-4.47,3.6-7.81,8.44-8.15,3.08-.21,6.18,0,9.28,0Z" transform="translate(-90.95 -31)"/><path class="cls-1" d="M214.15,427c-2.92,0-5.85.17-8.75,0-5.23-.36-9-4.27-8.83-8.93a8.77,8.77,0,0,1,8.74-8.46c5.83-.24,11.69-.23,17.52,0,5.15.2,8.56,3.7,8.71,8.38.16,4.87-3.32,8.62-8.63,9C220,427.18,217.07,427,214.15,427Z" transform="translate(-90.95 -31)"/><path class="cls-1" d="M213.84,268.32c-3.26,0-6.54.25-9.77-.07-4.61-.46-7.11-3.62-7.37-7.93s1.89-8.24,6.41-8.61a133.68,133.68,0,0,1,22,0c4.46.39,6.63,4.15,6.36,8.62s-2.83,7.42-7.36,7.91A97.85,97.85,0,0,1,213.84,268.32Z" transform="translate(-90.95 -31)"/><path class="cls-1" d="M214.31,303.71c3.32.17,6.78.07,10.16.57,4.51.68,6.94,3.71,7,8.19s-2.19,8-6.7,8.37a141.83,141.83,0,0,1-21.52,0c-4.55-.36-6.74-4.18-6.57-8.5s2.63-7.49,7.23-8.06C207.31,303.82,210.76,303.87,214.31,303.71Z" transform="translate(-90.95 -31)"/></svg>