<svg id="Layer_1" data-name="Layer 1" xmlns="http://www.w3.org/2000/svg" viewBox="0 0 578.15 512.58"><path d="M238.81,508.13c0-6.16.4-11.34-.22-16.39-.22-1.84-2.55-4.08-4.46-5-28.14-13.18-50.9-32.58-68-58.53a160.56,160.56,0,0,1-25.87-74c-.63-6.55,3-11.2,9-12s10.6,2.79,11.36,9.53c2.89,25.92,11.25,49.71,26.74,70.85a139.14,139.14,0,0,0,59.45,46.87,13.26,13.26,0,0,0,6.6.64c5.67-.78,11.28-2.75,16.93-2.83,24.07-.32,48.15-.16,72.22-.12,18.29,0,29.39,11,29.49,29.17.05,8.16.09,16.33,0,24.5-.21,15.95-11.25,27.48-27,27.62-26.44.23-52.88.12-79.32,0-10.31,0-17.81-5-23.53-13.49a16.54,16.54,0,0,0-7.49-6c-50.25-18.17-88.27-50.52-113.54-97.64-2.08-3.89-4.34-5.25-8.83-5.52-12.36-.76-25.14-.7-36.9-4-37.27-10.49-62.95-45.36-63.2-84.09-.12-17.61-1.18-35.43,1-52.78,5.54-43.45,37.92-73.59,81.59-78,1.47-.15,3-.24,4.88-.39,10.81-55.11,36.37-101.2,83-133.92,35.53-25,75.39-36.77,118.71-36.63,49.71.16,94.23,15.43,132.34,47.64S493,158,502.38,206.51c28.07,1.67,51,12.65,68.35,34.46,12.43,15.65,19,33.64,19.09,53.61.09,18.67.79,37.52-1.36,56-4.82,41.31-42.23,74.23-83.86,75.39-11.38.32-22.78.25-34.18.12-17.07-.19-28.13-11.15-28.38-28.34-.23-16.33-.08-32.66-.09-49,0-37.39-.48-74.8,0-112.19,1-73.52-54.5-131.35-125.21-140.53-75.64-9.83-146.66,45.28-154.84,120.92-2.6,24-1.23,48.48-1.61,72.75-.11,7.52.13,15.05-.07,22.56-.19,7.09-4.43,11.38-10.62,11.23-6-.14-9.9-4.22-9.91-11.11,0-29.66-1.36-59.41.48-89,3.08-49.47,26.54-89,66.11-118,97.35-71.58,235.48-14,254.31,105.57a192.26,192.26,0,0,1,1.83,28.9c.2,51.37.14,102.73.18,154.1,0,10.31,1.23,11.7,11.4,11.51,13.09-.24,26.39.58,39.2-1.49,31.64-5.11,55.28-32.91,55.89-64.86.35-18,.94-36.23-1.21-54-3.79-31.36-30.26-54.74-63-57.31v6.13c.08,22.14.12,44.27.25,66.41,0,5.13-1.18,9.38-6.46,11.41-7.34,2.82-13.93-2-14.12-10.72-.25-10.74-.23-21.49-.05-32.24.46-27.34-.5-54.46-7.92-81.11-19.72-70.81-78-121.22-151-129.38-61.28-6.85-115,9.66-158.37,54.59A166.26,166.26,0,0,0,121,210.77c-3.26,28-2.35,56.56-3.3,84.87a68.36,68.36,0,0,1-.25,7.72c-.87,5.84-5.07,9.26-10.67,9s-9.52-4-9.6-10c-.2-14.82-.09-29.65-.09-44.48,0-9.86,0-19.71,0-30.22-23.14,2-40.79,12.59-53.37,31.6A62.82,62.82,0,0,0,32.9,294.51c0,18-.81,36.23,1.37,54,3.85,31.3,32.56,55.79,64,56.74,7.08.22,14.2.42,21.27.05,8.19-.44,12.92,3.06,16.51,10.42,20.86,42.77,53.57,73,97.74,90.73C235,507,236.22,507.28,238.81,508.13Zm66.73,19.78c12.43,0,24.87-.08,37.31,0,5.88,0,8.74-2.43,8.63-8.46-.15-7.71-.15-15.44,0-23.15.11-5.94-2.57-8.61-8.52-8.59-24.88.08-49.76,0-74.63.05-6.54,0-8.95,2.36-9.07,8.85-.13,7.5-.14,15,0,22.51.13,7,1.92,8.69,9,8.73C280.66,528,293.1,527.91,305.54,527.91Z" transform="translate(-11.85 -36)"/></svg>