<svg id="Layer_1" data-name="Layer 1" xmlns="http://www.w3.org/2000/svg" viewBox="0 0 573.97 439.7"><defs><style>.cls-1{fill:#e2151a;}</style></defs><path class="cls-1" d="M581.71,394.9c-4.23-39.18-9-78.29-13.58-117.42-5.08-43.59-10.41-87.15-15.2-130.77-3-27.31-25.07-44.85-52.26-41.5-46.32,5.71-92.69,11-139,16.37Q291.79,129.71,222,137.73c-47.47,5.51-94.93,11.16-142.42,16.52C66.45,155.73,54.78,159.68,46,170c-3.46,4-3.43,8.85-.14,12.09,3.5,3.44,8.61,3.42,12.37-.77C64.4,174.4,72.27,172,81.09,171q60.1-6.76,120.18-13.85Q271.65,149,342,140.75l111.81-13.09c16.69-2,33.36-4,50.07-5.79s30.05,8.24,32,24.23c5,42.09,9.83,84.21,14.73,126.31,4.67,40.25,8.94,80.56,14.22,120.73C567.27,412,554.86,430,529,427.21c-.12-2.14-.12-4.32-.27-6.47,0-43.61.1-127.59-.08-169.9a57.17,57.17,0,0,0-2.32-16.53c-6-19.31-23-30.67-45.21-30.67q-192.54,0-385.07,0c-14.2,0-28.4,0-42.6,0a45.36,45.36,0,0,0-31.16,11.92,41.21,41.21,0,0,0-9.08,12A49,49,0,0,0,8,250V505.14a9.74,9.74,0,0,0,.72,3.07h0c7.45,25.22,22.11,36.27,48.21,36.27H481.24c28.78,0,47.29-18.41,47.49-47.19.08-12.71,0-25.42,0-38.12,0-14,0-14,13.65-15.63C566.79,440.71,584.36,419.44,581.71,394.9ZM511.88,498.06c-.1,18.49-11.36,29.6-29.81,29.61q-213.84,0-427.68,0c-18.3,0-29.56-11.41-29.57-29.85q0-123.62,0-247.24a38.21,38.21,0,0,1,.58-7.79c3-14.29,14-22.33,30.53-22.33H479.7c21.67,0,32.2,10.6,32.21,32.43,0,41.68,0,126.35,0,168v.53c0,.17,0,.33,0,.49,0,.72,0,1.43,0,2.14C511.91,448.72,512,473.39,511.88,498.06Z" transform="translate(-8 -104.8)"/><path class="cls-1" d="M115.9,302.71c8.21,0,16.44-.09,24.65,0,17.32.22,27.95,10.77,28.16,28q.19,16.53,0,33.07c-.22,16.82-11,27.68-27.78,27.83q-25.5.22-51,0c-17-.14-27.89-11.3-28-28.3q-.09-16.35,0-32.69a28.1,28.1,0,0,1,27.63-27.87C98.33,302.57,107.12,302.71,115.9,302.71Zm-.53,72.1c8.4,0,16.8.1,25.21,0,7.82-.12,11.22-3.52,11.3-11.38q.18-16.26,0-32.5a11.43,11.43,0,0,0-11.32-11.33q-25.2-.18-50.4,0c-7.83.05-11.34,3.61-11.41,11.32q-.14,16.25,0,32.5c.07,7.7,3.63,11.27,11.4,11.39C98.56,374.91,107,374.81,115.37,374.81Z" transform="translate(-8 -104.8)"/><path class="cls-1" d="M159.89,481.58H74.15a25.5,25.5,0,0,1-5-.18c-4.37-.9-7.06-3.75-7.05-8.18,0-4.65,2.72-7.63,7.46-8.34a30.34,30.34,0,0,1,4.48-.11H246.6a33.44,33.44,0,0,1,4.48.09c4.77.63,7.53,3.58,7.59,8.22s-2.77,7.61-7.45,8.38a31.33,31.33,0,0,1-5,.12Z" transform="translate(-8 -104.8)"/><path class="cls-1" d="M456.62,315.89a95.86,95.86,0,0,1-9.24,41.66c-2.84,6.12-7.56,8.38-12.36,6.05s-5.73-7-2.85-13.25a84.09,84.09,0,0,0-.08-69.61c-2.78-6.18-1.71-10.76,2.92-13.06,4.79-2.38,9.43-.12,12.36,6A97.35,97.35,0,0,1,456.62,315.89Z" transform="translate(-8 -104.8)"/><path class="cls-1" d="M430.35,436.62c-11.56,0-23.14.32-34.67-.22a12.75,12.75,0,0,1-8.51-4.81c-1.27-1.73-.79-6.09.62-8.07s4.92-3.52,7.53-3.55c23.31-.26,46.62-.2,69.93-.13,5.91,0,9.23,3.1,9.32,8.14s-3.42,8.54-9.53,8.61C453.48,436.71,441.92,436.62,430.35,436.62Z" transform="translate(-8 -104.8)"/><path class="cls-1" d="M106.58,419.81c11.38,0,22.75-.05,34.13,0,6.4,0,9.79,2.91,9.9,8.11.12,5.36-3.52,8.64-10,8.66q-34.12.09-68.26,0c-6.4,0-10.37-3.41-10.33-8.52s3.94-8.23,10.47-8.26C83.83,419.78,95.2,419.81,106.58,419.81Z" transform="translate(-8 -104.8)"/><path class="cls-1" d="M322.68,419.81c11.38,0,22.76-.05,34.14,0,6.16,0,9.84,3.2,9.89,8.22s-3.67,8.51-9.69,8.54q-34.69.12-69.39,0c-6.06,0-9.62-3.46-9.53-8.61s3.55-8.1,9.89-8.14C299.55,419.76,311.12,419.81,322.68,419.81Z" transform="translate(-8 -104.8)"/><path class="cls-1" d="M214,436.62c-11.19,0-22.38.05-33.57,0-6.54,0-10.32-3.2-10.36-8.4-.06-6.69,5.87-9.88,16.17-7.71,18.78,4,38.19,4.36,56.88,0,9.64-2.25,15.81,1.38,15.62,7.86-.15,4.9-4,8.19-10.06,8.24C237.16,436.69,225.6,436.62,214,436.62Z" transform="translate(-8 -104.8)"/><path class="cls-1" d="M414.58,289.24a80.4,80.4,0,0,1,.11,52.61l-.09.26c-2,5.63-7.07,7.46-11.62,5.3-4.26-2-5.92-6.24-4-11.22,5.23-13.18,5.72-27.8.13-40.82-2.18-5.08-.46-9.55,3.9-11.56s9.47-.38,11.34,4.92Z" transform="translate(-8 -104.8)"/><path class="cls-1" d="M382.16,304.93a27.46,27.46,0,0,1,.37,20.4c-.3.8-.63,1.58-1,2.33-2.06,4.21-6.11,5.5-10.43,3.6s-5.58-5.32-4.77-10.08a35.32,35.32,0,0,0,0-11.24c-.75-4.76.65-8.15,4.94-10s8.3-.41,10.36,3.77C381.8,304.12,382,304.52,382.16,304.93Z" transform="translate(-8 -104.8)"/><path class="cls-1" d="M114.76,355.35c-3.16,0-6.37.32-9.48-.07-4.77-.61-7.35-3.85-7.18-8.48.17-4.32,2.71-7.56,7.29-7.77a195.11,195.11,0,0,1,20.09,0c4.5.26,7,3.32,7.1,7.86.1,4.83-2.5,7.82-7.22,8.37-3.49.41-7.06.08-10.6.08Z" transform="translate(-8 -104.8)"/></svg>