<svg id="Layer_1" data-name="Layer 1" xmlns="http://www.w3.org/2000/svg" viewBox="0 0 586.12 576.72"><defs><style>.cls-1{fill:#ec1c24;}</style></defs><path class="cls-1" d="M586.59,164.3H334.07a9.09,9.09,0,0,1-9.09-9.09V124.66a9.09,9.09,0,0,1,9.09-9.09H586.59a9.09,9.09,0,0,1,9.09,9.09v30.55A9.09,9.09,0,0,1,586.59,164.3Z" transform="translate(-9.56 -11.64)"/><path class="cls-1" d="M439.36,65.53H334.07A9.09,9.09,0,0,1,325,56.44V25.88a9.09,9.09,0,0,1,9.09-9.09H439.36a9.09,9.09,0,0,1,9.09,9.09V56.43A9.1,9.1,0,0,1,439.36,65.53Z" transform="translate(-9.56 -11.64)"/><path class="cls-1" d="M488.11,263.08h-154A9.09,9.09,0,0,1,325,254V223.44a9.09,9.09,0,0,1,9.09-9.09h154a9.09,9.09,0,0,1,9.09,9.09V254A9.09,9.09,0,0,1,488.11,263.08Z" transform="translate(-9.56 -11.64)"/><path class="cls-1" d="M218.59,58.64A14.93,14.93,0,0,1,233.5,73.55V220.67a14.93,14.93,0,0,1-14.91,14.91H71.47a14.93,14.93,0,0,1-14.91-14.91V72.27A13.65,13.65,0,0,1,70.19,58.64h148.4m0-47H70.19A60.63,60.63,0,0,0,9.56,72.27v148.4a61.91,61.91,0,0,0,61.91,61.91H218.59a61.91,61.91,0,0,0,61.91-61.91V73.55a61.91,61.91,0,0,0-61.91-61.91Z" transform="translate(-9.56 -11.64)"/><path class="cls-1" d="M218.59,364.42a14.93,14.93,0,0,1,14.91,14.91V526.45a14.93,14.93,0,0,1-14.91,14.91H71.47a14.93,14.93,0,0,1-14.91-14.91V378.05a13.65,13.65,0,0,1,13.63-13.63h148.4m0-47H70.19A60.63,60.63,0,0,0,9.56,378.05v148.4a61.91,61.91,0,0,0,61.91,61.91H218.59a61.91,61.91,0,0,0,61.91-61.91V379.33a61.91,61.91,0,0,0-61.91-61.91Z" transform="translate(-9.56 -11.64)"/><path class="cls-1" d="M586.59,379.44H334.07a9.09,9.09,0,0,1-9.09-9.09V339.8a9.09,9.09,0,0,1,9.09-9.09H586.59a9.09,9.09,0,0,1,9.09,9.09v30.55A9.09,9.09,0,0,1,586.59,379.44Z" transform="translate(-9.56 -11.64)"/><path class="cls-1" d="M439.36,478H334.07a9.09,9.09,0,0,1-9.09-9.09V438.38a9.09,9.09,0,0,1,9.09-9.09H439.36a9.09,9.09,0,0,1,9.09,9.09v30.55A9.09,9.09,0,0,1,439.36,478Z" transform="translate(-9.56 -11.64)"/><path class="cls-1" d="M488.11,575.07h-154A9.09,9.09,0,0,1,325,566V535.43a9.09,9.09,0,0,1,9.09-9.09h154a9.09,9.09,0,0,1,9.09,9.09V566A9.09,9.09,0,0,1,488.11,575.07Z" transform="translate(-9.56 -11.64)"/></svg>