<svg id="Layer_1" data-name="Layer 1" xmlns="http://www.w3.org/2000/svg" viewBox="0 0 488.49 488.48"><defs><style>.cls-1{fill:#039ae4;}.cls-2{fill:#35aee9;}.cls-3{fill:#8cd1f2;}.cls-4{fill:#5ebfed;}.cls-5{fill:#7ecbf1;}.cls-6{fill:#fefefe;}</style></defs><path class="cls-1" d="M257.93,507.41h-8.57c-6.29-1.2-12.69-1.12-19-1.59-15.5-1.16-30.13-5.79-44.55-11.07a236.91,236.91,0,0,1-70.48-40C90,433.76,69,409.23,53.42,380.08a248.58,248.58,0,0,1-24.91-69.67c-1.35-6.89-1.64-13.88-2-20.83-1.09-22.72-1.39-45.48,1.35-68.08,2.42-20,9-38.94,17-57.34A238,238,0,0,1,84,102.48,246.4,246.4,0,0,1,223.51,21.64c6.79-1.28,13.66-1.57,20.5-1.92,22.54-1.14,45.11-1.32,67.56,1.22,19.54,2.21,38.08,8.56,56.09,16.22A234.54,234.54,0,0,1,432.19,78c19.4,17.28,36.36,36.75,49.57,59.29,13.75,23.46,24,48.3,29.47,75,1.9,9.24,1.79,18.68,2.55,28,.08,1.07-.35,2.23.47,3.2v2.86c-.81.84-.35,1.9-.48,2.86.13,1-.33,2,.48,2.86v24.77a2.21,2.21,0,0,0,0,2.86v4.76c-1.13,4.94-1,10-1.27,15-1,19.69-7,38.15-14.27,56.15-9.19,22.6-21.17,43.71-36.84,62.54-20.9,25.12-45.17,46.21-74.08,61.78A243.76,243.76,0,0,1,322,504.28c-9.37,2-18.95,1.86-28.43,2.66-1.08.09-2.23-.35-3.2.47h-8.58a5.25,5.25,0,0,0-4.76,0H263.65A7.46,7.46,0,0,0,257.93,507.41Z" transform="translate(-25.75 -18.92)"/><path class="cls-2" d="M257.93,507.41c1.91-1.46,3.81-1.13,5.72,0Z" transform="translate(-25.75 -18.92)"/><path class="cls-2" d="M277,507.41c1.59-1,3.18-1.35,4.76,0Z" transform="translate(-25.75 -18.92)"/><path class="cls-3" d="M513.45,249.12c0-1-.55-2.17.8-2.79v2.86C513.92,249.84,513.65,249.82,513.45,249.12Z" transform="translate(-25.75 -18.92)"/><path class="cls-4" d="M513.45,249.12a3.61,3.61,0,0,1,.8.07v2.86A3,3,0,0,1,513.45,249.12Z" transform="translate(-25.75 -18.92)"/><path class="cls-5" d="M514.25,279.68c-1.39-.95-1.06-1.91,0-2.86Z" transform="translate(-25.75 -18.92)"/><path class="cls-6" d="M225.74,369.82c1.22-17.89,2.53-35.78,3.59-53.68.18-3,1.85-4.52,3.73-6.22l103.21-93.2c2.24-2,4.48-4,6.64-6.15.86-.84,2-1.79,1.17-3.24s-2.19-1.11-3.43-1c-2.81.21-5,1.8-7.32,3.23q-47.73,30-95.43,60.08c-13,8.2-26.06,16.37-39,24.65a7.49,7.49,0,0,1-7.06,1c-18.56-5.93-37.2-11.61-55.78-17.47-4.39-1.38-9.63-2.74-10.13-8.1-.54-5.66,4.5-8.18,8.86-9.93,19.87-7.93,39.84-15.58,59.79-23.29q87.8-33.9,175.61-67.75a43.75,43.75,0,0,1,5.87-1.92c7.41-1.68,13.3,2.41,14.46,9.9a30.16,30.16,0,0,1-.55,10.88q-19.79,93.27-39.59,186.54c-3.28,15.42-12.33,18.87-25,9.52-18.29-13.44-36.59-26.86-54.76-40.45-2.67-2-4.13-2.08-6.59.4-8.73,8.78-17.76,17.25-26.67,25.86a21.3,21.3,0,0,1-5.64,4.31C226.38,376.2,225.33,375.51,225.74,369.82Z" transform="translate(-25.75 -18.92)"/></svg>