<svg id="Layer_1" data-name="Layer 1" xmlns="http://www.w3.org/2000/svg" viewBox="0 0 581.08 508.85"><path d="M550.71,69.63c9.85,0,15.47,8.1,13.5,18.06q-30.18,152.1-60.4,304.2Q492.67,448,481.63,504.16c-2.86,14.68-16.37,24.32-30,24.32a27.35,27.35,0,0,1-16.72-5.6q-95.47-72.67-190.64-145.8c-.66-.51-1.22-1.16-2.14-2,14.37-12.93,28.59-25.72,42.8-38.52Q381.26,249.8,477.52,163a43.56,43.56,0,0,0,8.37-10.27c2-3.53.42-6.67-3.11-6.67a6.71,6.71,0,0,0-1.29.13,41.91,41.91,0,0,0-14.24,5.41Q406.5,189.78,346,228.42q-86.16,54.74-172.28,109.52a10,10,0,0,1-5.55,1.89,10.78,10.78,0,0,1-3.53-.65q-54.39-18.53-108.92-36.74c-10-3.38-18-9.05-22.24-19.28V275.9c4.36-8.23,11.6-12.94,20-16.21L475.6,94.18c16.86-6.61,33.58-13.65,50.63-19.72a83.29,83.29,0,0,1,23.61-4.81c.29,0,.58,0,.87,0m0-25c-.68,0-1.37,0-2.05,0h-.21a108.25,108.25,0,0,0-30.66,6.23c-12.28,4.38-24.36,9.22-36,13.9-5,2-10.21,4.1-15.28,6.09L44.34,236.41c-15.47,6.07-26.24,15.16-32.93,27.8a25,25,0,0,0-2.9,11.69v7.26a25,25,0,0,0,1.88,9.5c6.58,16,19.15,27.3,37.33,33.46l.06,0,19.57,6.57c29.28,9.84,59.56,20,89.26,30.14a36.06,36.06,0,0,0,11.59,2A34.69,34.69,0,0,0,187.25,359c39.89-25.37,80.19-51,120.35-76.51l-39.42,35.48Q252.07,332.46,235.87,347l-10.49,9.42a25,25,0,0,0-.56,36.65l.4.4a37.5,37.5,0,0,0,3.82,3.42c63.17,48.53,127.33,97.61,190.71,145.85a52.13,52.13,0,0,0,31.86,10.71,56.34,56.34,0,0,0,34.44-11.94,54.72,54.72,0,0,0,20.12-32.6c7.31-37.2,14.77-75,22.16-112.18,20-100.8,40.35-203.15,60.4-304.21,2.47-12.48-.43-24.89-8-34.06a38.59,38.59,0,0,0-30.06-13.86Z" transform="translate(-8.51 -44.63)"/></svg>