<svg id="Layer_1" data-name="Layer 1" xmlns="http://www.w3.org/2000/svg" viewBox="0 0 486.95 556.92"><path d="M214.4,572c-9.58-1.71-19.26-3-28.72-5.21C116.11,550.63,61.2,492.65,48.92,422.66,32.9,331.38,84.55,245,172.5,216.09A172.2,172.2,0,0,1,227,207.44c10.11,0,17.3,6.19,17.4,16.18q.41,43.77,0,87.55c-.1,9.88-7,15.74-17.5,16.17-32.36,1.35-57.54,24.78-60.69,56.5-3.17,31.89,19.05,61.3,50.72,67.14s63.48-14.17,71.29-45.37a81,81,0,0,0,2.2-19.33q.19-175.39.1-350.79c0-14.65,5.73-20.4,20.33-20.4q40.52,0,81,0c11.89,0,18.14,6,18.55,17.82,1.89,53.8,38.92,95.46,92.19,103.55,4.64.71,9.4.57,14.09,1,9.87.85,16.09,7.16,16.14,17q.21,43,0,85.93c-.07,10.62-7.36,17.21-18.36,17.05-34.57-.53-67.47-8.11-98.47-23.58-1.57-.79-3.19-1.48-5.62-2.6,0,2.75,0,4.84,0,6.93,0,52.57.44,105.15-.24,157.71-1.09,83.13-65.72,158.3-147.72,172.79-6.92,1.22-13.89,2.19-20.83,3.28Zm-2.5-331.1c-4.12.58-7.32,1-10.5,1.5C123.66,255.28,67.76,332.67,79.88,410.67c12.54,80.76,82.62,135.35,164,127.77,73.23-6.81,132.75-70.43,133.61-144.1.73-62.71.21-125.45.26-188.17a40.28,40.28,0,0,1,.37-7c1.74-9.55,10.33-15.42,19.69-13.12,3.05.75,6,2.62,8.6,4.44a187.16,187.16,0,0,0,63,28.47c9.93,2.37,20.08,3.8,30.84,5.79,0-18.52.09-35.7-.19-52.88,0-1.14-2.66-3-4.29-3.25-50.57-9.13-86.55-37-107.09-84.07-5-11.48-7.46-24.07-11.2-36.52H323.14v7.2q0,166.68,0,333.38c0,50.66-37,91-87.12,95.61-63.37,5.81-115.42-53.8-100.3-115.57,9.32-38.06,33.94-61.69,71.75-71.77,1.67-.45,4.25-2.22,4.27-3.41C212,276.24,211.9,259.05,211.9,240.9Z" transform="translate(-46.02 -15.08)"/></svg>