<svg id="Layer_1" data-name="Layer 1" xmlns="http://www.w3.org/2000/svg" viewBox="0 0 506.98 507.44"><defs><style>.cls-1{fill:#501432;}.cls-2{fill:#2d0f1e;}.cls-3{fill:#3b1126;}.cls-4{fill:#fefefe;}.cls-5{fill:#25f3ed;}.cls-6{fill:#fc2d55;}.cls-7{fill:#fd2c55;}.cls-8{fill:#29f3ed;}.cls-9{fill:#16070f;}</style></defs><path class="cls-1" d="M16.08,378.4V128a106.52,106.52,0,0,1,8-34.36c11.3-26.53,29.19-47.2,54.05-61.8,15.7-9.23,32.48-15,50.83-15.71H409.09c2.33,2,5.39-.69,7.74,1.2,5.9,2.52,12,4.57,17.51,7.94,39.9,24.19,46.69,80,13.8,113.08-11.81,11.89-25.77,19.19-42.45,21.14-1.64.19-3.17.9-4.81,1.1-14.08.09-27.44-2.5-39.33-10.57a16,16,0,0,1-3.89-3.77,49.3,49.3,0,0,1-7.84-17.88c-1.77-8.63-6.41-14.09-14.85-16.41a4.2,4.2,0,0,1-1.17-1.13,42.87,42.87,0,0,1-2.54-5.35,13.2,13.2,0,0,0-12.06-8.11q-17-.66-34.1,0c-8.2.29-13.46,6-13.65,14.58-.27,12.84,0,25.7-.1,38.55,0,2.62.26,5.29-1,7.76-2.21,2.78-5.39,2.14-8.25,2.07a245.26,245.26,0,0,0-57.45,5.23C165.06,174.05,129.76,191.36,99.2,218c-43.69,38.16-69.61,86.16-78.94,143.3-.92,5.65-.5,11.52-2.76,17A1,1,0,0,1,16.08,378.4Z" transform="translate(-16.08 -16.08)"/><path class="cls-2" d="M17.05,378.38c1.07-24.94,7.47-48.65,16.62-71.71,10-25.18,24.48-47.54,42.27-68a231.14,231.14,0,0,1,71.95-55.23,233.84,233.84,0,0,1,76.63-23c14.94-1.8,29.86-1.76,44.82-1.8,2.84,2.42,2.05,5.75,2.06,8.77q.11,47.73,0,95.46c0,23.57.24,47.15-.08,70.72-.36,27.71-24.08,49.83-51.74,48.65a43.79,43.79,0,0,1-21.06-6.41,8.59,8.59,0,0,1-3.24-2.89c-8.65-15.19-9.2-30.75-1.26-46.27,8.48-16.57,22.46-25.47,40.88-27.09,12.53-1.11,16.94-5.48,17-18.06,0-7.41,0-14.82,0-22.23,0-13-1.78-15.65-13.52-20.38a4.35,4.35,0,0,1-1.22-1,15.94,15.94,0,0,1-1.7-4.09c-2.41-6.67-7.26-10.08-14.26-10.11a99.55,99.55,0,0,0-42.68,9c-39.81,18.43-61.91,49.86-65.46,93.36-2.27,27.8,6.35,53,23.75,75,3.16,4,6.07,8.23,10.09,11.48a17.5,17.5,0,0,0,3.25,2.63,35.41,35.41,0,0,1,5.32,5.35c.85,1.72,2.36,2.89,3.61,4.28,33.24,30.75,71.26,40.89,114.94,26.74,2.63-.86,5.16-2.34,8.1-1.53,1.74.89,2.39,2.64,3.27,4.2,20.84,37,51.84,59.51,94.13,65.88,1.77.27,3.68.13,5.19,1.3.91.7,1.25,1.57-.34,2-81.65,0-163.29-.22-244.93.1-35.29.14-64.3-13.34-88.78-37.91C35.21,470.07,25,451.46,18.84,430.52c-2-6.69-1.43-13.69-2.76-20.44V387.31C17.4,384.44,15.79,381.25,17.05,378.38Z" transform="translate(-16.08 -16.08)"/><path class="cls-3" d="M17.05,378.38c-.37,3,1,6.13-1,8.93V378.4Z" transform="translate(-16.08 -16.08)"/><path class="cls-4" d="M154.68,421.35l-4.93-4.78c-1-1.51-2.62-2.36-3.62-3.83-11.27-14.21-17.25-30.64-19.66-48.38-4.8-35.33,5.39-66.32,29.19-92.45,18-19.8,41-31.09,67.63-34.65,4.72-.63,9.68-2.78,14.38.41l.33.34c1.69,1.71,1.51,3.93,1.52,6.05,0,8.23.11,16.46,0,24.7-.16,10.5-6.87,17.53-17.45,18.29-20.65,1.49-35.81,11-42.93,30.85-6.16,17.16-2.24,32.75,9.86,46.28,2.41,2.69,5,5.21,7.22,8.1l2,2c3.62,3.36,7.4,6.55,11.11,9.81,16,14.09,42.92,13.32,58.55-1.22,10.69-9.93,15.66-22,15.64-36.52q-.14-105.14,0-210.28c0-2.14,0-4.28,0-6.43.24-13.3,7-20.16,20.17-20.35,8.08-.11,16.16,0,24.24,0,2.47,0,5-.08,7,1.8l.91.48a3.28,3.28,0,0,1,1.3,1.44c4.19,12.87,12.27,23.16,21.52,32.69l2.82,2.69c6.53,6,12.76,12.34,20.6,16.74a64.81,64.81,0,0,0,24.82,7.65c1.78.21,3.64.15,5.24,1.19a3.7,3.7,0,0,1,1,1.27,160.66,160.66,0,0,1,.22,34.52c-.69,7.77-8.53,13.74-16.86,14-15.55.52-30.5-2.62-45-7.86a110.83,110.83,0,0,1-13.59-6c-2-1.05-3.1-.74-3.12,1.72,0,1.48,0,3,0,4.45q0,58.65,0,117.3c0,55.47-41,103-95.92,111-26,3.79-50.55-.78-73.36-14.08a50.57,50.57,0,0,1-6.24-4.82A30.49,30.49,0,0,1,154.68,421.35Z" transform="translate(-16.08 -16.08)"/><path class="cls-2" d="M416.16,18c47.29,6.06,93.21,44.52,104.28,99.85a131.37,131.37,0,0,1,2.33,32.94c-.69,2-.18,4.07-.34,6.1.26,18.8-6.32,35.67-15.83,51.26-20.29,33.27-49.72,53.88-88.19,61.14a98.87,98.87,0,0,1-19.64,1.94A126.08,126.08,0,0,0,355.55,278c-2.38.82-4.92,2.33-7.46.2-1.37-2.06-1.2-4.41-1.21-6.71q0-21.52,0-43a25.41,25.41,0,0,1,.28-4.44c.51-2.89,2.12-3.92,5-3a43.4,43.4,0,0,1,5.87,2.62,122.66,122.66,0,0,0,49.58,12.29c13.35.5,18.43-4.67,18.48-17.86,0-8.09-.15-16.17.05-24.25.2-8.34-2.69-14.46-11-17.21a7.28,7.28,0,0,1-2.84-1.94l-.34-.33c-2.19-6-6.29-10.66-10.79-15,6.3-2.42,13.19-2.32,19.5-4.92,25.77-10.59,41.85-29,45.88-56.91,4.1-28.32-6.53-50.79-28.81-68a59,59,0,0,0-17.84-9.34C418.52,19.66,416.57,20,416.16,18Z" transform="translate(-16.08 -16.08)"/><path class="cls-5" d="M334.87,111q-15.83,0-31.64.09c-11.76,0-17.88,6.21-17.88,18.09q0,109,0,218.05c0,25.37-16.25,44.4-41.15,48.53-17.41,2.89-38-6.76-46-21.56,14.66,7.43,29.64,8.73,44.58,1.24,16.7-8.37,26.38-22.28,26.53-40.89.49-58.32.19-116.64.19-175a6.61,6.61,0,0,0-.14-1q.09-22.68.17-45.36c0-11.77,6.19-18,17.9-18q14.55,0,29.1,0C327.49,95.31,333,100.06,334.87,111Z" transform="translate(-16.08 -16.08)"/><path class="cls-5" d="M401.1,159.3c6.61,2.84,10.75,7.45,10.79,15-21.06-.43-38.17-8.53-50.47-26a66.55,66.55,0,0,0,35.33,10.35A29.59,29.59,0,0,1,401.1,159.3Z" transform="translate(-16.08 -16.08)"/><path class="cls-6" d="M358.6,145.64c-11.84-8.55-19.64-19.8-22.82-34.13,7.1.18,11.88,4,13.71,10.48A126.62,126.62,0,0,0,358.6,145.64Z" transform="translate(-16.08 -16.08)"/><path d="M348.87,278.46c17.47-6.55,35.55-8.46,54.15-9.26,30.26-1.31,56.82-12.75,79.19-33.6a125.82,125.82,0,0,0,37.12-62.9c1.3-5.24,2.74-10.52,2.64-16,.26-.51.52-.54.8,0,.05,1.81.15,3.61.15,5.42,0,77.64-.39,155.27.14,232.9.4,58.7-40,110.5-96.11,124.3-13.74,3.38-27.59,4.08-41.61,3.48-10.95-1.88-21.91-3.51-32.42-7.49Q307.23,498,284.1,455.06a41.83,41.83,0,0,1-1.81-4.55c.32-3.07,3-3.69,5.13-4.75,24.6-12.48,41.59-31.9,51.91-57.24a102.51,102.51,0,0,0,7.56-38c.19-21.41,0-42.81.09-64.22C347,283.57,346.24,280.56,348.87,278.46Z" transform="translate(-16.08 -16.08)"/><path class="cls-7" d="M348.87,278.46c-.05,22.1,0,44.19-.18,66.29-.31,48.5-22.07,83.64-65.64,105.15a4.84,4.84,0,0,0-.76.61c-15.61,6.13-31.7,9.89-48.56,8.95-29.78-1.66-55.47-12.52-76-34.55a1,1,0,0,1,.88-.7c13.27,8.47,27.37,14.76,43,17.68a110.87,110.87,0,0,0,117.94-56,109.22,109.22,0,0,0,13.39-53c-.1-40.55,0-81.1,0-121.65v-6a139.42,139.42,0,0,0,29.05,12.11A119.84,119.84,0,0,0,397,222a15.48,15.48,0,0,0,15-15.2c.15-10.71.14-21.42.2-32.13,9.21.47,15.47,6.59,15.62,15.66q.24,15.81,0,31.61c-.15,9.42-7,16-16.55,15.87a125.05,125.05,0,0,1-57.85-14.4c-1-.53-2-1.08-3.06-1.59a9.91,9.91,0,0,0-1.52-.38Z" transform="translate(-16.08 -16.08)"/><path class="cls-5" d="M237.67,237.67c-27.84.76-52.5,9.78-73.54,28.26-40.09,35.23-48.9,96-20.46,141.21,1.13,1.8,2.16,3.67,3.24,5.51a1,1,0,0,1-.13,1.3c-18-16-29-36.21-33.48-59.64-11.54-60.11,25.88-116.61,85.6-129.88A97.39,97.39,0,0,1,221.48,222C230.87,222.13,237.13,228.2,237.67,237.67Z" transform="translate(-16.08 -16.08)"/><path class="cls-7" d="M196.2,372.28c-16.26-9.87-24.77-30.4-20.54-49.53,4.17-18.81,20.19-34.06,38.34-36.47,2.77-.37,5.54-.78,8.33-.9,9-.42,15.4-6.86,15.49-15.78.1-10.53.13-21.06.18-31.59,9.23.47,15.47,6.59,15.62,15.68.16,10.22.1,20.44,0,30.66S247.29,300.84,237,301.2c-27.41.94-47.86,23-46.62,50.32C190.69,358.9,193.35,365.61,196.2,372.28Z" transform="translate(-16.08 -16.08)"/><path class="cls-7" d="M158.58,424.21l-.88.7a6.21,6.21,0,0,1-3-3.56Z" transform="translate(-16.08 -16.08)"/><path class="cls-8" d="M146.78,414c0-.43.09-.87.13-1.3a7.78,7.78,0,0,1,2.84,3.92A6.17,6.17,0,0,1,146.78,414Z" transform="translate(-16.08 -16.08)"/><path class="cls-9" d="M522.77,156.67c-.27,0-.53,0-.8,0,.16-2-.61-4.1.8-5.93Z" transform="translate(-16.08 -16.08)"/></svg>