<svg id="Layer_1" data-name="Layer 1" xmlns="http://www.w3.org/2000/svg" viewBox="0 0 540.69 302.46"><defs><style>.cls-1{fill:#e2151a;}</style></defs><path class="cls-1" d="M411.57,77c20.91,0,40.9.19,60.89-.07,11.16-.15,19,4.32,24.34,14.16,14.66,26.76,29.61,53.36,44.54,80a60,60,0,0,1,8,30.71c-.19,14.73,0,29.46-.06,44.19,0,11.32-5.89,17.82-17,17.12-9.26-.58-14.26,1.25-17.92,11.22-6.7,18.24-26.4,29.25-45.17,28.06-20.5-1.31-37.22-14.2-43.39-33.46-.55-1.7-1.07-3.42-1.75-5.62H396.26c-41.46,0-82.93.06-124.39-.09-4,0-5.89.79-7.14,5a47.56,47.56,0,0,1-91.23.2c-1.22-4.08-2.81-5.3-7-5.26-22.36.23-44.73.12-67.1.1-8.86,0-11.67-2.85-11.68-11.78V196.21c-2.14-.1-4-.27-6-.27H23.9a30.88,30.88,0,0,1-5.44-.22c-4.3-.8-6.69-3.64-7-7.89C11,184,13.32,181.47,17,180.38a21.8,21.8,0,0,1,7-.85q51.56-.08,103.1,0a34.79,34.79,0,0,1,3.82.08c5.32.59,8.65,3,8.63,7.79,0,5-3.57,8.44-9.28,8.53-8.14.14-20.28,0-28.75,0v51.62c1.26.08,2.3.21,3.35.21,19.64,0,43.28,0,62.92.07,3,0,4.35-2.69,5.27-5.86,6.32-21.61,24.55-35.41,46.27-35.37,21.35,0,39.5,13.86,45.9,35.2.76,2.55.37,7,3.53,7,40.73-.12,88.46,0,129.2,0,.55-.09,1.09.18,1.62,0V12.88h-298V44.62h52.82c7,0,11,2.41,10.93,7.52-.08,5.43-4.06,7.87-10.95,7.88q-51,.09-102,0a20.78,20.78,0,0,1-2.73-.12c-5-.64-8.2-3.58-8.26-8.11C41.31,47,44.7,44.23,50,44.72c10.18-.26,20.37-.12,30.55-.14h7.17V19.24C87.69,5.68,93.33,0,106.84,0H392.15c13.74,0,19.4,5.76,19.42,19.67V77Zm126,168.54c0-15,.56-29.72-.24-44.36-.38-7-2-14.58-5.33-20.72-14.52-27.25-32.35-56.49-47.28-83.56-2-3.65-7.86-5-12-5-18.73.17-37.46.07-56.19.09-1.41,0-2.82.17-4.33.27l-2.35,156.62c10.91.57,10.91.57,14.78-9.07,9.84-24.48,40-39.55,64.49-29.71a47.8,47.8,0,0,1,26.44,26.35C519.58,246.27,525.34,246.27,537.58,245.49ZM255.06,254.9a35.91,35.91,0,0,0-35.34-36.47h-.67c-19.42,0-35,15.84-36,34.65a36.14,36.14,0,0,0,34.39,37.78c.57,0,1.14,0,1.71,0C238.88,291.29,255,274.79,255.06,254.9Zm252.06,0c0-20.59-15.6-36.49-35.81-36.52A35.72,35.72,0,0,0,435.46,254v.26c0,20.5,15.62,36.45,35.84,36.62A35.86,35.86,0,0,0,507.12,255v0Z" transform="translate(-8.65 0.03)"/><path class="cls-1" d="M94.93,131.14V88.54c.21-4.87,1.54-8.12,6.43-8.26a8.42,8.42,0,0,1,9,8.31c.12,12.3,0,24.59,0,36.87v5.68H220.22a40.07,40.07,0,0,1,4.9.08c4.74.59,7.61,2.08,7.79,6.32s-2.54,6.77-7.17,7.69a25.79,25.79,0,0,1-4.89.17H70.35c-5.65-.29-9.13-3.2-9.12-7.59s3.5-6.52,9.15-6.62C77.63,131,86.89,131.14,94.93,131.14Z" transform="translate(-8.65 0.03)"/><path class="cls-1" d="M17.91,88.5H75.27c5.12,0,9.26,3,9.26,6.75v.64c0,3.73-4.14,6.76-9.26,6.76H17.91c-5.11,0-9.26-3-9.26-6.76v-.64C8.65,91.52,12.8,88.5,17.91,88.5Z" transform="translate(-8.65 0.03)"/></svg>