<svg id="Layer_1" data-name="Layer 1" xmlns="http://www.w3.org/2000/svg" viewBox="0 0 585.54 189.5"><defs><style>.cls-1{fill:#00579f;}.cls-2{fill:#faa61a;}</style></defs><g id="g4158"><polygon id="polygon9" class="cls-1" points="253.74 186.77 206.3 186.77 235.97 3.33 283.4 3.33 253.74 186.77"/><path id="path11" class="cls-1" d="M429.14,226.44a116.92,116.92,0,0,0-42.54-7.81c-46.85,0-79.83,25-80,60.69-.39,26.35,23.61,41,41.57,49.77,18.35,9,24.59,14.84,24.59,22.84-.19,12.29-14.83,17.95-28.49,17.95-18.94,0-29.08-2.92-44.5-9.76l-6.25-2.93-6.64,41.18c11.13,5.07,31.63,9.57,52.9,9.77,49.78,0,82.18-24.6,82.56-62.65.19-20.89-12.49-36.89-39.81-50-16.59-8.4-26.75-14.06-26.75-22.64.19-7.81,8.59-15.81,27.32-15.81a80.57,80.57,0,0,1,35.33,7l4.29,1.94,6.45-39.61Z" transform="translate(-3.46 -218.63)"/><path id="path13" class="cls-1" d="M492.18,340.41c3.91-10.54,18.94-51.32,18.94-51.32-.2.39,3.9-10.74,6.24-17.57l3.32,15.81s9,43.91,10.93,53.08ZM550.73,222H514c-11.31,0-19.91,3.31-24.79,15.22L418.8,405.4h49.77s8.19-22.64,9.95-27.52h60.9c1.36,6.44,5.66,27.52,5.66,27.52H589L550.73,222Z" transform="translate(-3.46 -218.63)"/><path id="path15" class="cls-1" d="M170.14,222,123.69,347.05l-5.08-25.37C110,292.4,83.09,260.6,53,244.78L95.58,405.21h50.16L220.3,222Z" transform="translate(-3.46 -218.63)"/><path id="path17" class="cls-2" d="M80.55,222H4.24l-.78,3.7c59.53,15.23,99,51.92,115.15,96L102,237.38c-2.73-11.72-11.12-15-21.47-15.42Z" transform="translate(-3.46 -218.63)"/></g></svg>