<svg id="Layer_1" data-name="Layer 1" xmlns="http://www.w3.org/2000/svg" viewBox="0 0 520.5 168.09"><defs><style>.cls-1{fill:#1a2ade;}</style></defs><path class="cls-1" d="M527.27,337.1q-15.07-71.79-29.91-143.6c-.74-3.6-1.92-5-5.84-4.88-9.31.34-18.64.1-28,.12-12.08,0-17.6,3.64-22.25,14.73q-30.1,71.82-60.14,143.66c-.52,1.25-1.81,2.49-.8,4.29,13.36,0,26.75-.07,40.13.06,2.57,0,3.46-1.07,4.2-3.3,2-5.93,4.31-11.75,6.31-17.67.81-2.4,1.92-3.49,4.67-3.46q23.64.21,47.29,0c2.56,0,3.52.83,4,3.3,1.05,5.82,2.62,11.56,3.54,17.4.49,3.1,1.84,3.76,4.7,3.72,11.69-.17,23.39-.11,35.09-.14v-2C528.4,345.45,528.13,341.19,527.27,337.1Zm-52.56-43.22c-8.79-.29-17.6-.18-26.4-.05-3.05.05-3.78-.61-2.64-3.71,6.62-17.89,13.05-35.85,19.55-53.79.28-.79.54-1.61,1.62-1.94,3.84,18.33,7.61,36.66,11.56,54.94C479.16,292.83,478.57,294,474.71,293.88Z" transform="translate(-9.75 -185.95)"/><path class="cls-1" d="M119.78,298c7-17.59,13.89-35,20.76-52.37s13.83-34.89,20.57-52.4c1.26-3.25,2.72-4.72,6.51-4.62q17.28.45,34.57,0c4.82-.13,4.63,1.23,3.06,5q-32.4,76.89-64.48,153.9c-1.22,2.92-2.61,4.06-5.87,4-11.69-.21-23.39-.3-35.07,0-4.19.12-5.77-1.16-6.79-5.17C82.59,305.23,71.77,264.19,61.47,223c-2.23-8.89-6.85-14.66-15.24-18.06a220.57,220.57,0,0,0-32.82-10.47c-1.38-.32-4.1.32-3.6-2.91.42-2.74,2.09-2.89,4.31-2.88,22.21.05,44.41-.06,66.61.07,11.74.06,18.89,6.5,21.15,18.53q8.24,43.89,16.44,87.8A3.67,3.67,0,0,0,119.78,298Z" transform="translate(-9.75 -185.95)"/><path class="cls-1" d="M269.05,309.65c14.7,7.56,29.53,11.05,45.3,10.22a34.12,34.12,0,0,0,15.55-4.15c9.08-5.26,10-14.86,2.18-21.84-4.21-3.75-9.2-6.3-14.19-8.83-7.4-3.75-14.69-7.65-21.36-12.66-27.82-20.91-19-53.11-1.66-68.17s38.45-19,60.72-18.16a110.43,110.43,0,0,1,30.33,5.82c2.6.85,3.32,2,2.69,4.77q-3.18,13.59-5.86,27.29c-.59,3-1.56,3.34-4.31,2.25-13.43-5.37-27.28-7.94-41.72-5.1a24.34,24.34,0,0,0-6.19,2.16c-9.68,4.89-10.57,13.85-2,20.51,6.18,4.82,13.4,7.88,20.14,11.77,4.1,2.36,8.27,4.64,12.16,7.32,25,17.21,28,48.78,6.68,70.64-10.34,10.6-23.42,16-37.64,18.58-21.23,3.88-42.13,1.86-62.73-4.42-4.35-1.32-5.94-2.78-4.63-7.71C265.07,330.15,266.82,320.14,269.05,309.65Z" transform="translate(-9.75 -185.95)"/><path class="cls-1" d="M211.17,351.42c-5.6,0-11.19-.14-16.78.05-3.1.11-4-.34-3.18-3.86,6.49-29.57,12.71-59.2,19-88.8,4.63-21.67,9.36-43.31,13.83-65,.77-3.73,1.94-5.31,6.1-5.18,10.84.33,21.69.24,32.53,0,3.67-.08,4.63.76,3.81,4.54q-16.06,74.13-31.9,148.31c-2.14,9.92-2.2,9.91-12.25,9.91Z" transform="translate(-9.75 -185.95)"/></svg>