<svg id="Layer_1" data-name="Layer 1" xmlns="http://www.w3.org/2000/svg" viewBox="0 0 555.05 555.13"><path d="M393,429.43c-27.84-.77-53.57-9.41-78-22-56.66-29.27-103.49-69.74-137.64-124C162.59,260,152,234.7,153.23,206.08c1.06-25.35,12.86-45,33.52-59.16,13.19-9,27-8.45,39.08,2.12,20.19,17.67,29.92,40.87,31,67.21.29,6.88-4.06,14.36-7.59,20.86-3.07,5.67-8,10.34-12.08,15.46-3.88,4.84-4.45,10-1.22,15.38,24.64,41.32,58.87,71.53,103.74,89.36,7.62,3,11.82,1.88,16.5-4.71s8.92-13.25,13.28-19.94c7.31-11.21,17.57-14.37,30.37-11.89,17.2,3.33,32.95,9.77,46.67,20.73,19.19,15.33,22.33,32.25,10.19,53.51C443.66,417.8,421.62,429.71,393,429.43Z" transform="translate(-31 -7.64)"/><path d="M45.39,562.29a7.89,7.89,0,0,1-7.17-.91c-7.73-5.3-8.44-8.87-4.6-18.8,12.93-33.51,25.78-67,38.9-100.48a16,16,0,0,0-1.15-14c-37.72-63.58-49.57-131.87-33.17-204C72.26,74.16,218.11-18.15,368.47,14c108.58,23.24,194,112.09,213.21,222,1.64,9.37,2.8,18.81,4.16,28.22l.21,39.73c-.86,6.54-1.61,13.1-2.58,19.62-8.65,57.67-32.33,108.27-72.32,150.79q-63.79,67.86-155.89,83.7c-10.74,1.84-21.62,2.88-32.45,4.28a2.34,2.34,0,0,1-.38,0H294.81a3.38,3.38,0,0,1-.72-.08,27.74,27.74,0,0,0-4.34-.92A272.38,272.38,0,0,1,166.28,522.5c-3.12-1.88-5.66-1.91-9-.69C134.79,530,112.2,537.93,89.68,546,74.89,551.37,60.15,556.87,45.39,562.29Zm19.16-36.78a3.09,3.09,0,0,0,3.92,4h0c29.37-10.5,58.76-20.92,88.06-31.6a16.67,16.67,0,0,1,15.82,1.64q89.24,55.52,192.12,33.69C502,504,590.61,361.56,556.29,224.91,517.82,71.72,356.54-9.82,210.33,50,98.09,95.92,33.28,220.07,59.66,338.4c6.87,30.8,18.58,59.51,36,85.82,3.51,5.31,4.52,10.28,1.76,16.21-2.43,5.22-4.19,10.75-6.26,16.13C82.41,479.22,73.66,501.88,64.55,525.51Z" transform="translate(-31 -7.64)"/></svg>