<svg id="Layer_1" data-name="Layer 1" xmlns="http://www.w3.org/2000/svg" viewBox="0 0 503.04 503.4"><defs><style>.cls-1{fill:#00ea78;}.cls-2{fill:#00d164;}.cls-3{fill:#00e070;}.cls-4{fill:#58e199;}.cls-5{fill:#fefefe;}.cls-6{fill:#05dc6f;}.cls-7{fill:#00b850;}</style></defs><path class="cls-1" d="M18.08,375.58V129.06c.81-3.32.69-6.74,1.05-10.11C21.48,96.81,32,78.45,45.66,61.56c10.12-12.49,22.47-22.21,36.47-30s28.49-13,44.62-13c.8,0,1.64.15,2.31-.49H408a3.67,3.67,0,0,0,1.08.79c2.28.18,4.55.5,6.82.75,29.27,9,46.51,28.64,51.27,58.77a71.88,71.88,0,0,1-37.05,74.49c-2.31,1.26-4.64,2.46-7.41,2.12-3.45-.63-5-3.6-6.9-5.93C388.7,115.8,354,94.9,312.06,86.72c-55.94-10.92-106.1,2.89-150,38.78-25.79,21.09-43.33,48.22-53.95,79.82-1.18,3.52-1.69,7.37-4.3,10.33a253.73,253.73,0,0,0-21.68,21.07A258.84,258.84,0,0,0,52.57,276.8,238.31,238.31,0,0,0,23.1,358.72c-.74,4.34-.84,8.76-1.86,13.06-.34,1.44-.44,2.92-1.75,3.9A1.14,1.14,0,0,1,18.08,375.58Z" transform="translate(-18.08 -18.08)"/><path class="cls-2" d="M19,375.57c1.46-22.15,6.69-43.44,14.47-64.16,12.65-33.74,32.58-62.64,58.36-87.62,3.39-3.28,7.14-6.18,10.72-9.26,2.66,2.14,1.38,4.94.86,7.3A244.82,244.82,0,0,0,99.54,248c-1.52,14.11-.6,28,1.67,42,3.25,19.84,9.39,38.76,19.29,56.3,3.08,5.47,3.23,10.51,1.48,16.33-6.25,20.82-12.06,41.76-18,62.66-.18.63-.37,1.26-.52,1.89-1.6,6.81,1.79,10.22,8.6,8.41,9.63-2.56,19.18-5.44,28.77-8.15,13.05-3.69,26.08-7.44,39.13-11.16a12.73,12.73,0,0,1,10.32,1.13,180.92,180.92,0,0,0,49.83,18.79,211.64,211.64,0,0,0,32.52,4.07c2.26.13,4.6-.26,6.7,1,5.74,7.56,8.88,16.64,14.47,24.35,20.35,28,47.15,45.59,81.44,51.41,2.25.39,4.51.76,6.74,1.22s2.28,1,1.58,3.26c-82.1,0-164.2-.11-246.3.06-31.23.07-57.43-11.59-80.13-32.42a127.14,127.14,0,0,1-35.77-56.45c-2.34-7.4-1.63-15.18-3.26-22.65v-4.91a1.29,1.29,0,0,0,0-2V384.42C19.38,381.58,17.78,378.42,19,375.57Z" transform="translate(-18.08 -18.08)"/><path class="cls-3" d="M19,375.57c-.27,2.95.81,6.06-1,8.85v-8.84Z" transform="translate(-18.08 -18.08)"/><path class="cls-4" d="M18.08,403.08c.81.66,1.07,1.31,0,2Z" transform="translate(-18.08 -18.08)"/><path class="cls-5" d="M279.31,442.52c-27-.17-52.93-5.31-77.48-16.78-2.81-1.31-5.93-2.26-8.3-4.14-5.83-4.63-11.65-3.85-18.26-1.85-20.79,6.28-41.74,12-62.61,18-3.63,1-7.07,1.58-10.06-1.42s-2.37-6.46-1.33-10.07q9.81-34.14,19.52-68.29c.69-2.39,1-4.46-.35-7q-35.53-63.69-18-134.56a12.52,12.52,0,0,0,.15-1.95c5.67-18.13,12.69-35.66,23.37-51.5,30.31-45,72.05-72.88,125.88-80,69.15-9.11,125.7,15,169.44,69.25a14.55,14.55,0,0,0,1.38,1.34c3.07.88,4.74,3.29,6.39,5.77,18.37,27.53,28.89,57.7,30.7,90.83a9,9,0,0,0,.48,2.4c1,27.32-3.24,53.77-13.85,79a183.83,183.83,0,0,1-32.13,51.26c-24.86,28-55.48,46.25-91.42,56-11.7,3.17-23.72,4.46-35.75,5.53C284.36,444.66,281.45,445,279.31,442.52Z" transform="translate(-18.08 -18.08)"/><path class="cls-2" d="M458.14,252.79c-1.93-24.8-7.53-48.63-18.62-71-4.87-9.83-10.91-18.92-16.86-28.08,23.49-10,37.45-27.92,42.14-52.72,3.84-20.3-1-39-13.68-55.34-9.34-12-21.25-20.68-36.24-24.59a.64.64,0,0,1-.24-.71c.08-.24.17-.36.25-.36,20.94,2.63,39.64,10.87,56.15,23.69,32.3,25.08,48.87,58.33,49.87,99.26.09,3.91-.08,7.83-.14,11.75-.54,4.53-.48,9.09-.94,13.63-2.05,20.23-11.1,37.52-23.18,53.21-9.08,11.8-19.64,22.35-32.65,30.06C462.17,252.63,460.44,254,458.14,252.79Z" transform="translate(-18.08 -18.08)"/><path class="cls-6" d="M414.89,19.94c0,.36,0,.72,0,1.08-2.23-.88-4.88-.41-6.82-2.16C410.33,19.25,412.75,18.69,414.89,19.94Z" transform="translate(-18.08 -18.08)"/><path class="cls-7" d="M458.14,252.79a129.08,129.08,0,0,0,43.47-42.22c10.24-16.26,16.73-33.88,18.4-53.14a15.84,15.84,0,0,1,.76-2.79c.06,2.45.16,4.9.16,7.35,0,77.09-.54,154.17.19,231.25.55,58.49-39.66,112.55-100.6,125.35-11.93,2.5-24,2.71-36.11,2.18-10.07-1.85-20.23-3.14-30-6.65-34.2-12.31-58.68-35.11-74.1-67.86a22.91,22.91,0,0,1-1-3.74c32-.91,62.18-8.49,89.61-25.15q74-45,87.37-130.81C458,275.35,458.06,264.08,458.14,252.79Z" transform="translate(-18.08 -18.08)"/><path class="cls-2" d="M385.43,159.48c17.16,17.34,28.39,38.1,35.2,61.35a148.62,148.62,0,0,1,5.73,43.09,46.54,46.54,0,0,1-.51,4.83c-18.43,3.91-37.45,1.78-55.91,5.65-13.77,2.88-26.3,8.74-38.83,14.72a2.84,2.84,0,0,1-1.92.22c-6.7-3-11.11.51-15.33,5.12-3,3.26-6.16,6.33-9.35,9.39a10.88,10.88,0,0,1-9.85,3.15,70.46,70.46,0,0,1-33.14-15c-14.35-11.43-24.4-25.72-28.86-43.78-1.57-6.39-.56-11.48,4.49-15.89,3.69-3.22,7-6.92,10.45-10.37s4.07-6.79,1.91-11.08q-7.72-15.34-15.35-30.74a8.81,8.81,0,0,0-7.11-5.32c-7.6-1-14.39.2-20.4,5.76-13.1,12.09-15.31,26.86-12.49,43.53,5.51,32.5,19.68,60.45,43.38,83.34a142.56,142.56,0,0,0,39.67,26.78c2.6,1.2,5.67,2.06,6.4,5.53.37,3.64-1.75,6.55-3,9.68a126.79,126.79,0,0,0-8.88,51.12c.21,6,1.21,6.84,7.29,7.2,2.9.17,6.36-1.16,8.37,2.35-15.31,2-30.33-.11-45.19-3.52a136.69,136.69,0,0,1-39.42-15.8,20.16,20.16,0,0,0-17.32-2c-14.83,4.55-29.8,8.63-44.72,12.88-1.36.39-2.74.69-4.77,1.2,4.55-16,8.58-31.41,13.42-46.59,2.65-8.3,1.42-15.13-2.63-22.79-26.15-49.58-25-99,2.15-147.92a37.74,37.74,0,0,1,2.53-3.56c10.83-8.94,24.34-11.72,37.21-15.68,21.52-6.61,43.71-9.19,66.23-9.14,39.89.09,79.77,0,119.65,0C378.36,157.26,382.1,157.32,385.43,159.48Z" transform="translate(-18.08 -18.08)"/><path class="cls-7" d="M330.39,288c15.35-9.93,32.24-15.38,50.34-17.51,13.72-1.62,27.73-.14,41.26-3.81,1.8-.49,3.7-.63,3.86,2.12-.76,28.4-9.64,54.23-25.84,77.34-26.77,38.2-63.66,59.52-110.15,64.07-.8.08-1.63,0-2.44,0-3.59-.06-7.17-.14-10.76-.17-5.93-.06-6.82-.68-7.05-6.66a146.77,146.77,0,0,1,1.28-26.81c1.92-13.06,6.44-25.22,11.42-37.29,2-2.05,4.26-1.05,6.4-.33a184,184,0,0,0,32.4,7.53c16.55,2.39,29.71-3.41,39.7-16.15,4.78-6.09,4.76-13.72,2.49-21.12-.74-2.41-2.93-3.41-5-4.45-7.72-3.95-15.52-7.74-23.24-11.7C333,291.9,330.45,291,330.39,288Z" transform="translate(-18.08 -18.08)"/><path class="cls-1" d="M385.43,159.48l-131.47,0a231.87,231.87,0,0,0-97.8,21.32,10,10,0,0,1-4.69,1.23c9.46-16.21,22.41-29.24,37.32-40.41,58.69-43.93,143.33-37.29,194.48,15.22C384.06,157.67,384.71,158.61,385.43,159.48Z" transform="translate(-18.08 -18.08)"/><path class="cls-5" d="M330.39,288c9.76,5,19.43,10.07,29.3,14.79,4.55,2.18,6.83,5.23,6.61,10.3-.32,7.07,1,14.27-4.86,20.28-8.37,8.58-17.49,15.46-30,15.74-15.56.34-30.43-3.4-45-8.59-1.37-.49-2.79-.84-4.18-1.25-15.69-7.14-30.51-15.66-43.27-27.43q-43.41-40-48.2-98.9c-1.23-15.57,6.11-27.19,17.34-36.59,6.72-5.62,15.17-4,23.09-2.72,2.09.34,3.32,2.49,4.3,4.46,5.45,11,10.86,22,16.44,32.87,2.27,4.46,1.51,8.09-2,11.48-4.35,4.22-8.51,8.63-12.88,12.81a9.84,9.84,0,0,0-3.08,9.72c5.27,28.55,31.59,54.86,60.1,60.05,3.72.67,6.71,0,9.35-2.78,3.64-3.77,7.4-7.42,11.11-11.12C321.26,284.45,321.92,284.32,330.39,288Z" transform="translate(-18.08 -18.08)"/></svg>