<svg width="27" height="27" viewBox="0 0 27 27" fill="none" xmlns="http://www.w3.org/2000/svg">
<path d="M7.90023 20.1454L8.68966 20.6057C10.0085 21.3747 11.5073 21.7854 13.0714 21.7854C17.8841 21.7854 21.7855 17.8839 21.7855 13.0712C21.7855 8.25855 17.8841 4.35709 13.0714 4.35709C8.2587 4.35709 4.35725 8.25855 4.35725 13.0712C4.35725 14.6358 4.76815 16.1351 5.53766 17.4542L5.99775 18.2429L5.28592 20.8588L7.90023 20.1454ZM2.18326 23.9639L3.65591 18.5519C2.71677 16.9421 2.17871 15.0695 2.17871 13.0712C2.17871 7.05537 7.05553 2.17856 13.0714 2.17856C19.0872 2.17856 23.9641 7.05537 23.9641 13.0712C23.9641 19.087 19.0872 23.9639 13.0714 23.9639C11.0738 23.9639 9.2018 23.4262 7.59224 22.4876L2.18326 23.9639ZM9.14059 7.96075C9.28642 7.9505 9.43274 7.94893 9.57877 7.95606C9.63776 7.95993 9.69648 7.96675 9.75523 7.97354C9.92871 7.99357 10.1195 8.09922 10.1836 8.24463C10.5086 8.98143 10.8239 9.72245 11.1295 10.4675C11.1969 10.632 11.1563 10.8451 11.0279 11.0514C10.9628 11.1572 10.8605 11.3055 10.742 11.4573C10.6188 11.6149 10.3537 11.9047 10.3537 11.9047C10.3537 11.9047 10.2463 12.0335 10.2867 12.1937C10.3025 12.2543 10.3528 12.3425 10.3984 12.4167C10.4237 12.4578 10.4471 12.4945 10.4624 12.5198C10.7411 12.9853 11.1158 13.4572 11.5736 13.9008C11.7047 14.0279 11.8319 14.1577 11.9687 14.2781C12.4788 14.7279 13.0559 15.0954 13.6792 15.3676L13.6848 15.3701C13.7768 15.4098 13.8241 15.4315 13.9588 15.4886C14.0268 15.5174 14.0963 15.5422 14.1676 15.5611C14.1935 15.5678 14.2199 15.5716 14.2465 15.5735C14.4226 15.5841 14.5245 15.4711 14.568 15.4192C15.356 14.4644 15.4281 14.4021 15.4336 14.4025V14.4043C15.5372 14.2951 15.7 14.2572 15.8453 14.2662C15.9117 14.2702 15.9777 14.2829 16.038 14.3105C16.6173 14.5748 17.5644 14.9869 17.5644 14.9869L18.1978 15.2717C18.3039 15.3229 18.4008 15.4434 18.4054 15.5606C18.4083 15.6335 18.4161 15.7512 18.3901 15.9664C18.356 16.2482 18.2703 16.5875 18.1851 16.7653C18.1252 16.89 18.0476 17.0007 17.9574 17.0943C17.8351 17.2213 17.7443 17.2985 17.5972 17.408C17.5077 17.4747 17.4613 17.5061 17.4613 17.5061C17.31 17.6015 17.2247 17.6492 17.0444 17.7452C16.764 17.8945 16.4542 17.9803 16.1369 17.9967C15.9347 18.007 15.7329 18.0216 15.5309 18.0107C15.5219 18.0102 14.9119 17.9165 14.9119 17.9165C13.3631 17.5091 11.9307 16.746 10.7288 15.6877C10.483 15.4713 10.2551 15.2372 10.0225 15.0057C9.05406 14.0416 8.32092 13.002 7.87635 12.0186C7.65713 11.5336 7.51831 11.0143 7.51612 10.4798C7.5121 9.81874 7.72854 9.17514 8.13124 8.65084C8.21063 8.54747 8.28597 8.44027 8.41598 8.31752C8.55365 8.18751 8.64127 8.11773 8.73565 8.06944C8.86146 8.00507 8.99965 7.97065 9.14059 7.96075Z" fill="white"/>
</svg>
