<svg id="Layer_1" data-name="Layer 1" xmlns="http://www.w3.org/2000/svg" viewBox="0 0 525.34 375.77"><defs><style>.cls-1{fill:#f51c0d;}.cls-2{fill:#fefefe;}</style></defs><path class="cls-1" d="M532.9,181.34V358.66c-1.52,8.5-1.27,17.26-4.42,25.54-11.87,31.29-33.43,53-64.28,65.62-13.6,5.56-27.84,7.52-42.54,7.5-101.63-.12-203.26.32-304.89-.23-47.54-.26-80.87-24.2-101.69-66.23C9,378.53,7.67,365,7.65,351.47c-.1-54.66.09-109.32-.09-164-.12-35.2,15.58-62.23,42.59-83.33C69.93,88.7,92.67,81.66,117.8,81.68c102.14.1,204.29-.34,306.43.21,47.54.25,80.85,24.19,101.7,66.21,4.69,9.44,6.11,19.81,6.46,30.3C532.42,179.4,532.2,180.45,532.9,181.34Z" transform="translate(-7.56 -81.61)"/><path class="cls-2" d="M198.57,269.73q0-33.56,0-67.11c0-9.06,3.35-11.18,11.31-7.15Q278.51,230.22,347.14,265c2.95,1.49,6.13,2.92,6.17,6.74s-3.2,5.29-6.17,6.7Q278.41,311.23,209.67,344c-7.77,3.71-11.09,1.55-11.1-7.16Q198.54,303.29,198.57,269.73Z" transform="translate(-7.56 -81.61)"/></svg>