<svg id="Layer_1" data-name="Layer 1" xmlns="http://www.w3.org/2000/svg" viewBox="0 0 565.1 395.95"><path d="M20,232.4c1.41-6.22,2.56-12.51,4.27-18.65,13.08-46.81,55.35-80.24,104-80.72,64.35-.63,128.7-.22,193.06-.24,50.19,0,100.39-.14,150.58,0,52.59.19,95.8,32.6,109,82.08a115,115,0,0,1,3.9,28.82q.52,86.88.12,173.78c-.25,60.93-48.18,110.06-109.2,110.71-70.78.76-141.57.23-212.36.24-43.39,0-86.79.14-130.18,0-52.53-.21-95.74-32.71-109.25-82-1.59-5.79-2.65-11.73-3.95-17.59Zm282.24,263q83.83,0,167.68,0a92.92,92.92,0,0,0,15.39-.83c39.89-6.73,66.55-38.46,66.57-79.07q.06-84.41,0-168.81c0-46.66-33.53-80.46-80.08-80.69-21.51-.11-43,0-64.53,0q-136.8,0-273.58,0c-47,0-80.58,33.81-80.59,80.72q0,84.41.07,168.81a86.64,86.64,0,0,0,1.74,18.05c8.1,37.16,39,61.71,78,61.81C189.35,495.45,245.79,495.35,302.24,495.35Z" transform="translate(-20 -132.68)"/><path d="M231,329.56c0-29,.07-58.09,0-87.13,0-7.48,1.74-13.89,8.66-17.8s13.26-2,19.61,2.05Q329.36,270.93,399.62,315c5.78,3.62,10.14,7.95,10.37,15.16.25,7.7-4,12.53-10.23,16.34q-46.12,28.07-92.11,56.34c-16.29,10-32.62,19.88-48.84,30-6.2,3.85-12.44,5.53-19.17,1.73S231,424.56,231,417.25C231.05,388,231,358.79,231,329.56Zm131.18,1L264.55,269.2V390.37Z" transform="translate(-20 -132.68)"/></svg>